<svg width="114" height="96" viewBox="0 0 114 96" fill="none" xmlns="http://www.w3.org/2000/svg">
<path d="M55.5711 36H107.5C110.261 36 112.5 38.2386 112.5 41V55C112.5 57.7614 110.261 60 107.5 60H55.5711C51.1165 60 48.8857 65.3857 52.0355 68.5355L69.9645 86.4645C73.1143 89.6143 70.8835 95 66.4289 95H48.0711C46.745 95 45.4732 94.4732 44.5355 93.5355L2.53553 51.5355C0.582909 49.5829 0.582916 46.4171 2.53554 44.4645L44.5355 2.46447C45.4732 1.52678 46.745 1 48.0711 1H66.4289C70.8835 1 73.1143 6.38572 69.9645 9.53554L52.0355 27.4645C48.8857 30.6143 51.1165 36 55.5711 36Z" fill="#05A552" stroke="black" stroke-width="2"/>
</svg>
