<svg width="2888" height="175" viewBox="0 0 2888 175" fill="none" xmlns="http://www.w3.org/2000/svg">
<path d="M600.5 1.00195L97.5986 1.00195C92.632 1.00205 87.8628 2.94683 84.3124 6.41992L8.00579 81.0684C4.39754 84.5984 4.39753 90.4056 8.00579 93.9356L84.3124 168.584C87.8628 172.057 92.632 174.002 97.5986 174.002H600.5C610.993 174.002 619.5 165.495 619.5 155.002V20.002C619.5 9.50861 610.993 1.00196 600.5 1.00195Z" fill="#7A78FF" stroke="#141414" stroke-width="2"/>
<path d="M169.632 91.842C169.632 95.106 170.24 97.954 171.456 100.386C172.736 102.754 174.592 104.578 177.024 105.858C179.52 107.138 182.56 107.778 186.144 107.778C189.792 107.778 192.832 107.138 195.264 105.858C197.696 104.578 199.52 102.754 200.736 100.386C201.952 97.954 202.56 95.106 202.56 91.842V52.0019H222.528V92.802C222.528 99.394 220.992 105.154 217.92 110.082C214.912 114.946 210.688 118.754 205.248 121.506C199.808 124.194 193.44 125.538 186.144 125.538C178.912 125.538 172.544 124.194 167.04 121.506C161.6 118.754 157.344 114.946 154.272 110.082C151.264 105.154 149.76 99.394 149.76 92.802V52.0019H169.632V91.842ZM277.061 92.61V80.514L312.389 124.002H287.909L264.581 93.858H274.373L250.949 124.002H226.757L262.277 80.61V92.514L228.869 52.0019H253.733L274.853 79.266H265.061L285.893 52.0019H310.373L277.061 92.61ZM340.974 49.41H355.566L328.686 126.594H314.094L340.974 49.41ZM382.445 91.842C382.445 95.106 383.053 97.954 384.269 100.386C385.549 102.754 387.405 104.578 389.837 105.858C392.333 107.138 395.373 107.778 398.957 107.778C402.605 107.778 405.645 107.138 408.077 105.858C410.509 104.578 412.333 102.754 413.549 100.386C414.765 97.954 415.373 95.106 415.373 91.842V52.0019H435.341V92.802C435.341 99.394 433.805 105.154 430.733 110.082C427.725 114.946 423.501 118.754 418.061 121.506C412.621 124.194 406.253 125.538 398.957 125.538C391.725 125.538 385.357 124.194 379.853 121.506C374.413 118.754 370.157 114.946 367.085 110.082C364.077 105.154 362.573 99.394 362.573 92.802V52.0019H382.445V91.842ZM447.814 52.0019L467.686 52.0019V124.002H447.814V52.0019Z" fill="white"/>
<path d="M1060.5 1.00195L608.6 1.00195C603.633 1.00195 598.863 2.94671 595.312 6.41992L519.007 81.0684C515.398 84.5984 515.398 90.4055 519.007 93.9356L595.312 168.584C598.863 172.057 603.633 174.002 608.6 174.002H1060.5C1070.99 174.002 1079.5 165.495 1079.5 155.002V20.002C1079.5 9.50854 1070.99 1.00195 1060.5 1.00195Z" fill="#05A552" stroke="#141414" stroke-width="2"/>
<path d="M655.72 52.0019H675.592V124.002H655.72V52.0019ZM712.36 52.0019H732.328V124.002H712.36V52.0019ZM666.856 78.594H720.616V96.258H666.856V78.594ZM851.03 52.0019V124.002H832.118V59.1059L836.342 59.586L808.502 124.002H788.342L760.406 59.778L764.726 59.298V124.002H745.814V52.0019H776.534L802.358 113.826H794.678L820.31 52.0019H851.03ZM864.501 52.0019H884.373V124.002H864.501V52.0019Z" fill="white"/>
<path d="M1700 1.00195L1064.6 1.00195C1059.63 1.00208 1054.86 2.94682 1051.31 6.41992L975.008 81.0684C971.399 84.5984 971.399 90.4055 975.008 93.9356L1051.31 168.584C1054.86 172.057 1059.63 174.002 1064.6 174.002H1064.6H1700C1710.49 174.002 1719 165.495 1719 155.002V20.002C1719 9.50854 1710.49 1.00195 1700 1.00195Z" fill="#478BFF" stroke="#141414" stroke-width="2"/>
<path d="M1177.86 115.554H1171.62L1189.58 52.0019H1210.6L1188.71 124.002H1163.08L1142.25 62.562H1150.41L1129.48 124.002H1103.94L1081.96 52.0019H1103.08L1121.03 115.554L1114.89 115.458L1135.82 52.0019H1156.84L1177.86 115.554ZM1243.13 125.538C1236.47 125.538 1230.52 124.322 1225.27 121.89C1220.09 119.458 1215.99 116.066 1212.99 111.714C1209.98 107.298 1208.47 102.178 1208.47 96.354C1208.47 90.658 1209.91 85.666 1212.79 81.378C1215.67 77.026 1219.61 73.634 1224.6 71.202C1229.66 68.77 1235.35 67.554 1241.69 67.554C1248.28 67.554 1253.88 68.994 1258.49 71.874C1263.16 74.69 1266.75 78.69 1269.24 83.874C1271.8 89.058 1273.08 95.17 1273.08 102.21H1224.31V90.402H1262.04L1255.61 94.53C1255.35 91.714 1254.65 89.346 1253.5 87.426C1252.35 85.442 1250.81 83.938 1248.89 82.914C1247.03 81.89 1244.79 81.378 1242.17 81.378C1239.29 81.378 1236.83 81.954 1234.78 83.106C1232.73 84.258 1231.13 85.858 1229.98 87.906C1228.83 89.89 1228.25 92.226 1228.25 94.914C1228.25 98.37 1229.02 101.314 1230.55 103.746C1232.15 106.114 1234.46 107.938 1237.47 109.218C1240.54 110.498 1244.28 111.138 1248.7 111.138C1252.73 111.138 1256.73 110.626 1260.7 109.602C1264.73 108.514 1268.38 107.01 1271.64 105.09V117.57C1267.87 120.13 1263.55 122.114 1258.68 123.522C1253.88 124.866 1248.7 125.538 1243.13 125.538ZM1281.47 50.082H1301.15V85.122L1298.56 90.114V103.938L1301.15 108.738V124.002H1281.47V50.082ZM1294.81 96.642C1295.71 90.69 1297.47 85.57 1300.09 81.282C1302.72 76.93 1306.08 73.57 1310.17 71.202C1314.33 68.77 1318.97 67.554 1324.09 67.554C1329.47 67.554 1334.17 68.77 1338.21 71.202C1342.3 73.634 1345.47 77.026 1347.71 81.378C1350.01 85.73 1351.17 90.818 1351.17 96.642C1351.17 102.338 1350.01 107.394 1347.71 111.81C1345.47 116.162 1342.3 119.554 1338.21 121.986C1334.17 124.354 1329.47 125.538 1324.09 125.538C1318.91 125.538 1314.27 124.354 1310.17 121.986C1306.08 119.554 1302.72 116.162 1300.09 111.81C1297.47 107.458 1295.71 102.402 1294.81 96.642ZM1331.39 96.642C1331.39 93.89 1330.81 91.458 1329.66 89.346C1328.57 87.234 1327.04 85.57 1325.05 84.354C1323.07 83.138 1320.77 82.53 1318.14 82.53C1315.52 82.53 1313.02 83.138 1310.65 84.354C1308.29 85.57 1306.21 87.234 1304.41 89.346C1302.62 91.458 1301.25 93.89 1300.29 96.642C1301.25 99.33 1302.62 101.73 1304.41 103.842C1306.21 105.954 1308.29 107.618 1310.65 108.834C1313.02 109.986 1315.52 110.562 1318.14 110.562C1320.77 110.562 1323.07 109.986 1325.05 108.834C1327.04 107.618 1328.57 105.954 1329.66 103.842C1330.81 101.73 1331.39 99.33 1331.39 96.642ZM1423.21 106.146C1423.21 110.37 1421.93 113.922 1419.37 116.802C1416.81 119.682 1413.16 121.858 1408.43 123.33C1403.69 124.802 1397.99 125.538 1391.34 125.538C1384.49 125.538 1378.47 124.706 1373.29 123.042C1368.17 121.378 1364.17 119.042 1361.29 116.034C1358.41 113.026 1356.87 109.538 1356.68 105.57H1376.55C1377 107.042 1377.87 108.322 1379.15 109.41C1380.49 110.434 1382.25 111.234 1384.43 111.81C1386.6 112.322 1389.19 112.578 1392.2 112.578C1396.11 112.578 1399.05 112.194 1401.03 111.426C1403.08 110.658 1404.11 109.506 1404.11 107.97C1404.11 106.754 1403.34 105.858 1401.8 105.282C1400.27 104.642 1397.64 104.162 1393.93 103.842L1384.23 103.074C1377.77 102.626 1372.62 101.666 1368.78 100.194C1365 98.658 1362.28 96.706 1360.62 94.338C1358.95 91.906 1358.12 89.154 1358.12 86.082C1358.12 81.922 1359.4 78.498 1361.96 75.81C1364.59 73.058 1368.2 71.01 1372.81 69.666C1377.48 68.258 1382.92 67.554 1389.13 67.554C1395.27 67.554 1400.75 68.354 1405.55 69.954C1410.35 71.554 1414.19 73.794 1417.07 76.674C1419.95 79.49 1421.61 82.818 1422.06 86.658H1402.19C1401.87 85.442 1401.16 84.354 1400.07 83.394C1398.99 82.37 1397.48 81.538 1395.56 80.898C1393.64 80.258 1391.18 79.938 1388.17 79.938C1384.65 79.938 1381.96 80.322 1380.11 81.09C1378.31 81.858 1377.42 82.946 1377.42 84.354C1377.42 85.442 1377.96 86.306 1379.05 86.946C1380.2 87.586 1382.31 88.034 1385.39 88.29L1398.15 89.25C1404.49 89.634 1409.48 90.562 1413.13 92.034C1416.78 93.442 1419.37 95.33 1420.91 97.698C1422.44 100.066 1423.21 102.882 1423.21 106.146ZM1431.47 68.322L1441.36 70.242L1451.15 68.322V124.002H1431.47V68.322ZM1441.26 63.81C1437.87 63.81 1435.12 62.978 1433.01 61.314C1430.89 59.586 1429.84 57.25 1429.84 54.306C1429.84 51.426 1430.89 49.122 1433.01 47.394C1435.12 45.6659 1437.87 44.8019 1441.26 44.8019C1444.78 44.8019 1447.57 45.6659 1449.61 47.394C1451.73 49.122 1452.78 51.426 1452.78 54.306C1452.78 57.25 1451.73 59.586 1449.61 61.314C1447.57 62.978 1444.78 63.81 1441.26 63.81ZM1457.14 83.682V75.138L1468.28 70.626L1476.72 54.402H1487.86V69.186H1510.9V83.682H1487.86V99.81C1487.86 103.778 1488.66 106.562 1490.26 108.162C1491.86 109.762 1494.77 110.562 1499 110.562C1501.68 110.562 1504.05 110.338 1506.1 109.89C1508.21 109.378 1510.13 108.738 1511.86 107.97V122.754C1509.94 123.458 1507.41 124.098 1504.28 124.674C1501.14 125.25 1497.91 125.538 1494.58 125.538C1488.5 125.538 1483.51 124.61 1479.6 122.754C1475.76 120.898 1472.92 118.242 1471.06 114.786C1469.2 111.266 1468.28 107.17 1468.28 102.498V83.682H1457.14ZM1550.26 125.538C1543.6 125.538 1537.65 124.322 1532.4 121.89C1527.22 119.458 1523.12 116.066 1520.11 111.714C1517.1 107.298 1515.6 102.178 1515.6 96.354C1515.6 90.658 1517.04 85.666 1519.92 81.378C1522.8 77.026 1526.74 73.634 1531.73 71.202C1536.78 68.77 1542.48 67.554 1548.82 67.554C1555.41 67.554 1561.01 68.994 1565.62 71.874C1570.29 74.69 1573.87 78.69 1576.37 83.874C1578.93 89.058 1580.21 95.17 1580.21 102.21H1531.44V90.402H1569.17L1562.74 94.53C1562.48 91.714 1561.78 89.346 1560.62 87.426C1559.47 85.442 1557.94 83.938 1556.02 82.914C1554.16 81.89 1551.92 81.378 1549.3 81.378C1546.42 81.378 1543.95 81.954 1541.9 83.106C1539.86 84.258 1538.26 85.858 1537.1 87.906C1535.95 89.89 1535.38 92.226 1535.38 94.914C1535.38 98.37 1536.14 101.314 1537.68 103.746C1539.28 106.114 1541.58 107.938 1544.59 109.218C1547.66 110.498 1551.41 111.138 1555.82 111.138C1559.86 111.138 1563.86 110.626 1567.82 109.602C1571.86 108.514 1575.5 107.01 1578.77 105.09V117.57C1574.99 120.13 1570.67 122.114 1565.81 123.522C1561.01 124.866 1555.82 125.538 1550.26 125.538Z" fill="white"/>
<path d="M2322.5 1L1703.6 1C1698.63 1.00008 1693.86 2.94488 1690.31 6.41797L1614.01 81.0664C1610.4 84.5964 1610.4 90.4036 1614.01 93.9336L1690.31 168.582C1693.86 172.055 1698.63 174 1703.6 174H2322.5C2332.99 174 2341.5 165.493 2341.5 155V20C2341.5 9.50659 2332.99 1 2322.5 1Z" fill="#FF6D39" stroke="#141414" stroke-width="2"/>
<path d="M1870.94 52V124H1852.02V59.104L1856.25 59.584L1828.41 124H1808.25L1780.31 59.776L1784.63 59.296V124H1765.72V52H1796.44L1822.26 113.824H1814.58L1840.22 52H1870.94ZM1914.77 125.536C1907.73 125.536 1901.58 124.352 1896.33 121.984C1891.09 119.552 1886.99 116.16 1884.05 111.808C1881.1 107.392 1879.63 102.336 1879.63 96.64C1879.63 90.816 1881.1 85.728 1884.05 81.376C1886.99 77.024 1891.09 73.632 1896.33 71.2C1901.58 68.768 1907.73 67.552 1914.77 67.552C1921.74 67.552 1927.85 68.768 1933.1 71.2C1938.41 73.632 1942.54 77.024 1945.49 81.376C1948.43 85.728 1949.9 90.816 1949.9 96.64C1949.9 102.336 1948.43 107.392 1945.49 111.808C1942.54 116.16 1938.41 119.552 1933.1 121.984C1927.85 124.352 1921.74 125.536 1914.77 125.536ZM1914.77 111.04C1917.97 111.04 1920.69 110.464 1922.93 109.312C1925.23 108.16 1926.99 106.496 1928.21 104.32C1929.42 102.144 1930.03 99.584 1930.03 96.64C1930.03 93.568 1929.42 90.976 1928.21 88.864C1926.99 86.688 1925.23 85.024 1922.93 83.872C1920.69 82.72 1917.97 82.144 1914.77 82.144C1911.57 82.144 1908.81 82.72 1906.51 83.872C1904.21 85.024 1902.45 86.688 1901.23 88.864C1900.01 90.976 1899.41 93.536 1899.41 96.544C1899.41 99.552 1900.01 102.144 1901.23 104.32C1902.45 106.496 1904.21 108.16 1906.51 109.312C1908.81 110.464 1911.57 111.04 1914.77 111.04ZM1952.33 83.68V75.136L1963.46 70.624L1971.91 54.4H1983.05V69.184H2006.09V83.68H1983.05V99.808C1983.05 103.776 1983.85 106.56 1985.45 108.16C1987.05 109.76 1989.96 110.56 1994.18 110.56C1996.87 110.56 1999.24 110.336 2001.29 109.888C2003.4 109.376 2005.32 108.736 2007.05 107.968V122.752C2005.13 123.456 2002.6 124.096 1999.46 124.672C1996.33 125.248 1993.1 125.536 1989.77 125.536C1983.69 125.536 1978.7 124.608 1974.79 122.752C1970.95 120.896 1968.1 118.24 1966.25 114.784C1964.39 111.264 1963.46 107.168 1963.46 102.496V83.68H1952.33ZM2014.97 68.32L2024.86 70.24L2034.65 68.32V124H2014.97V68.32ZM2024.76 63.808C2021.37 63.808 2018.62 62.976 2016.51 61.312C2014.39 59.584 2013.34 57.248 2013.34 54.304C2013.34 51.424 2014.39 49.12 2016.51 47.392C2018.62 45.664 2021.37 44.8 2024.76 44.8C2028.28 44.8 2031.07 45.664 2033.11 47.392C2035.23 49.12 2036.28 51.424 2036.28 54.304C2036.28 57.248 2035.23 59.584 2033.11 61.312C2031.07 62.976 2028.28 63.808 2024.76 63.808ZM2078.08 125.536C2071.04 125.536 2064.9 124.352 2059.65 121.984C2054.4 119.552 2050.3 116.16 2047.36 111.808C2044.42 107.392 2042.94 102.336 2042.94 96.64C2042.94 90.816 2044.42 85.728 2047.36 81.376C2050.3 77.024 2054.4 73.632 2059.65 71.2C2064.9 68.768 2071.04 67.552 2078.08 67.552C2085.06 67.552 2091.17 68.768 2096.42 71.2C2101.73 73.632 2105.86 77.024 2108.8 81.376C2111.74 85.728 2113.22 90.816 2113.22 96.64C2113.22 102.336 2111.74 107.392 2108.8 111.808C2105.86 116.16 2101.73 119.552 2096.42 121.984C2091.17 124.352 2085.06 125.536 2078.08 125.536ZM2078.08 111.04C2081.28 111.04 2084 110.464 2086.24 109.312C2088.54 108.16 2090.3 106.496 2091.52 104.32C2092.74 102.144 2093.34 99.584 2093.34 96.64C2093.34 93.568 2092.74 90.976 2091.52 88.864C2090.3 86.688 2088.54 85.024 2086.24 83.872C2084 82.72 2081.28 82.144 2078.08 82.144C2074.88 82.144 2072.13 82.72 2069.82 83.872C2067.52 85.024 2065.76 86.688 2064.54 88.864C2063.33 90.976 2062.72 93.536 2062.72 96.544C2062.72 99.552 2063.33 102.144 2064.54 104.32C2065.76 106.496 2067.52 108.16 2069.82 109.312C2072.13 110.464 2074.88 111.04 2078.08 111.04ZM2118.5 69.184H2138.18L2141.74 91.072V124H2122.15V88.096L2118.5 69.184ZM2161.9 67.552C2167.14 67.552 2171.62 68.608 2175.34 70.72C2179.05 72.832 2181.86 75.808 2183.78 79.648C2185.77 83.488 2186.76 88.032 2186.76 93.28V124H2167.18V96.16C2167.18 92.064 2166.12 88.928 2164.01 86.752C2161.96 84.576 2158.98 83.488 2155.08 83.488C2152.39 83.488 2150.02 84.064 2147.98 85.216C2145.99 86.368 2144.46 88 2143.37 90.112C2142.28 92.224 2141.74 94.72 2141.74 97.6L2135.69 94.432C2136.46 88.608 2138.09 83.712 2140.58 79.744C2143.08 75.712 2146.15 72.672 2149.8 70.624C2153.45 68.576 2157.48 67.552 2161.9 67.552Z" fill="white"/>
<path d="M2867.5 1.00195L2323.6 1.00195C2318.63 1.00195 2313.86 2.94663 2310.31 6.41992L2234.01 81.0684C2230.4 84.5984 2230.4 90.4055 2234.01 93.9356L2310.31 168.584C2313.86 172.057 2318.63 174.002 2323.6 174.002H2867.5C2877.99 174.002 2886.5 165.495 2886.5 155.002V20.002C2886.5 9.50854 2877.99 1.00195 2867.5 1.00195Z" fill="#FFC413" stroke="#141414" stroke-width="2"/>
<path d="M2384.42 81.474H2436.64V98.274H2384.42V81.474ZM2438.46 52.0019V68.802H2385.09L2394.59 59.298V124.002H2374.72V52.0019H2438.46ZM2447.44 68.322L2457.33 70.242L2467.12 68.322V124.002H2447.44V68.322ZM2457.23 63.81C2453.84 63.81 2451.09 62.978 2448.97 61.314C2446.86 59.586 2445.81 57.25 2445.81 54.306C2445.81 51.426 2446.86 49.122 2448.97 47.394C2451.09 45.6659 2453.84 44.8019 2457.23 44.8019C2460.75 44.8019 2463.53 45.6659 2465.58 47.394C2467.69 49.122 2468.75 51.426 2468.75 54.306C2468.75 57.25 2467.69 59.586 2465.58 61.314C2463.53 62.978 2460.75 63.81 2457.23 63.81ZM2525.81 110.178V100.866L2526.48 98.562V85.122L2525.81 83.106V69.186H2545.4V109.41C2545.4 116.13 2543.83 121.89 2540.69 126.69C2537.56 131.49 2533.17 135.138 2527.54 137.634C2521.97 140.13 2515.38 141.378 2507.76 141.378C2502.71 141.378 2498 140.706 2493.65 139.362C2489.36 138.082 2485.08 136.162 2480.79 133.602V118.818C2484.76 121.762 2488.92 123.874 2493.27 125.154C2497.68 126.498 2502.1 127.17 2506.52 127.17C2512.79 127.17 2517.56 125.826 2520.82 123.138C2524.15 120.45 2525.81 116.13 2525.81 110.178ZM2502.29 118.242C2497.11 118.242 2492.5 117.186 2488.47 115.074C2484.44 112.962 2481.24 110.018 2478.87 106.242C2476.56 102.402 2475.41 97.954 2475.41 92.898C2475.41 87.778 2476.56 83.33 2478.87 79.554C2481.24 75.778 2484.44 72.834 2488.47 70.722C2492.5 68.61 2497.11 67.554 2502.29 67.554C2506.13 67.554 2509.65 68.162 2512.85 69.378C2516.05 70.53 2518.9 72.098 2521.4 74.082C2523.89 76.002 2525.97 78.114 2527.64 80.418C2529.36 82.658 2530.68 84.898 2531.57 87.138C2532.47 89.378 2532.92 91.362 2532.92 93.09C2532.92 95.458 2532.21 98.082 2530.8 100.962C2529.46 103.842 2527.48 106.594 2524.85 109.218C2522.23 111.842 2519 114.018 2515.16 115.746C2511.38 117.41 2507.09 118.242 2502.29 118.242ZM2508.92 104.898C2512.69 104.898 2516.05 103.906 2519 101.922C2521.94 99.938 2524.44 96.93 2526.48 92.898C2524.37 88.802 2521.84 85.794 2518.9 83.874C2515.96 81.89 2512.63 80.898 2508.92 80.898C2506.1 80.898 2503.64 81.378 2501.52 82.338C2499.48 83.298 2497.91 84.706 2496.82 86.562C2495.73 88.354 2495.19 90.466 2495.19 92.898C2495.19 95.266 2495.73 97.378 2496.82 99.234C2497.91 101.026 2499.48 102.434 2501.52 103.458C2503.57 104.418 2506.04 104.898 2508.92 104.898ZM2553.41 69.186H2573.09L2576.64 91.074V124.002H2557.06V88.098L2553.41 69.186ZM2595.55 67.554C2600.61 67.554 2604.9 68.61 2608.42 70.722C2611.94 72.834 2614.63 75.81 2616.48 79.65C2618.34 83.49 2619.27 88.034 2619.27 93.282V124.002H2599.68V96.162C2599.68 92.066 2598.75 88.93 2596.9 86.754C2595.04 84.578 2592.35 83.49 2588.83 83.49C2586.34 83.49 2584.16 84.066 2582.31 85.218C2580.51 86.37 2579.11 88.002 2578.08 90.114C2577.12 92.226 2576.64 94.722 2576.64 97.602L2570.59 94.434C2571.36 88.61 2572.93 83.714 2575.3 79.746C2577.67 75.714 2580.58 72.674 2584.03 70.626C2587.55 68.578 2591.39 67.554 2595.55 67.554ZM2638.08 67.554C2643.14 67.554 2647.43 68.61 2650.95 70.722C2654.53 72.834 2657.25 75.81 2659.11 79.65C2660.96 83.49 2661.89 88.034 2661.89 93.282V124.002H2642.31V96.162C2642.31 92.066 2641.38 88.93 2639.52 86.754C2637.67 84.578 2634.98 83.49 2631.46 83.49C2628.96 83.49 2626.79 84.066 2624.93 85.218C2623.14 86.37 2621.73 88.002 2620.71 90.114C2619.75 92.226 2619.27 94.722 2619.27 97.602L2613.22 94.434C2613.99 88.61 2615.52 83.714 2617.83 79.746C2620.19 75.714 2623.14 72.674 2626.66 70.626C2630.18 68.578 2633.99 67.554 2638.08 67.554ZM2721.51 124.002L2719.01 104.226L2721.6 96.642L2719.01 89.058L2721.51 69.186H2741.86L2738.4 96.546L2741.86 124.002H2721.51ZM2726.11 96.642C2725.22 102.402 2723.43 107.458 2720.74 111.81C2718.11 116.162 2714.75 119.554 2710.66 121.986C2706.63 124.354 2702.02 125.538 2696.83 125.538C2691.46 125.538 2686.72 124.354 2682.63 121.986C2678.59 119.554 2675.43 116.162 2673.12 111.81C2670.82 107.394 2669.67 102.338 2669.67 96.642C2669.67 90.818 2670.82 85.73 2673.12 81.378C2675.43 77.026 2678.59 73.634 2682.63 71.202C2686.72 68.77 2691.46 67.554 2696.83 67.554C2702.02 67.554 2706.63 68.77 2710.66 71.202C2714.75 73.57 2718.15 76.93 2720.83 81.282C2723.52 85.57 2725.28 90.69 2726.11 96.642ZM2689.54 96.642C2689.54 99.33 2690.08 101.73 2691.17 103.842C2692.32 105.954 2693.89 107.618 2695.87 108.834C2697.86 109.986 2700.13 110.562 2702.69 110.562C2705.38 110.562 2707.91 109.986 2710.27 108.834C2712.64 107.618 2714.72 105.954 2716.51 103.842C2718.31 101.73 2719.65 99.33 2720.55 96.642C2719.65 93.89 2718.31 91.458 2716.51 89.346C2714.72 87.234 2712.64 85.57 2710.27 84.354C2707.91 83.138 2705.38 82.53 2702.69 82.53C2700.13 82.53 2697.86 83.138 2695.87 84.354C2693.89 85.57 2692.32 87.234 2691.17 89.346C2690.08 91.458 2689.54 93.89 2689.54 96.642Z" fill="white"/>
</svg>
