<svg width="2888" height="176" viewBox="0 0 2888 176" fill="none" xmlns="http://www.w3.org/2000/svg">
<path d="M2181.96 1.31836L2789.86 1.31836C2794.83 1.31849 2799.6 3.26323 2803.15 6.73633L2879.46 81.3848C2883.06 84.9148 2883.06 90.7219 2879.46 94.252L2803.15 168.9C2799.6 172.374 2794.83 174.318 2789.86 174.318H2181.96C2171.47 174.318 2162.96 165.812 2162.96 155.318V20.3184C2162.96 9.82495 2171.47 1.31836 2181.96 1.31836Z" fill="#05A552" stroke="#141414" stroke-width="2"/>
<path d="M2611.65 94.1744C2610.95 100.51 2608.77 106.078 2605.12 110.878C2601.47 115.614 2596.67 119.294 2590.72 121.918C2584.83 124.542 2578.05 125.854 2570.37 125.854C2561.99 125.854 2554.66 124.286 2548.39 121.15C2542.11 118.014 2537.22 113.63 2533.7 107.998C2530.24 102.366 2528.51 95.8064 2528.51 88.3184C2528.51 80.8304 2530.24 74.2704 2533.7 68.6384C2537.22 63.0064 2542.11 58.6224 2548.39 55.4864C2554.66 52.3504 2561.99 50.7824 2570.37 50.7824C2578.05 50.7824 2584.83 52.0944 2590.72 54.7184C2596.67 57.3424 2601.47 61.0544 2605.12 65.8544C2608.77 70.5904 2610.95 76.1264 2611.65 82.4624H2591.68C2591.04 79.3904 2589.79 76.7984 2587.94 74.6864C2586.08 72.5104 2583.65 70.8464 2580.64 69.6944C2577.7 68.5424 2574.27 67.9664 2570.37 67.9664C2565.89 67.9664 2562.02 68.7984 2558.75 70.4624C2555.49 72.0624 2552.99 74.3984 2551.27 77.4704C2549.54 80.4784 2548.67 84.0944 2548.67 88.3184C2548.67 92.5424 2549.54 96.1904 2551.27 99.2624C2552.99 102.27 2555.49 104.606 2558.75 106.27C2562.02 107.87 2565.89 108.67 2570.37 108.67C2574.27 108.67 2577.7 108.126 2580.64 107.038C2583.65 105.95 2586.08 104.318 2587.94 102.142C2589.79 99.9664 2591.04 97.3104 2591.68 94.1744H2611.65ZM2618.04 100.702H2638.3C2638.62 102.686 2639.55 104.414 2641.08 105.886C2642.62 107.358 2644.67 108.51 2647.23 109.342C2649.85 110.11 2652.92 110.494 2656.44 110.494C2661.31 110.494 2665.15 109.886 2667.96 108.67C2670.78 107.39 2672.19 105.534 2672.19 103.102C2672.19 101.246 2671.39 99.8064 2669.79 98.7824C2668.19 97.7584 2665.11 97.0224 2660.57 96.5744L2647.13 95.3264C2637.21 94.4304 2630.01 92.1904 2625.53 88.6064C2621.05 84.9584 2618.81 80.0624 2618.81 73.9184C2618.81 68.9264 2620.25 64.7024 2623.13 61.2464C2626.07 57.7904 2630.17 55.1984 2635.42 53.4704C2640.73 51.6784 2646.91 50.7824 2653.95 50.7824C2660.86 50.7824 2667 51.7744 2672.38 53.7584C2677.75 55.6784 2682.01 58.4304 2685.15 62.0144C2688.35 65.5984 2690.07 69.7584 2690.33 74.4944H2670.17C2669.91 72.7664 2669.08 71.2944 2667.67 70.0784C2666.33 68.7984 2664.47 67.8384 2662.11 67.1984C2659.74 66.4944 2656.89 66.1424 2653.56 66.1424C2649.08 66.1424 2645.53 66.7504 2642.91 67.9664C2640.28 69.1184 2638.97 70.8464 2638.97 73.1504C2638.97 74.8144 2639.74 76.1584 2641.27 77.1824C2642.87 78.2064 2645.72 78.9104 2649.82 79.2944L2664.12 80.7344C2670.97 81.3744 2676.44 82.4944 2680.54 84.0944C2684.63 85.6304 2687.61 87.7744 2689.47 90.5264C2691.32 93.2784 2692.25 96.7024 2692.25 100.798C2692.25 105.854 2690.75 110.27 2687.74 114.046C2684.73 117.758 2680.51 120.67 2675.07 122.782C2669.63 124.83 2663.29 125.854 2656.06 125.854C2648.63 125.854 2642.07 124.83 2636.38 122.782C2630.75 120.67 2626.33 117.726 2623.13 113.95C2619.93 110.11 2618.23 105.694 2618.04 100.702ZM2698.95 100.702H2719.21C2719.53 102.686 2720.45 104.414 2721.99 105.886C2723.53 107.358 2725.57 108.51 2728.13 109.342C2730.76 110.11 2733.83 110.494 2737.35 110.494C2742.21 110.494 2746.05 109.886 2748.87 108.67C2751.69 107.39 2753.09 105.534 2753.09 103.102C2753.09 101.246 2752.29 99.8064 2750.69 98.7824C2749.09 97.7584 2746.02 97.0224 2741.48 96.5744L2728.04 95.3264C2718.12 94.4304 2710.92 92.1904 2706.44 88.6064C2701.96 84.9584 2699.72 80.0624 2699.72 73.9184C2699.72 68.9264 2701.16 64.7024 2704.04 61.2464C2706.98 57.7904 2711.08 55.1984 2716.33 53.4704C2721.64 51.6784 2727.81 50.7824 2734.85 50.7824C2741.77 50.7824 2747.91 51.7744 2753.29 53.7584C2758.66 55.6784 2762.92 58.4304 2766.05 62.0144C2769.25 65.5984 2770.98 69.7584 2771.24 74.4944H2751.08C2750.82 72.7664 2749.99 71.2944 2748.58 70.0784C2747.24 68.7984 2745.38 67.8384 2743.01 67.1984C2740.65 66.4944 2737.8 66.1424 2734.47 66.1424C2729.99 66.1424 2726.44 66.7504 2723.81 67.9664C2721.19 69.1184 2719.88 70.8464 2719.88 73.1504C2719.88 74.8144 2720.65 76.1584 2722.18 77.1824C2723.78 78.2064 2726.63 78.9104 2730.73 79.2944L2745.03 80.7344C2751.88 81.3744 2757.35 82.4944 2761.45 84.0944C2765.54 85.6304 2768.52 87.7744 2770.37 90.5264C2772.23 93.2784 2773.16 96.7024 2773.16 100.798C2773.16 105.854 2771.65 110.27 2768.65 114.046C2765.64 117.758 2761.41 120.67 2755.97 122.782C2750.53 124.83 2744.2 125.854 2736.97 125.854C2729.54 125.854 2722.98 124.83 2717.29 122.782C2711.65 120.67 2707.24 117.726 2704.04 113.95C2700.84 110.11 2699.14 105.694 2698.95 100.702Z" fill="white"/>
<path d="M1890.96 1.31836L2397.86 1.31836C2402.83 1.31844 2407.6 3.26324 2411.15 6.73633L2487.46 81.3848C2491.06 84.9148 2491.06 90.722 2487.46 94.252L2411.15 168.9C2407.6 172.373 2402.83 174.318 2397.86 174.318H1890.96C1880.47 174.318 1871.96 165.812 1871.96 155.318V20.3184C1871.96 9.82495 1880.47 1.31836 1890.96 1.31836Z" fill="#7A78FF" stroke="#141414" stroke-width="2"/>
<path d="M2087.68 52.3184H2107.55V124.318H2087.68V52.3184ZM2144.32 52.3184H2164.29V124.318H2144.32V52.3184ZM2098.82 78.9104H2152.58V96.5744H2098.82V78.9104ZM2171.26 83.9984V75.4544L2182.39 70.9424L2190.84 54.7184H2201.98V69.5024H2225.02V83.9984H2201.98V100.126C2201.98 104.094 2202.78 106.878 2204.38 108.478C2205.98 110.078 2208.89 110.878 2213.11 110.878C2215.8 110.878 2218.17 110.654 2220.22 110.206C2222.33 109.694 2224.25 109.054 2225.98 108.286V123.07C2224.06 123.774 2221.53 124.414 2218.39 124.99C2215.26 125.566 2212.02 125.854 2208.7 125.854C2202.62 125.854 2197.62 124.926 2193.72 123.07C2189.88 121.214 2187.03 118.558 2185.18 115.102C2183.32 111.582 2182.39 107.486 2182.39 102.814V83.9984H2171.26ZM2231.31 69.5024H2250.99L2254.54 91.3904V124.318H2234.96V88.4144L2231.31 69.5024ZM2273.45 67.8704C2278.51 67.8704 2282.8 68.9264 2286.32 71.0384C2289.84 73.1504 2292.52 76.1264 2294.38 79.9664C2296.24 83.8064 2297.16 88.3504 2297.16 93.5984V124.318H2277.58V96.4784C2277.58 92.3824 2276.65 89.2464 2274.8 87.0704C2272.94 84.8944 2270.25 83.8064 2266.73 83.8064C2264.24 83.8064 2262.06 84.3824 2260.2 85.5344C2258.41 86.6864 2257 88.3184 2255.98 90.4304C2255.02 92.5424 2254.54 95.0384 2254.54 97.9184L2248.49 94.7504C2249.26 88.9264 2250.83 84.0304 2253.2 80.0624C2255.56 76.0304 2258.48 72.9904 2261.93 70.9424C2265.45 68.8944 2269.29 67.8704 2273.45 67.8704ZM2315.98 67.8704C2321.04 67.8704 2325.32 68.9264 2328.84 71.0384C2332.43 73.1504 2335.15 76.1264 2337 79.9664C2338.86 83.8064 2339.79 88.3504 2339.79 93.5984V124.318H2320.2V96.4784C2320.2 92.3824 2319.28 89.2464 2317.42 87.0704C2315.56 84.8944 2312.88 83.8064 2309.36 83.8064C2306.86 83.8064 2304.68 84.3824 2302.83 85.5344C2301.04 86.6864 2299.63 88.3184 2298.6 90.4304C2297.64 92.5424 2297.16 95.0384 2297.16 97.9184L2291.12 94.7504C2291.88 88.9264 2293.42 84.0304 2295.72 80.0624C2298.09 76.0304 2301.04 72.9904 2304.56 70.9424C2308.08 68.8944 2311.88 67.8704 2315.98 67.8704ZM2349.87 50.3984H2369.55V124.318H2349.87V50.3984Z" fill="white"/>
<path d="M1087.96 1.31836L1925.36 1.31836C1930.33 1.31849 1935.1 3.26323 1938.65 6.73633L2014.96 81.3848C2018.56 84.9148 2018.56 90.7219 2014.96 94.252L1938.65 168.9C1935.1 172.374 1930.33 174.318 1925.36 174.318H1925.36H1087.96C1077.47 174.318 1068.96 165.812 1068.96 155.318V20.3184C1068.96 9.82495 1077.47 1.31836 1087.96 1.31836Z" fill="#FF6D39" stroke="#141414" stroke-width="2"/>
<path d="M1235.69 88.8944H1255.18V91.2944C1255.18 96.9264 1256.33 101.246 1258.63 104.254C1261 107.198 1264.91 108.67 1270.35 108.67C1275.66 108.67 1279.53 107.294 1281.96 104.542C1284.39 101.726 1285.61 97.8224 1285.61 92.8304V52.3184H1305.48V93.8864C1305.48 100.542 1304.01 106.27 1301.07 111.07C1298.12 115.87 1294.03 119.55 1288.78 122.11C1283.53 124.606 1277.39 125.854 1270.35 125.854C1263.43 125.854 1257.35 124.542 1252.11 121.918C1246.92 119.294 1242.89 115.518 1240.01 110.59C1237.19 105.598 1235.79 99.6784 1235.79 92.8304L1235.69 88.8944ZM1365.37 124.318L1362.88 104.542L1365.47 96.9584L1362.88 89.3744L1365.37 69.5024H1385.73L1382.27 96.8624L1385.73 124.318H1365.37ZM1369.98 96.9584C1369.09 102.718 1367.29 107.774 1364.61 112.126C1361.98 116.478 1358.62 119.87 1354.53 122.302C1350.49 124.67 1345.89 125.854 1340.7 125.854C1335.33 125.854 1330.59 124.67 1326.49 122.302C1322.46 119.87 1319.29 116.478 1316.99 112.126C1314.69 107.71 1313.53 102.654 1313.53 96.9584C1313.53 91.1344 1314.69 86.0464 1316.99 81.6944C1319.29 77.3424 1322.46 73.9504 1326.49 71.5184C1330.59 69.0864 1335.33 67.8704 1340.7 67.8704C1345.89 67.8704 1350.49 69.0864 1354.53 71.5184C1358.62 73.8864 1362.01 77.2464 1364.7 81.5984C1367.39 85.8864 1369.15 91.0064 1369.98 96.9584ZM1333.41 96.9584C1333.41 99.6464 1333.95 102.046 1335.04 104.158C1336.19 106.27 1337.76 107.934 1339.74 109.15C1341.73 110.302 1344 110.878 1346.56 110.878C1349.25 110.878 1351.77 110.302 1354.14 109.15C1356.51 107.934 1358.59 106.27 1360.38 104.158C1362.17 102.046 1363.52 99.6464 1364.41 96.9584C1363.52 94.2064 1362.17 91.7744 1360.38 89.6624C1358.59 87.5504 1356.51 85.8864 1354.14 84.6704C1351.77 83.4544 1349.25 82.8464 1346.56 82.8464C1344 82.8464 1341.73 83.4544 1339.74 84.6704C1337.76 85.8864 1336.19 87.5504 1335.04 89.6624C1333.95 91.7744 1333.41 94.2064 1333.41 96.9584ZM1430.29 115.006L1423.57 114.91L1442.57 69.5024H1463.5L1437.87 124.318H1415.5L1389.87 69.5024H1411.57L1430.29 115.006ZM1515.47 124.318L1512.97 104.542L1515.56 96.9584L1512.97 89.3744L1515.47 69.5024H1535.82L1532.36 96.8624L1535.82 124.318H1515.47ZM1520.08 96.9584C1519.18 102.718 1517.39 107.774 1514.7 112.126C1512.08 116.478 1508.72 119.87 1504.62 122.302C1500.59 124.67 1495.98 125.854 1490.8 125.854C1485.42 125.854 1480.68 124.67 1476.59 122.302C1472.56 119.87 1469.39 116.478 1467.08 112.126C1464.78 107.71 1463.63 102.654 1463.63 96.9584C1463.63 91.1344 1464.78 86.0464 1467.08 81.6944C1469.39 77.3424 1472.56 73.9504 1476.59 71.5184C1480.68 69.0864 1485.42 67.8704 1490.8 67.8704C1495.98 67.8704 1500.59 69.0864 1504.62 71.5184C1508.72 73.8864 1512.11 77.2464 1514.8 81.5984C1517.48 85.8864 1519.24 91.0064 1520.08 96.9584ZM1483.5 96.9584C1483.5 99.6464 1484.04 102.046 1485.13 104.158C1486.28 106.27 1487.85 107.934 1489.84 109.15C1491.82 110.302 1494.09 110.878 1496.65 110.878C1499.34 110.878 1501.87 110.302 1504.24 109.15C1506.6 107.934 1508.68 106.27 1510.48 104.158C1512.27 102.046 1513.61 99.6464 1514.51 96.9584C1513.61 94.2064 1512.27 91.7744 1510.48 89.6624C1508.68 87.5504 1506.6 85.8864 1504.24 84.6704C1501.87 83.4544 1499.34 82.8464 1496.65 82.8464C1494.09 82.8464 1491.82 83.4544 1489.84 84.6704C1487.85 85.8864 1486.28 87.5504 1485.13 89.6624C1484.04 91.7744 1483.5 94.2064 1483.5 96.9584ZM1542.95 100.702H1563.21C1563.53 102.686 1564.45 104.414 1565.99 105.886C1567.53 107.358 1569.57 108.51 1572.13 109.342C1574.76 110.11 1577.83 110.494 1581.35 110.494C1586.21 110.494 1590.05 109.886 1592.87 108.67C1595.69 107.39 1597.09 105.534 1597.09 103.102C1597.09 101.246 1596.29 99.8064 1594.69 98.7824C1593.09 97.7584 1590.02 97.0224 1585.48 96.5744L1572.04 95.3264C1562.12 94.4304 1554.92 92.1904 1550.44 88.6064C1545.96 84.9584 1543.72 80.0624 1543.72 73.9184C1543.72 68.9264 1545.16 64.7024 1548.04 61.2464C1550.98 57.7904 1555.08 55.1984 1560.33 53.4704C1565.64 51.6784 1571.81 50.7824 1578.85 50.7824C1585.77 50.7824 1591.91 51.7744 1597.29 53.7584C1602.66 55.6784 1606.92 58.4304 1610.05 62.0144C1613.25 65.5984 1614.98 69.7584 1615.24 74.4944H1595.08C1594.82 72.7664 1593.99 71.2944 1592.58 70.0784C1591.24 68.7984 1589.38 67.8384 1587.01 67.1984C1584.65 66.4944 1581.8 66.1424 1578.47 66.1424C1573.99 66.1424 1570.44 66.7504 1567.81 67.9664C1565.19 69.1184 1563.88 70.8464 1563.88 73.1504C1563.88 74.8144 1564.65 76.1584 1566.18 77.1824C1567.78 78.2064 1570.63 78.9104 1574.73 79.2944L1589.03 80.7344C1595.88 81.3744 1601.35 82.4944 1605.45 84.0944C1609.54 85.6304 1612.52 87.7744 1614.37 90.5264C1616.23 93.2784 1617.16 96.7024 1617.16 100.798C1617.16 105.854 1615.65 110.27 1612.65 114.046C1609.64 117.758 1605.41 120.67 1599.97 122.782C1594.53 124.83 1588.2 125.854 1580.97 125.854C1573.54 125.854 1566.98 124.83 1561.29 122.782C1555.65 120.67 1551.24 117.726 1548.04 113.95C1544.84 110.11 1543.14 105.694 1542.95 100.702ZM1690.87 101.182C1690.36 106.11 1688.57 110.43 1685.49 114.142C1682.42 117.854 1678.42 120.734 1673.49 122.782C1668.63 124.83 1663.16 125.854 1657.08 125.854C1650.36 125.854 1644.44 124.638 1639.32 122.206C1634.2 119.774 1630.2 116.382 1627.32 112.03C1624.44 107.678 1623 102.654 1623 96.9584C1623 91.1984 1624.44 86.1424 1627.32 81.7904C1630.2 77.4384 1634.2 74.0464 1639.32 71.6144C1644.44 69.1184 1650.36 67.8704 1657.08 67.8704C1663.16 67.8704 1668.63 68.9264 1673.49 71.0384C1678.42 73.0864 1682.42 75.9664 1685.49 79.6784C1688.57 83.3264 1690.36 87.6464 1690.87 92.6384H1671.38C1670.68 89.3744 1669.05 86.8784 1666.49 85.1504C1663.93 83.3584 1660.79 82.4624 1657.08 82.4624C1654.2 82.4624 1651.67 83.0384 1649.49 84.1904C1647.38 85.2784 1645.72 86.9104 1644.5 89.0864C1643.35 91.1984 1642.77 93.8224 1642.77 96.9584C1642.77 100.03 1643.35 102.654 1644.5 104.83C1645.72 106.942 1647.38 108.574 1649.49 109.726C1651.67 110.814 1654.2 111.358 1657.08 111.358C1660.79 111.358 1663.93 110.43 1666.49 108.574C1669.11 106.718 1670.74 104.254 1671.38 101.182H1690.87ZM1695.75 69.5024H1715.71L1718.98 89.0864V124.318H1699.39V87.9344L1695.75 69.5024ZM1744.71 68.6384V85.3424C1742.79 84.9584 1740.96 84.7024 1739.23 84.5744C1737.57 84.3824 1736.03 84.2864 1734.63 84.2864C1731.81 84.2864 1729.22 84.8624 1726.85 86.0144C1724.48 87.1024 1722.56 88.9264 1721.09 91.4864C1719.68 94.0464 1718.98 97.4704 1718.98 101.758L1715.23 97.1504C1715.75 93.1824 1716.51 89.4704 1717.54 86.0144C1718.56 82.4944 1719.94 79.3904 1721.67 76.7024C1723.46 73.9504 1725.67 71.8064 1728.29 70.2704C1730.91 68.6704 1734.11 67.8704 1737.89 67.8704C1738.98 67.8704 1740.1 67.9344 1741.25 68.0624C1742.4 68.1904 1743.55 68.3824 1744.71 68.6384ZM1751.4 68.6384L1761.29 70.5584L1771.08 68.6384V124.318H1751.4V68.6384ZM1761.19 64.1264C1757.8 64.1264 1755.05 63.2944 1752.94 61.6304C1750.82 59.9024 1749.77 57.5664 1749.77 54.6224C1749.77 51.7424 1750.82 49.4384 1752.94 47.7104C1755.05 45.9824 1757.8 45.1184 1761.19 45.1184C1764.71 45.1184 1767.5 45.9824 1769.54 47.7104C1771.66 49.4384 1772.71 51.7424 1772.71 54.6224C1772.71 57.5664 1771.66 59.9024 1769.54 61.6304C1767.5 63.2944 1764.71 64.1264 1761.19 64.1264ZM1781.87 69.5024H1801.55V85.2464L1800.69 87.5504V102.91L1801.55 107.422V140.158H1781.87V69.5024ZM1795.31 96.9584C1796.14 91.0064 1797.87 85.8864 1800.49 81.5984C1803.18 77.2464 1806.57 73.8864 1810.67 71.5184C1814.77 69.0864 1819.41 67.8704 1824.59 67.8704C1829.97 67.8704 1834.67 69.0864 1838.7 71.5184C1842.8 73.9504 1845.97 77.3424 1848.21 81.6944C1850.51 86.0464 1851.66 91.1344 1851.66 96.9584C1851.66 102.654 1850.51 107.71 1848.21 112.126C1845.97 116.478 1842.8 119.87 1838.7 122.302C1834.67 124.67 1829.97 125.854 1824.59 125.854C1819.41 125.854 1814.77 124.67 1810.67 122.302C1806.57 119.87 1803.21 116.478 1800.59 112.126C1797.97 107.774 1796.21 102.718 1795.31 96.9584ZM1831.89 96.9584C1831.89 94.2064 1831.31 91.7744 1830.16 89.6624C1829.07 87.5504 1827.5 85.8864 1825.45 84.6704C1823.47 83.4544 1821.2 82.8464 1818.64 82.8464C1816.01 82.8464 1813.52 83.4544 1811.15 84.6704C1808.78 85.8864 1806.7 87.5504 1804.91 89.6624C1803.12 91.7744 1801.74 94.2064 1800.78 96.9584C1801.74 99.6464 1803.12 102.046 1804.91 104.158C1806.7 106.27 1808.78 107.934 1811.15 109.15C1813.52 110.302 1816.01 110.878 1818.64 110.878C1821.2 110.878 1823.47 110.302 1825.45 109.15C1827.5 107.934 1829.07 106.27 1830.16 104.158C1831.31 102.046 1831.89 99.6464 1831.89 96.9584ZM1854.41 83.9984V75.4544L1865.55 70.9424L1874 54.7184H1885.13V69.5024H1908.17V83.9984H1885.13V100.126C1885.13 104.094 1885.93 106.878 1887.53 108.478C1889.13 110.078 1892.04 110.878 1896.27 110.878C1898.96 110.878 1901.32 110.654 1903.37 110.206C1905.48 109.694 1907.4 109.054 1909.13 108.286V123.07C1907.21 123.774 1904.68 124.414 1901.55 124.99C1898.41 125.566 1895.18 125.854 1891.85 125.854C1885.77 125.854 1880.78 124.926 1876.88 123.07C1873.04 121.214 1870.19 118.558 1868.33 115.102C1866.48 111.582 1865.55 107.486 1865.55 102.814V83.9984H1854.41Z" fill="white"/>
<path d="M643.962 1.31836L1095.86 1.31836C1100.83 1.31836 1105.6 3.26312 1109.15 6.73633L1185.46 81.3848C1189.06 84.9148 1189.06 90.7219 1185.46 94.252L1109.15 168.9C1105.6 172.374 1100.83 174.318 1095.86 174.318H643.962C633.469 174.318 624.962 165.812 624.962 155.318V20.3184C624.962 9.82495 633.469 1.31836 643.962 1.31836Z" fill="#478BFF" stroke="#141414" stroke-width="2"/>
<path d="M773.41 83.8064H799.618C802.818 83.8064 805.314 83.0704 807.106 81.5984C808.898 80.1264 809.794 78.0784 809.794 75.4544C809.794 72.7664 808.898 70.7184 807.106 69.3104C805.314 67.8384 802.818 67.1024 799.618 67.1024H770.626L779.554 57.5984V124.318H759.682V52.3184H802.402C807.906 52.3184 812.706 53.3104 816.802 55.2944C820.898 57.2144 824.098 59.9024 826.402 63.3584C828.706 66.7504 829.858 70.7824 829.858 75.4544C829.858 79.9984 828.706 83.9984 826.402 87.4544C824.098 90.9104 820.898 93.5984 816.802 95.5184C812.706 97.4384 807.906 98.3984 802.402 98.3984H773.41V83.8064ZM784.162 90.6224H806.53L832.354 124.318H809.314L784.162 90.6224ZM869.435 125.854C862.779 125.854 856.827 124.638 851.579 122.206C846.395 119.774 842.299 116.382 839.291 112.03C836.283 107.614 834.779 102.494 834.779 96.6704C834.779 90.9744 836.219 85.9824 839.099 81.6944C841.979 77.3424 845.915 73.9504 850.907 71.5184C855.963 69.0864 861.659 67.8704 867.995 67.8704C874.587 67.8704 880.187 69.3104 884.795 72.1904C889.467 75.0064 893.051 79.0064 895.547 84.1904C898.107 89.3744 899.387 95.4864 899.387 102.526H850.619V90.7184H888.347L881.915 94.8464C881.659 92.0304 880.955 89.6624 879.803 87.7424C878.651 85.7584 877.115 84.2544 875.195 83.2304C873.339 82.2064 871.099 81.6944 868.475 81.6944C865.595 81.6944 863.131 82.2704 861.083 83.4224C859.035 84.5744 857.435 86.1744 856.283 88.2224C855.131 90.2064 854.555 92.5424 854.555 95.2304C854.555 98.6864 855.323 101.63 856.859 104.062C858.459 106.43 860.763 108.254 863.771 109.534C866.843 110.814 870.587 111.454 875.003 111.454C879.035 111.454 883.035 110.942 887.003 109.918C891.035 108.83 894.683 107.326 897.947 105.406V117.886C894.171 120.446 889.851 122.43 884.987 123.838C880.187 125.182 875.003 125.854 869.435 125.854ZM957.311 124.318L954.815 104.542L957.407 96.9584L954.815 89.3744L957.311 69.5024H977.663L974.207 96.8624L977.663 124.318H957.311ZM961.919 96.9584C961.023 102.718 959.231 107.774 956.543 112.126C953.919 116.478 950.559 119.87 946.463 122.302C942.431 124.67 937.823 125.854 932.639 125.854C927.263 125.854 922.527 124.67 918.431 122.302C914.399 119.87 911.231 116.478 908.927 112.126C906.623 107.71 905.471 102.654 905.471 96.9584C905.471 91.1344 906.623 86.0464 908.927 81.6944C911.231 77.3424 914.399 73.9504 918.431 71.5184C922.527 69.0864 927.263 67.8704 932.639 67.8704C937.823 67.8704 942.431 69.0864 946.463 71.5184C950.559 73.8864 953.951 77.2464 956.639 81.5984C959.327 85.8864 961.087 91.0064 961.919 96.9584ZM925.343 96.9584C925.343 99.6464 925.887 102.046 926.975 104.158C928.127 106.27 929.695 107.934 931.679 109.15C933.663 110.302 935.935 110.878 938.495 110.878C941.183 110.878 943.711 110.302 946.079 109.15C948.447 107.934 950.527 106.27 952.319 104.158C954.111 102.046 955.455 99.6464 956.351 96.9584C955.455 94.2064 954.111 91.7744 952.319 89.6624C950.527 87.5504 948.447 85.8864 946.079 84.6704C943.711 83.4544 941.183 82.8464 938.495 82.8464C935.935 82.8464 933.663 83.4544 931.679 84.6704C929.695 85.8864 928.127 87.5504 926.975 89.6624C925.887 91.7744 925.343 94.2064 925.343 96.9584ZM1052 101.182C1051.48 106.11 1049.69 110.43 1046.62 114.142C1043.55 117.854 1039.55 120.734 1034.62 122.782C1029.76 124.83 1024.28 125.854 1018.2 125.854C1011.48 125.854 1005.56 124.638 1000.44 122.206C995.323 119.774 991.323 116.382 988.443 112.03C985.563 107.678 984.123 102.654 984.123 96.9584C984.123 91.1984 985.563 86.1424 988.443 81.7904C991.323 77.4384 995.323 74.0464 1000.44 71.6144C1005.56 69.1184 1011.48 67.8704 1018.2 67.8704C1024.28 67.8704 1029.76 68.9264 1034.62 71.0384C1039.55 73.0864 1043.55 75.9664 1046.62 79.6784C1049.69 83.3264 1051.48 87.6464 1052 92.6384H1032.51C1031.8 89.3744 1030.17 86.8784 1027.61 85.1504C1025.05 83.3584 1021.92 82.4624 1018.2 82.4624C1015.32 82.4624 1012.8 83.0384 1010.62 84.1904C1008.51 85.2784 1006.84 86.9104 1005.63 89.0864C1004.48 91.1984 1003.9 93.8224 1003.9 96.9584C1003.9 100.03 1004.48 102.654 1005.63 104.83C1006.84 106.942 1008.51 108.574 1010.62 109.726C1012.8 110.814 1015.32 111.358 1018.2 111.358C1021.92 111.358 1025.05 110.43 1027.61 108.574C1030.24 106.718 1031.87 104.254 1032.51 101.182H1052ZM1054.19 83.9984V75.4544L1065.33 70.9424L1073.78 54.7184H1084.91V69.5024H1107.95V83.9984H1084.91V100.126C1084.91 104.094 1085.71 106.878 1087.31 108.478C1088.91 110.078 1091.83 110.878 1096.05 110.878C1098.74 110.878 1101.11 110.654 1103.15 110.206C1105.27 109.694 1107.19 109.054 1108.91 108.286V123.07C1106.99 123.774 1104.47 124.414 1101.33 124.99C1098.19 125.566 1094.96 125.854 1091.63 125.854C1085.55 125.854 1080.56 124.926 1076.66 123.07C1072.82 121.214 1069.97 118.558 1068.11 115.102C1066.26 111.582 1065.33 107.486 1065.33 102.814V83.9984H1054.19Z" fill="white"/>
<path d="M650.363 1C655.33 1.00006 660.099 2.94489 663.649 6.41797L739.956 81.0664C743.564 84.5964 743.564 90.4036 739.956 93.9336L663.649 168.582C660.099 172.055 655.33 174 650.363 174H2.46289L83.3223 95.3867C87.765 91.0673 87.765 83.9327 83.3223 79.6133L2.46289 1L650.363 1Z" fill="#FFC413" stroke="#141414" stroke-width="2"/>
<path d="M138.742 61.0544H158.71V124.318H138.742V61.0544ZM111.286 52.3184H186.166V69.9824H111.286V52.3184ZM231.686 124.318L229.19 104.542L231.782 96.9584L229.19 89.3744L231.686 69.5024H252.038L248.582 96.8624L252.038 124.318H231.686ZM236.294 96.9584C235.398 102.718 233.606 107.774 230.918 112.126C228.294 116.478 224.934 119.87 220.838 122.302C216.806 124.67 212.198 125.854 207.014 125.854C201.638 125.854 196.902 124.67 192.806 122.302C188.774 119.87 185.606 116.478 183.302 112.126C180.998 107.71 179.846 102.654 179.846 96.9584C179.846 91.1344 180.998 86.0464 183.302 81.6944C185.606 77.3424 188.774 73.9504 192.806 71.5184C196.902 69.0864 201.638 67.8704 207.014 67.8704C212.198 67.8704 216.806 69.0864 220.838 71.5184C224.934 73.8864 228.326 77.2464 231.014 81.5984C233.702 85.8864 235.462 91.0064 236.294 96.9584ZM199.718 96.9584C199.718 99.6464 200.262 102.046 201.35 104.158C202.502 106.27 204.07 107.934 206.054 109.15C208.038 110.302 210.31 110.878 212.87 110.878C215.558 110.878 218.086 110.302 220.454 109.15C222.822 107.934 224.902 106.27 226.694 104.158C228.486 102.046 229.83 99.6464 230.726 96.9584C229.83 94.2064 228.486 91.7744 226.694 89.6624C224.902 87.5504 222.822 85.8864 220.454 84.6704C218.086 83.4544 215.558 82.8464 212.87 82.8464C210.31 82.8464 208.038 83.4544 206.054 84.6704C204.07 85.8864 202.502 87.5504 201.35 89.6624C200.262 91.7744 199.718 94.2064 199.718 96.9584ZM261.463 68.6384L271.351 70.5584L281.143 68.6384V124.318H261.463V68.6384ZM271.255 64.1264C267.863 64.1264 265.111 63.2944 262.999 61.6304C260.887 59.9024 259.831 57.5664 259.831 54.6224C259.831 51.7424 260.887 49.4384 262.999 47.7104C265.111 45.9824 267.863 45.1184 271.255 45.1184C274.775 45.1184 277.559 45.9824 279.607 47.7104C281.719 49.4384 282.775 51.7424 282.775 54.6224C282.775 57.5664 281.719 59.9024 279.607 61.6304C277.559 63.2944 274.775 64.1264 271.255 64.1264ZM291.932 50.3984H311.612V124.318H291.932V50.3984ZM397.28 113.278H391.136L406.688 69.5024H426.272L405.728 124.318H385.76L368.576 78.8144H375.104L357.728 124.318H337.76L317.216 69.5024H336.992L352.448 113.278H346.304L362.528 69.5024H381.248L397.28 113.278ZM431.807 68.6384L441.695 70.5584L451.487 68.6384V124.318H431.807V68.6384ZM441.599 64.1264C438.207 64.1264 435.455 63.2944 433.343 61.6304C431.231 59.9024 430.175 57.5664 430.175 54.6224C430.175 51.7424 431.231 49.4384 433.343 47.7104C435.455 45.9824 438.207 45.1184 441.599 45.1184C445.119 45.1184 447.903 45.9824 449.951 47.7104C452.063 49.4384 453.119 51.7424 453.119 54.6224C453.119 57.5664 452.063 59.9024 449.951 61.6304C447.903 63.2944 445.119 64.1264 441.599 64.1264ZM459.683 69.5024H479.363L482.915 91.3904V124.318H463.331V88.4144L459.683 69.5024ZM503.075 67.8704C508.323 67.8704 512.803 68.9264 516.515 71.0384C520.227 73.1504 523.043 76.1264 524.963 79.9664C526.947 83.8064 527.939 88.3504 527.939 93.5984V124.318H508.355V96.4784C508.355 92.3824 507.299 89.2464 505.187 87.0704C503.139 84.8944 500.163 83.8064 496.259 83.8064C493.571 83.8064 491.203 84.3824 489.155 85.5344C487.171 86.6864 485.635 88.3184 484.547 90.4304C483.459 92.5424 482.915 95.0384 482.915 97.9184L476.867 94.7504C477.635 88.9264 479.267 84.0304 481.763 80.0624C484.259 76.0304 487.331 72.9904 490.979 70.9424C494.627 68.8944 498.659 67.8704 503.075 67.8704ZM587.945 124.318L585.353 103.774L588.713 97.0544L585.449 88.6064L590.057 50.3984H610.409L604.745 95.4224L608.201 124.318H587.945ZM592.169 96.9584C591.273 102.718 589.481 107.774 586.793 112.126C584.169 116.478 580.809 119.87 576.713 122.302C572.681 124.67 568.073 125.854 562.889 125.854C557.513 125.854 552.777 124.67 548.681 122.302C544.649 119.87 541.481 116.478 539.177 112.126C536.873 107.71 535.721 102.654 535.721 96.9584C535.721 91.1344 536.873 86.0464 539.177 81.6944C541.481 77.3424 544.649 73.9504 548.681 71.5184C552.777 69.0864 557.513 67.8704 562.889 67.8704C568.073 67.8704 572.681 69.0864 576.713 71.5184C580.809 73.8864 584.201 77.2464 586.889 81.5984C589.577 85.8864 591.337 91.0064 592.169 96.9584ZM555.593 96.9584C555.593 99.6464 556.137 102.046 557.225 104.158C558.377 106.27 559.945 107.934 561.929 109.15C563.913 110.302 566.185 110.878 568.745 110.878C571.433 110.878 573.961 110.302 576.329 109.15C578.697 107.934 580.777 106.27 582.569 104.158C584.361 102.046 585.705 99.6464 586.601 96.9584C585.705 94.2064 584.361 91.7744 582.569 89.6624C580.777 87.5504 578.697 85.8864 576.329 84.6704C573.961 83.4544 571.433 82.8464 568.745 82.8464C566.185 82.8464 563.913 83.4544 561.929 84.6704C559.945 85.8864 558.377 87.5504 557.225 89.6624C556.137 91.7744 555.593 94.2064 555.593 96.9584Z" fill="white"/>
</svg>
