<svg width="3532" height="175" viewBox="0 0 3532 175" fill="none" xmlns="http://www.w3.org/2000/svg">
<path d="M567.38 1.00195L98.4706 1.00195C93.6591 1.00205 89.0327 2.82688 85.5204 6.09863L85.1845 6.41992L8.87786 81.0684C5.26966 84.5984 5.26956 90.4056 8.87786 93.9356L85.1845 168.584C88.7348 172.057 93.5041 174.002 98.4706 174.002H567.38C577.873 174.002 586.38 165.495 586.38 155.002V20.002L586.374 19.5117C586.114 9.24493 577.709 1.00196 567.38 1.00195Z" fill="#7A78FF" stroke="#141414" stroke-width="2"/>
<path d="M132.512 91.842C132.512 95.106 133.12 97.954 134.336 100.386C135.616 102.754 137.472 104.578 139.904 105.858C142.4 107.138 145.44 107.778 149.024 107.778C152.672 107.778 155.712 107.138 158.144 105.858C160.576 104.578 162.4 102.754 163.616 100.386C164.832 97.954 165.44 95.106 165.44 91.842V52.0019H185.408V92.802C185.408 99.394 183.872 105.154 180.8 110.082C177.792 114.946 173.568 118.754 168.128 121.506C162.688 124.194 156.32 125.538 149.024 125.538C141.792 125.538 135.424 124.194 129.92 121.506C124.48 118.754 120.224 114.946 117.152 110.082C114.144 105.154 112.64 99.394 112.64 92.802V52.0019H132.512V91.842ZM239.94 92.61V80.514L275.268 124.002H250.788L227.46 93.858H237.252L213.828 124.002H189.636L225.156 80.61V92.514L191.748 52.0019H216.612L237.732 79.266H227.94L248.772 52.0019H273.252L239.94 92.61ZM303.854 49.41H318.446L291.566 126.594H276.974L303.854 49.41ZM345.324 91.842C345.324 95.106 345.932 97.954 347.148 100.386C348.428 102.754 350.284 104.578 352.716 105.858C355.212 107.138 358.252 107.778 361.836 107.778C365.484 107.778 368.524 107.138 370.956 105.858C373.388 104.578 375.212 102.754 376.428 100.386C377.644 97.954 378.252 95.106 378.252 91.842V52.0019H398.22V92.802C398.22 99.394 396.684 105.154 393.612 110.082C390.604 114.946 386.38 118.754 380.94 121.506C375.5 124.194 369.132 125.538 361.836 125.538C354.604 125.538 348.236 124.194 342.732 121.506C337.292 118.754 333.036 114.946 329.964 110.082C326.956 105.154 325.452 99.394 325.452 92.802V52.0019H345.324V91.842ZM410.694 52.0019L430.566 52.0019V124.002H410.694V52.0019Z" fill="white"/>
<path d="M1014.38 1.00195L562.479 1.00195C557.668 1.00195 553.041 2.82679 549.528 6.09863L549.192 6.41992L472.887 81.0684C469.278 84.5983 469.277 90.4055 472.886 93.9356L549.192 168.584C552.743 172.057 557.513 174.002 562.479 174.002H1014.38C1024.87 174.002 1033.38 165.495 1033.38 155.002V20.002C1033.38 9.50854 1024.87 1.00195 1014.38 1.00195Z" fill="#05A552" stroke="#141414" stroke-width="2"/>
<path d="M609.6 52.0019H629.472V124.002H609.6V52.0019ZM666.24 52.0019H686.208V124.002H666.24V52.0019ZM620.736 78.594H674.496V96.258H620.736V78.594ZM804.91 52.0019V124.002H785.998V59.1059L790.222 59.586L762.382 124.002H742.222L714.286 59.778L718.606 59.298V124.002H699.694V52.0019H730.414L756.238 113.826H748.558L774.19 52.0019H804.91ZM818.381 52.0019H838.253V124.002H818.381V52.0019Z" fill="white"/>
<path d="M1653.88 1.00195L1018.48 1.00195C1013.67 1.00195 1009.04 2.82679 1005.53 6.09863L1005.19 6.41992L928.888 81.0684C925.279 84.5983 925.278 90.4055 928.887 93.9356L1005.19 168.584C1008.74 172.057 1013.51 174.002 1018.48 174.002H1653.88C1664.37 174.002 1672.88 165.495 1672.88 155.002V20.002C1672.88 9.50854 1664.37 1.00195 1653.88 1.00195Z" fill="#478BFF" stroke="#141414" stroke-width="2"/>
<path d="M1131.74 115.554H1125.5L1143.46 52.0019H1164.48L1142.59 124.002H1116.96L1096.13 62.562H1104.29L1083.36 124.002H1057.82L1035.84 52.0019H1056.96L1074.91 115.554L1068.77 115.458L1089.7 52.0019H1110.72L1131.74 115.554ZM1197.01 125.538C1190.35 125.538 1184.4 124.322 1179.15 121.89C1173.97 119.458 1169.87 116.066 1166.87 111.714C1163.86 107.298 1162.35 102.178 1162.35 96.354C1162.35 90.658 1163.79 85.666 1166.67 81.378C1169.55 77.026 1173.49 73.634 1178.48 71.202C1183.54 68.77 1189.23 67.554 1195.57 67.554C1202.16 67.554 1207.76 68.994 1212.37 71.874C1217.04 74.69 1220.63 78.69 1223.12 83.874C1225.68 89.058 1226.96 95.17 1226.96 102.21H1178.19V90.402H1215.92L1209.49 94.53C1209.23 91.714 1208.53 89.346 1207.38 87.426C1206.23 85.442 1204.69 83.938 1202.77 82.914C1200.91 81.89 1198.67 81.378 1196.05 81.378C1193.17 81.378 1190.71 81.954 1188.66 83.106C1186.61 84.258 1185.01 85.858 1183.86 87.906C1182.71 89.89 1182.13 92.226 1182.13 94.914C1182.13 98.37 1182.9 101.314 1184.43 103.746C1186.03 106.114 1188.34 107.938 1191.35 109.218C1194.42 110.498 1198.16 111.138 1202.58 111.138C1206.61 111.138 1210.61 110.626 1214.58 109.602C1218.61 108.514 1222.26 107.01 1225.52 105.09V117.57C1221.75 120.13 1217.43 122.114 1212.56 123.522C1207.76 124.866 1202.58 125.538 1197.01 125.538ZM1235.35 50.082H1255.03V85.122L1252.44 90.114V103.938L1255.03 108.738V124.002H1235.35V50.082ZM1248.69 96.642C1249.59 90.69 1251.35 85.57 1253.97 81.282C1256.6 76.93 1259.96 73.57 1264.05 71.202C1268.21 68.77 1272.85 67.554 1277.97 67.554C1283.35 67.554 1288.05 68.77 1292.09 71.202C1296.18 73.634 1299.35 77.026 1301.59 81.378C1303.89 85.73 1305.05 90.818 1305.05 96.642C1305.05 102.338 1303.89 107.394 1301.59 111.81C1299.35 116.162 1296.18 119.554 1292.09 121.986C1288.05 124.354 1283.35 125.538 1277.97 125.538C1272.79 125.538 1268.15 124.354 1264.05 121.986C1259.96 119.554 1256.6 116.162 1253.97 111.81C1251.35 107.458 1249.59 102.402 1248.69 96.642ZM1285.27 96.642C1285.27 93.89 1284.69 91.458 1283.54 89.346C1282.45 87.234 1280.92 85.57 1278.93 84.354C1276.95 83.138 1274.65 82.53 1272.02 82.53C1269.4 82.53 1266.9 83.138 1264.53 84.354C1262.17 85.57 1260.09 87.234 1258.29 89.346C1256.5 91.458 1255.13 93.89 1254.17 96.642C1255.13 99.33 1256.5 101.73 1258.29 103.842C1260.09 105.954 1262.17 107.618 1264.53 108.834C1266.9 109.986 1269.4 110.562 1272.02 110.562C1274.65 110.562 1276.95 109.986 1278.93 108.834C1280.92 107.618 1282.45 105.954 1283.54 103.842C1284.69 101.73 1285.27 99.33 1285.27 96.642ZM1377.09 106.146C1377.09 110.37 1375.81 113.922 1373.25 116.802C1370.69 119.682 1367.04 121.858 1362.31 123.33C1357.57 124.802 1351.87 125.538 1345.22 125.538C1338.37 125.538 1332.35 124.706 1327.17 123.042C1322.05 121.378 1318.05 119.042 1315.17 116.034C1312.29 113.026 1310.75 109.538 1310.56 105.57H1330.43C1330.88 107.042 1331.75 108.322 1333.03 109.41C1334.37 110.434 1336.13 111.234 1338.31 111.81C1340.48 112.322 1343.07 112.578 1346.08 112.578C1349.99 112.578 1352.93 112.194 1354.91 111.426C1356.96 110.658 1357.99 109.506 1357.99 107.97C1357.99 106.754 1357.22 105.858 1355.68 105.282C1354.15 104.642 1351.52 104.162 1347.81 103.842L1338.11 103.074C1331.65 102.626 1326.5 101.666 1322.66 100.194C1318.88 98.658 1316.16 96.706 1314.5 94.338C1312.83 91.906 1312 89.154 1312 86.082C1312 81.922 1313.28 78.498 1315.84 75.81C1318.47 73.058 1322.08 71.01 1326.69 69.666C1331.36 68.258 1336.8 67.554 1343.01 67.554C1349.15 67.554 1354.63 68.354 1359.43 69.954C1364.23 71.554 1368.07 73.794 1370.95 76.674C1373.83 79.49 1375.49 82.818 1375.94 86.658H1356.07C1355.75 85.442 1355.04 84.354 1353.95 83.394C1352.87 82.37 1351.36 81.538 1349.44 80.898C1347.52 80.258 1345.06 79.938 1342.05 79.938C1338.53 79.938 1335.84 80.322 1333.99 81.09C1332.19 81.858 1331.3 82.946 1331.3 84.354C1331.3 85.442 1331.84 86.306 1332.93 86.946C1334.08 87.586 1336.19 88.034 1339.27 88.29L1352.03 89.25C1358.37 89.634 1363.36 90.562 1367.01 92.034C1370.66 93.442 1373.25 95.33 1374.79 97.698C1376.32 100.066 1377.09 102.882 1377.09 106.146ZM1385.35 68.322L1395.24 70.242L1405.03 68.322V124.002H1385.35V68.322ZM1395.14 63.81C1391.75 63.81 1389 62.978 1386.89 61.314C1384.77 59.586 1383.72 57.25 1383.72 54.306C1383.72 51.426 1384.77 49.122 1386.89 47.394C1389 45.6659 1391.75 44.8019 1395.14 44.8019C1398.66 44.8019 1401.45 45.6659 1403.49 47.394C1405.61 49.122 1406.66 51.426 1406.66 54.306C1406.66 57.25 1405.61 59.586 1403.49 61.314C1401.45 62.978 1398.66 63.81 1395.14 63.81ZM1411.02 83.682V75.138L1422.16 70.626L1430.6 54.402H1441.74V69.186H1464.78V83.682H1441.74V99.81C1441.74 103.778 1442.54 106.562 1444.14 108.162C1445.74 109.762 1448.65 110.562 1452.88 110.562C1455.56 110.562 1457.93 110.338 1459.98 109.89C1462.09 109.378 1464.01 108.738 1465.74 107.97V122.754C1463.82 123.458 1461.29 124.098 1458.16 124.674C1455.02 125.25 1451.79 125.538 1448.46 125.538C1442.38 125.538 1437.39 124.61 1433.48 122.754C1429.64 120.898 1426.8 118.242 1424.94 114.786C1423.08 111.266 1422.16 107.17 1422.16 102.498V83.682H1411.02ZM1504.14 125.538C1497.48 125.538 1491.53 124.322 1486.28 121.89C1481.1 119.458 1477 116.066 1473.99 111.714C1470.98 107.298 1469.48 102.178 1469.48 96.354C1469.48 90.658 1470.92 85.666 1473.8 81.378C1476.68 77.026 1480.62 73.634 1485.61 71.202C1490.66 68.77 1496.36 67.554 1502.7 67.554C1509.29 67.554 1514.89 68.994 1519.5 71.874C1524.17 74.69 1527.75 78.69 1530.25 83.874C1532.81 89.058 1534.09 95.17 1534.09 102.21H1485.32V90.402H1523.05L1516.62 94.53C1516.36 91.714 1515.66 89.346 1514.5 87.426C1513.35 85.442 1511.82 83.938 1509.9 82.914C1508.04 81.89 1505.8 81.378 1503.18 81.378C1500.3 81.378 1497.83 81.954 1495.78 83.106C1493.74 84.258 1492.14 85.858 1490.98 87.906C1489.83 89.89 1489.26 92.226 1489.26 94.914C1489.26 98.37 1490.02 101.314 1491.56 103.746C1493.16 106.114 1495.46 107.938 1498.47 109.218C1501.54 110.498 1505.29 111.138 1509.7 111.138C1513.74 111.138 1517.74 110.626 1521.7 109.602C1525.74 108.514 1529.38 107.01 1532.65 105.09V117.57C1528.87 120.13 1524.55 122.114 1519.69 123.522C1514.89 124.866 1509.7 125.538 1504.14 125.538Z" fill="white"/>
<path d="M2276.38 1L1657.48 1C1652.67 1.00008 1648.04 2.82496 1644.53 6.09668L1644.19 6.41797L1567.89 81.0664C1564.28 84.5964 1564.28 90.4036 1567.89 93.9336L1644.19 168.582C1647.74 172.055 1652.51 174 1657.48 174H2276.38C2286.87 174 2295.38 165.493 2295.38 155V20C2295.38 9.50659 2286.87 1 2276.38 1Z" fill="#FF6D39" stroke="#141414" stroke-width="2"/>
<path d="M1824.82 52V124H1805.9V59.104L1810.13 59.584L1782.29 124H1762.13L1734.19 59.776L1738.51 59.296V124H1719.6V52H1750.32L1776.14 113.824H1768.46L1794.1 52H1824.82ZM1868.65 125.536C1861.61 125.536 1855.46 124.352 1850.21 121.984C1844.97 119.552 1840.87 116.16 1837.93 111.808C1834.98 107.392 1833.51 102.336 1833.51 96.64C1833.51 90.816 1834.98 85.728 1837.93 81.376C1840.87 77.024 1844.97 73.632 1850.21 71.2C1855.46 68.768 1861.61 67.552 1868.65 67.552C1875.62 67.552 1881.73 68.768 1886.98 71.2C1892.29 73.632 1896.42 77.024 1899.37 81.376C1902.31 85.728 1903.78 90.816 1903.78 96.64C1903.78 102.336 1902.31 107.392 1899.37 111.808C1896.42 116.16 1892.29 119.552 1886.98 121.984C1881.73 124.352 1875.62 125.536 1868.65 125.536ZM1868.65 111.04C1871.85 111.04 1874.57 110.464 1876.81 109.312C1879.11 108.16 1880.87 106.496 1882.09 104.32C1883.3 102.144 1883.91 99.584 1883.91 96.64C1883.91 93.568 1883.3 90.976 1882.09 88.864C1880.87 86.688 1879.11 85.024 1876.81 83.872C1874.57 82.72 1871.85 82.144 1868.65 82.144C1865.45 82.144 1862.69 82.72 1860.39 83.872C1858.09 85.024 1856.33 86.688 1855.11 88.864C1853.89 90.976 1853.29 93.536 1853.29 96.544C1853.29 99.552 1853.89 102.144 1855.11 104.32C1856.33 106.496 1858.09 108.16 1860.39 109.312C1862.69 110.464 1865.45 111.04 1868.65 111.04ZM1906.21 83.68V75.136L1917.34 70.624L1925.79 54.4H1936.93V69.184H1959.97V83.68H1936.93V99.808C1936.93 103.776 1937.73 106.56 1939.33 108.16C1940.93 109.76 1943.84 110.56 1948.06 110.56C1950.75 110.56 1953.12 110.336 1955.17 109.888C1957.28 109.376 1959.2 108.736 1960.93 107.968V122.752C1959.01 123.456 1956.48 124.096 1953.34 124.672C1950.21 125.248 1946.97 125.536 1943.65 125.536C1937.57 125.536 1932.57 124.608 1928.67 122.752C1924.83 120.896 1921.98 118.24 1920.13 114.784C1918.27 111.264 1917.34 107.168 1917.34 102.496V83.68H1906.21ZM1968.85 68.32L1978.74 70.24L1988.53 68.32V124H1968.85V68.32ZM1978.64 63.808C1975.25 63.808 1972.5 62.976 1970.39 61.312C1968.27 59.584 1967.22 57.248 1967.22 54.304C1967.22 51.424 1968.27 49.12 1970.39 47.392C1972.5 45.664 1975.25 44.8 1978.64 44.8C1982.16 44.8 1984.95 45.664 1986.99 47.392C1989.11 49.12 1990.16 51.424 1990.16 54.304C1990.16 57.248 1989.11 59.584 1986.99 61.312C1984.95 62.976 1982.16 63.808 1978.64 63.808ZM2031.96 125.536C2024.92 125.536 2018.78 124.352 2013.53 121.984C2008.28 119.552 2004.18 116.16 2001.24 111.808C1998.3 107.392 1996.82 102.336 1996.82 96.64C1996.82 90.816 1998.3 85.728 2001.24 81.376C2004.18 77.024 2008.28 73.632 2013.53 71.2C2018.78 68.768 2024.92 67.552 2031.96 67.552C2038.94 67.552 2045.05 68.768 2050.3 71.2C2055.61 73.632 2059.74 77.024 2062.68 81.376C2065.62 85.728 2067.1 90.816 2067.1 96.64C2067.1 102.336 2065.62 107.392 2062.68 111.808C2059.74 116.16 2055.61 119.552 2050.3 121.984C2045.05 124.352 2038.94 125.536 2031.96 125.536ZM2031.96 111.04C2035.16 111.04 2037.88 110.464 2040.12 109.312C2042.42 108.16 2044.18 106.496 2045.4 104.32C2046.62 102.144 2047.22 99.584 2047.22 96.64C2047.22 93.568 2046.62 90.976 2045.4 88.864C2044.18 86.688 2042.42 85.024 2040.12 83.872C2037.88 82.72 2035.16 82.144 2031.96 82.144C2028.76 82.144 2026.01 82.72 2023.7 83.872C2021.4 85.024 2019.64 86.688 2018.42 88.864C2017.21 90.976 2016.6 93.536 2016.6 96.544C2016.6 99.552 2017.21 102.144 2018.42 104.32C2019.64 106.496 2021.4 108.16 2023.7 109.312C2026.01 110.464 2028.76 111.04 2031.96 111.04ZM2072.38 69.184H2092.06L2095.62 91.072V124H2076.03V88.096L2072.38 69.184ZM2115.78 67.552C2121.02 67.552 2125.5 68.608 2129.22 70.72C2132.93 72.832 2135.74 75.808 2137.66 79.648C2139.65 83.488 2140.64 88.032 2140.64 93.28V124H2121.06V96.16C2121.06 92.064 2120 88.928 2117.89 86.752C2115.84 84.576 2112.86 83.488 2108.96 83.488C2106.27 83.488 2103.9 84.064 2101.86 85.216C2099.87 86.368 2098.34 88 2097.25 90.112C2096.16 92.224 2095.62 94.72 2095.62 97.6L2089.57 94.432C2090.34 88.608 2091.97 83.712 2094.46 79.744C2096.96 75.712 2100.03 72.672 2103.68 70.624C2107.33 68.576 2111.36 67.552 2115.78 67.552Z" fill="white"/>
<path d="M2821.38 1.00195L2277.48 1.00195C2272.67 1.00195 2268.04 2.82702 2264.53 6.09863L2264.19 6.41992L2187.89 81.0684C2184.28 84.5984 2184.28 90.4055 2187.89 93.9356L2264.19 168.584C2267.74 172.057 2272.51 174.002 2277.48 174.002H2821.38L2821.87 173.996C2832.14 173.736 2840.38 165.331 2840.38 155.002V20.002C2840.38 9.50854 2831.87 1.00195 2821.38 1.00195Z" fill="#FFC413" stroke="#141414" stroke-width="2"/>
<path d="M2338.3 81.474H2390.52V98.274H2338.3V81.474ZM2392.34 52.0019V68.802H2338.97L2348.47 59.298V124.002H2328.6V52.0019H2392.34ZM2401.32 68.322L2411.21 70.242L2421 68.322V124.002H2401.32V68.322ZM2411.11 63.81C2407.72 63.81 2404.97 62.978 2402.85 61.314C2400.74 59.586 2399.69 57.25 2399.69 54.306C2399.69 51.426 2400.74 49.122 2402.85 47.394C2404.97 45.6659 2407.72 44.8019 2411.11 44.8019C2414.63 44.8019 2417.41 45.6659 2419.46 47.394C2421.57 49.122 2422.63 51.426 2422.63 54.306C2422.63 57.25 2421.57 59.586 2419.46 61.314C2417.41 62.978 2414.63 63.81 2411.11 63.81ZM2479.69 110.178V100.866L2480.36 98.562V85.122L2479.69 83.106V69.186H2499.28V109.41C2499.28 116.13 2497.71 121.89 2494.57 126.69C2491.44 131.49 2487.05 135.138 2481.42 137.634C2475.85 140.13 2469.26 141.378 2461.64 141.378C2456.59 141.378 2451.88 140.706 2447.53 139.362C2443.24 138.082 2438.96 136.162 2434.67 133.602V118.818C2438.64 121.762 2442.8 123.874 2447.15 125.154C2451.56 126.498 2455.98 127.17 2460.4 127.17C2466.67 127.17 2471.44 125.826 2474.7 123.138C2478.03 120.45 2479.69 116.13 2479.69 110.178ZM2456.17 118.242C2450.99 118.242 2446.38 117.186 2442.35 115.074C2438.32 112.962 2435.12 110.018 2432.75 106.242C2430.44 102.402 2429.29 97.954 2429.29 92.898C2429.29 87.778 2430.44 83.33 2432.75 79.554C2435.12 75.778 2438.32 72.834 2442.35 70.722C2446.38 68.61 2450.99 67.554 2456.17 67.554C2460.01 67.554 2463.53 68.162 2466.73 69.378C2469.93 70.53 2472.78 72.098 2475.28 74.082C2477.77 76.002 2479.85 78.114 2481.52 80.418C2483.24 82.658 2484.56 84.898 2485.45 87.138C2486.35 89.378 2486.8 91.362 2486.8 93.09C2486.8 95.458 2486.09 98.082 2484.68 100.962C2483.34 103.842 2481.36 106.594 2478.73 109.218C2476.11 111.842 2472.88 114.018 2469.04 115.746C2465.26 117.41 2460.97 118.242 2456.17 118.242ZM2462.8 104.898C2466.57 104.898 2469.93 103.906 2472.88 101.922C2475.82 99.938 2478.32 96.93 2480.36 92.898C2478.25 88.802 2475.72 85.794 2472.78 83.874C2469.84 81.89 2466.51 80.898 2462.8 80.898C2459.98 80.898 2457.52 81.378 2455.4 82.338C2453.36 83.298 2451.79 84.706 2450.7 86.562C2449.61 88.354 2449.07 90.466 2449.07 92.898C2449.07 95.266 2449.61 97.378 2450.7 99.234C2451.79 101.026 2453.36 102.434 2455.4 103.458C2457.45 104.418 2459.92 104.898 2462.8 104.898ZM2507.29 69.186H2526.97L2530.52 91.074V124.002H2510.94V88.098L2507.29 69.186ZM2549.43 67.554C2554.49 67.554 2558.78 68.61 2562.3 70.722C2565.82 72.834 2568.5 75.81 2570.36 79.65C2572.22 83.49 2573.14 88.034 2573.14 93.282V124.002H2553.56V96.162C2553.56 92.066 2552.63 88.93 2550.78 86.754C2548.92 84.578 2546.23 83.49 2542.71 83.49C2540.22 83.49 2538.04 84.066 2536.18 85.218C2534.39 86.37 2532.98 88.002 2531.96 90.114C2531 92.226 2530.52 94.722 2530.52 97.602L2524.47 94.434C2525.24 88.61 2526.81 83.714 2529.18 79.746C2531.54 75.714 2534.46 72.674 2537.91 70.626C2541.43 68.578 2545.27 67.554 2549.43 67.554ZM2591.96 67.554C2597.02 67.554 2601.3 68.61 2604.82 70.722C2608.41 72.834 2611.13 75.81 2612.98 79.65C2614.84 83.49 2615.77 88.034 2615.77 93.282V124.002H2596.18V96.162C2596.18 92.066 2595.26 88.93 2593.4 86.754C2591.54 84.578 2588.86 83.49 2585.34 83.49C2582.84 83.49 2580.66 84.066 2578.81 85.218C2577.02 86.37 2575.61 88.002 2574.58 90.114C2573.62 92.226 2573.14 94.722 2573.14 97.602L2567.1 94.434C2567.86 88.61 2569.4 83.714 2571.7 79.746C2574.07 75.714 2577.02 72.674 2580.54 70.626C2584.06 68.578 2587.86 67.554 2591.96 67.554ZM2675.39 124.002L2672.89 104.226L2675.48 96.642L2672.89 89.058L2675.39 69.186H2695.74L2692.28 96.546L2695.74 124.002H2675.39ZM2679.99 96.642C2679.1 102.402 2677.31 107.458 2674.62 111.81C2671.99 116.162 2668.63 119.554 2664.54 121.986C2660.51 124.354 2655.9 125.538 2650.71 125.538C2645.34 125.538 2640.6 124.354 2636.51 121.986C2632.47 119.554 2629.31 116.162 2627 111.81C2624.7 107.394 2623.55 102.338 2623.55 96.642C2623.55 90.818 2624.7 85.73 2627 81.378C2629.31 77.026 2632.47 73.634 2636.51 71.202C2640.6 68.77 2645.34 67.554 2650.71 67.554C2655.9 67.554 2660.51 68.77 2664.54 71.202C2668.63 73.57 2672.03 76.93 2674.71 81.282C2677.4 85.57 2679.16 90.69 2679.99 96.642ZM2643.42 96.642C2643.42 99.33 2643.96 101.73 2645.05 103.842C2646.2 105.954 2647.77 107.618 2649.75 108.834C2651.74 109.986 2654.01 110.562 2656.57 110.562C2659.26 110.562 2661.79 109.986 2664.15 108.834C2666.52 107.618 2668.6 105.954 2670.39 103.842C2672.19 101.73 2673.53 99.33 2674.43 96.642C2673.53 93.89 2672.19 91.458 2670.39 89.346C2668.6 87.234 2666.52 85.57 2664.15 84.354C2661.79 83.138 2659.26 82.53 2656.57 82.53C2654.01 82.53 2651.74 83.138 2649.75 84.354C2647.77 85.57 2646.2 87.234 2645.05 89.346C2643.96 91.458 2643.42 93.89 2643.42 96.642Z" fill="white"/>
<path d="M3511.5 1L2824.6 1C2819.79 1 2815.16 2.82586 2811.65 6.09766L2811.31 6.41895L2735.01 81.0664C2731.4 84.5964 2731.4 90.4036 2735.01 93.9336L2811.31 168.582C2814.86 172.055 2819.63 174 2824.6 174H3511.5L3511.99 173.994C3522.26 173.734 3530.5 165.33 3530.5 155V20C3530.5 9.67049 3522.26 1.26588 3511.99 1.00586L3511.5 1Z" fill="#478BFF" stroke="#141414" stroke-width="2"/>
<path d="M2925.75 115.554H2919.51L2937.46 52.0019H2958.48L2936.6 124.002H2910.96L2890.13 62.562H2898.29L2877.36 124.002H2851.83L2829.84 52.0019H2850.96L2868.92 115.554L2862.77 115.458L2883.7 52.0019H2904.72L2925.75 115.554ZM2991.01 125.538C2984.36 125.538 2978.41 124.322 2973.16 121.89C2967.97 119.458 2963.88 116.066 2960.87 111.714C2957.86 107.298 2956.36 102.178 2956.36 96.354C2956.36 90.658 2957.8 85.666 2960.68 81.378C2963.56 77.026 2967.49 73.634 2972.49 71.202C2977.54 68.77 2983.24 67.554 2989.57 67.554C2996.17 67.554 3001.77 68.994 3006.37 71.874C3011.05 74.69 3014.63 78.69 3017.13 83.874C3019.69 89.058 3020.97 95.17 3020.97 102.21H2972.2V90.402H3009.93L3003.49 94.53C3003.24 91.714 3002.53 89.346 3001.38 87.426C3000.23 85.442 2998.69 83.938 2996.77 82.914C2994.92 81.89 2992.68 81.378 2990.05 81.378C2987.17 81.378 2984.71 81.954 2982.66 83.106C2980.61 84.258 2979.01 85.858 2977.86 87.906C2976.71 89.89 2976.13 92.226 2976.13 94.914C2976.13 98.37 2976.9 101.314 2978.44 103.746C2980.04 106.114 2982.34 107.938 2985.35 109.218C2988.42 110.498 2992.17 111.138 2996.58 111.138C3000.61 111.138 3004.61 110.626 3008.58 109.602C3012.61 108.514 3016.26 107.01 3019.53 105.09V117.57C3015.75 120.13 3011.43 122.114 3006.57 123.522C3001.77 124.866 2996.58 125.538 2991.01 125.538ZM3029.35 50.082H3049.03V85.122L3046.44 90.114V103.938L3049.03 108.738V124.002H3029.35V50.082ZM3042.7 96.642C3043.59 90.69 3045.35 85.57 3047.98 81.282C3050.6 76.93 3053.96 73.57 3058.06 71.202C3062.22 68.77 3066.86 67.554 3071.98 67.554C3077.35 67.554 3082.06 68.77 3086.09 71.202C3090.19 73.634 3093.35 77.026 3095.59 81.378C3097.9 85.73 3099.05 90.818 3099.05 96.642C3099.05 102.338 3097.9 107.394 3095.59 111.81C3093.35 116.162 3090.19 119.554 3086.09 121.986C3082.06 124.354 3077.35 125.538 3071.98 125.538C3066.79 125.538 3062.15 124.354 3058.06 121.986C3053.96 119.554 3050.6 116.162 3047.98 111.81C3045.35 107.458 3043.59 102.402 3042.7 96.642ZM3079.27 96.642C3079.27 93.89 3078.7 91.458 3077.55 89.346C3076.46 87.234 3074.92 85.57 3072.94 84.354C3070.95 83.138 3068.65 82.53 3066.03 82.53C3063.4 82.53 3060.91 83.138 3058.54 84.354C3056.17 85.57 3054.09 87.234 3052.3 89.346C3050.51 91.458 3049.13 93.89 3048.17 96.642C3049.13 99.33 3050.51 101.73 3052.3 103.842C3054.09 105.954 3056.17 107.618 3058.54 108.834C3060.91 109.986 3063.4 110.562 3066.03 110.562C3068.65 110.562 3070.95 109.986 3072.94 108.834C3074.92 107.618 3076.46 105.954 3077.55 103.842C3078.7 101.73 3079.27 99.33 3079.27 96.642ZM3145.19 63.138C3141.41 63.138 3138.69 63.81 3137.03 65.154C3135.36 66.498 3134.53 68.674 3134.53 71.682V124.002H3114.95V73.41C3114.95 68.098 3116 63.586 3118.11 59.874C3120.23 56.162 3123.33 53.346 3127.43 51.426C3131.59 49.506 3136.71 48.546 3142.79 48.546C3145.28 48.546 3147.52 48.738 3149.51 49.122C3151.49 49.506 3153.51 50.05 3155.55 50.754V65.154C3153.95 64.45 3152.29 63.938 3150.56 63.618C3148.9 63.298 3147.11 63.138 3145.19 63.138ZM3103.81 88.194V73.698H3154.79V88.194H3103.81ZM3163.52 50.082H3183.11V124.002H3163.52V50.082ZM3226.62 125.538C3219.58 125.538 3213.44 124.354 3208.19 121.986C3202.94 119.554 3198.84 116.162 3195.9 111.81C3192.96 107.394 3191.48 102.338 3191.48 96.642C3191.48 90.818 3192.96 85.73 3195.9 81.378C3198.84 77.026 3202.94 73.634 3208.19 71.202C3213.44 68.77 3219.58 67.554 3226.62 67.554C3233.6 67.554 3239.71 68.77 3244.96 71.202C3250.27 73.634 3254.4 77.026 3257.34 81.378C3260.28 85.73 3261.76 90.818 3261.76 96.642C3261.76 102.338 3260.28 107.394 3257.34 111.81C3254.4 116.162 3250.27 119.554 3244.96 121.986C3239.71 124.354 3233.6 125.538 3226.62 125.538ZM3226.62 111.042C3229.82 111.042 3232.54 110.466 3234.78 109.314C3237.08 108.162 3238.84 106.498 3240.06 104.322C3241.28 102.146 3241.88 99.586 3241.88 96.642C3241.88 93.57 3241.28 90.978 3240.06 88.866C3238.84 86.69 3237.08 85.026 3234.78 83.874C3232.54 82.722 3229.82 82.146 3226.62 82.146C3223.42 82.146 3220.67 82.722 3218.36 83.874C3216.06 85.026 3214.3 86.69 3213.08 88.866C3211.87 90.978 3211.26 93.538 3211.26 96.546C3211.26 99.554 3211.87 102.146 3213.08 104.322C3214.3 106.498 3216.06 108.162 3218.36 109.314C3220.67 110.466 3223.42 111.042 3226.62 111.042ZM3342.64 112.962L3336.5 112.962L3352.05 69.186H3371.63L3351.09 124.002L3331.12 124.002L3313.94 78.498H3320.46L3303.09 124.002H3283.12L3262.58 69.186H3282.35L3297.81 112.962H3291.66L3307.89 69.186H3326.61L3342.64 112.962Z" fill="white"/>
</svg>
