<svg width="2867" height="176" viewBox="0 0 2867 176" fill="none" xmlns="http://www.w3.org/2000/svg">
<path d="M2160.96 1.31836L2768.86 1.31836C2773.67 1.31848 2778.3 3.14331 2781.81 6.41504L2782.15 6.73633L2858.46 81.3848C2862.06 84.9147 2862.06 90.7219 2858.46 94.252L2782.15 168.9C2778.6 172.374 2773.83 174.318 2768.86 174.318H2160.96L2160.47 174.313C2150.2 174.053 2141.96 165.648 2141.96 155.318V20.3184C2141.96 9.82495 2150.47 1.31836 2160.96 1.31836Z" fill="#05A552" stroke="#141414" stroke-width="2"/>
<path d="M2590.65 94.1744C2589.95 100.51 2587.77 106.078 2584.12 110.878C2580.47 115.614 2575.67 119.294 2569.72 121.918C2563.83 124.542 2557.05 125.854 2549.37 125.854C2540.99 125.854 2533.66 124.286 2527.39 121.15C2521.11 118.014 2516.22 113.63 2512.7 107.998C2509.24 102.366 2507.51 95.8064 2507.51 88.3184C2507.51 80.8304 2509.24 74.2704 2512.7 68.6384C2516.22 63.0064 2521.11 58.6224 2527.39 55.4864C2533.66 52.3504 2540.99 50.7824 2549.37 50.7824C2557.05 50.7824 2563.83 52.0944 2569.72 54.7184C2575.67 57.3424 2580.47 61.0544 2584.12 65.8544C2587.77 70.5904 2589.95 76.1264 2590.65 82.4624H2570.68C2570.04 79.3904 2568.79 76.7984 2566.94 74.6864C2565.08 72.5104 2562.65 70.8464 2559.64 69.6944C2556.7 68.5424 2553.27 67.9664 2549.37 67.9664C2544.89 67.9664 2541.02 68.7984 2537.75 70.4624C2534.49 72.0624 2531.99 74.3984 2530.27 77.4704C2528.54 80.4784 2527.67 84.0944 2527.67 88.3184C2527.67 92.5424 2528.54 96.1904 2530.27 99.2624C2531.99 102.27 2534.49 104.606 2537.75 106.27C2541.02 107.87 2544.89 108.67 2549.37 108.67C2553.27 108.67 2556.7 108.126 2559.64 107.038C2562.65 105.95 2565.08 104.318 2566.94 102.142C2568.79 99.9664 2570.04 97.3104 2570.68 94.1744H2590.65ZM2597.04 100.702H2617.3C2617.62 102.686 2618.55 104.414 2620.08 105.886C2621.62 107.358 2623.67 108.51 2626.23 109.342C2628.85 110.11 2631.92 110.494 2635.44 110.494C2640.31 110.494 2644.15 109.886 2646.96 108.67C2649.78 107.39 2651.19 105.534 2651.19 103.102C2651.19 101.246 2650.39 99.8064 2648.79 98.7824C2647.19 97.7584 2644.11 97.0224 2639.57 96.5744L2626.13 95.3264C2616.21 94.4304 2609.01 92.1904 2604.53 88.6064C2600.05 84.9584 2597.81 80.0624 2597.81 73.9184C2597.81 68.9264 2599.25 64.7024 2602.13 61.2464C2605.07 57.7904 2609.17 55.1984 2614.42 53.4704C2619.73 51.6784 2625.91 50.7824 2632.95 50.7824C2639.86 50.7824 2646 51.7744 2651.38 53.7584C2656.75 55.6784 2661.01 58.4304 2664.15 62.0144C2667.35 65.5984 2669.07 69.7584 2669.33 74.4944H2649.17C2648.91 72.7664 2648.08 71.2944 2646.67 70.0784C2645.33 68.7984 2643.47 67.8384 2641.11 67.1984C2638.74 66.4944 2635.89 66.1424 2632.56 66.1424C2628.08 66.1424 2624.53 66.7504 2621.91 67.9664C2619.28 69.1184 2617.97 70.8464 2617.97 73.1504C2617.97 74.8144 2618.74 76.1584 2620.27 77.1824C2621.87 78.2064 2624.72 78.9104 2628.82 79.2944L2643.12 80.7344C2649.97 81.3744 2655.44 82.4944 2659.54 84.0944C2663.63 85.6304 2666.61 87.7744 2668.47 90.5264C2670.32 93.2784 2671.25 96.7024 2671.25 100.798C2671.25 105.854 2669.75 110.27 2666.74 114.046C2663.73 117.758 2659.51 120.67 2654.07 122.782C2648.63 124.83 2642.29 125.854 2635.06 125.854C2627.63 125.854 2621.07 124.83 2615.38 122.782C2609.75 120.67 2605.33 117.726 2602.13 113.95C2598.93 110.11 2597.23 105.694 2597.04 100.702ZM2677.95 100.702H2698.21C2698.53 102.686 2699.45 104.414 2700.99 105.886C2702.53 107.358 2704.57 108.51 2707.13 109.342C2709.76 110.11 2712.83 110.494 2716.35 110.494C2721.21 110.494 2725.05 109.886 2727.87 108.67C2730.69 107.39 2732.09 105.534 2732.09 103.102C2732.09 101.246 2731.29 99.8064 2729.69 98.7824C2728.09 97.7584 2725.02 97.0224 2720.48 96.5744L2707.04 95.3264C2697.12 94.4304 2689.92 92.1904 2685.44 88.6064C2680.96 84.9584 2678.72 80.0624 2678.72 73.9184C2678.72 68.9264 2680.16 64.7024 2683.04 61.2464C2685.98 57.7904 2690.08 55.1984 2695.33 53.4704C2700.64 51.6784 2706.81 50.7824 2713.85 50.7824C2720.77 50.7824 2726.91 51.7744 2732.29 53.7584C2737.66 55.6784 2741.92 58.4304 2745.05 62.0144C2748.25 65.5984 2749.98 69.7584 2750.24 74.4944H2730.08C2729.82 72.7664 2728.99 71.2944 2727.58 70.0784C2726.24 68.7984 2724.38 67.8384 2722.01 67.1984C2719.65 66.4944 2716.8 66.1424 2713.47 66.1424C2708.99 66.1424 2705.44 66.7504 2702.81 67.9664C2700.19 69.1184 2698.88 70.8464 2698.88 73.1504C2698.88 74.8144 2699.65 76.1584 2701.18 77.1824C2702.78 78.2064 2705.63 78.9104 2709.73 79.2944L2724.03 80.7344C2730.88 81.3744 2736.35 82.4944 2740.45 84.0944C2744.54 85.6304 2747.52 87.7744 2749.37 90.5264C2751.23 93.2784 2752.16 96.7024 2752.16 100.798C2752.16 105.854 2750.65 110.27 2747.65 114.046C2744.64 117.758 2740.41 120.67 2734.97 122.782C2729.53 124.83 2723.2 125.854 2715.97 125.854C2708.54 125.854 2701.98 124.83 2696.29 122.782C2690.65 120.67 2686.24 117.726 2683.04 113.95C2679.84 110.11 2678.14 105.694 2677.95 100.702Z" fill="white"/>
<path d="M1869.96 1.31836L2376.86 1.31836C2381.67 1.31844 2386.3 3.14333 2389.81 6.41504L2390.15 6.73633L2466.46 81.3848C2470.06 84.9148 2470.06 90.722 2466.46 94.252L2390.15 168.9C2386.6 172.373 2381.83 174.318 2376.86 174.318H1869.96C1859.47 174.318 1850.96 165.812 1850.96 155.318V20.3184C1850.96 9.98885 1859.2 1.58424 1869.47 1.32422L1869.96 1.31836Z" fill="#7A78FF" stroke="#141414" stroke-width="2"/>
<path d="M2066.68 52.3184H2086.55V124.318H2066.68V52.3184ZM2123.32 52.3184H2143.29V124.318H2123.32V52.3184ZM2077.82 78.9104H2131.58V96.5744H2077.82V78.9104ZM2150.26 83.9984V75.4544L2161.39 70.9424L2169.84 54.7184H2180.98V69.5024H2204.02V83.9984H2180.98V100.126C2180.98 104.094 2181.78 106.878 2183.38 108.478C2184.98 110.078 2187.89 110.878 2192.11 110.878C2194.8 110.878 2197.17 110.654 2199.22 110.206C2201.33 109.694 2203.25 109.054 2204.98 108.286V123.07C2203.06 123.774 2200.53 124.414 2197.39 124.99C2194.26 125.566 2191.02 125.854 2187.7 125.854C2181.62 125.854 2176.62 124.926 2172.72 123.07C2168.88 121.214 2166.03 118.558 2164.18 115.102C2162.32 111.582 2161.39 107.486 2161.39 102.814V83.9984H2150.26ZM2210.31 69.5024H2229.99L2233.54 91.3904V124.318H2213.96V88.4144L2210.31 69.5024ZM2252.45 67.8704C2257.51 67.8704 2261.8 68.9264 2265.32 71.0384C2268.84 73.1504 2271.52 76.1264 2273.38 79.9664C2275.24 83.8064 2276.16 88.3504 2276.16 93.5984V124.318H2256.58V96.4784C2256.58 92.3824 2255.65 89.2464 2253.8 87.0704C2251.94 84.8944 2249.25 83.8064 2245.73 83.8064C2243.24 83.8064 2241.06 84.3824 2239.2 85.5344C2237.41 86.6864 2236 88.3184 2234.98 90.4304C2234.02 92.5424 2233.54 95.0384 2233.54 97.9184L2227.49 94.7504C2228.26 88.9264 2229.83 84.0304 2232.2 80.0624C2234.56 76.0304 2237.48 72.9904 2240.93 70.9424C2244.45 68.8944 2248.29 67.8704 2252.45 67.8704ZM2294.98 67.8704C2300.04 67.8704 2304.32 68.9264 2307.84 71.0384C2311.43 73.1504 2314.15 76.1264 2316 79.9664C2317.86 83.8064 2318.79 88.3504 2318.79 93.5984V124.318H2299.2V96.4784C2299.2 92.3824 2298.28 89.2464 2296.42 87.0704C2294.56 84.8944 2291.88 83.8064 2288.36 83.8064C2285.86 83.8064 2283.68 84.3824 2281.83 85.5344C2280.04 86.6864 2278.63 88.3184 2277.6 90.4304C2276.64 92.5424 2276.16 95.0384 2276.16 97.9184L2270.12 94.7504C2270.88 88.9264 2272.42 84.0304 2274.72 80.0624C2277.09 76.0304 2280.04 72.9904 2283.56 70.9424C2287.08 68.8944 2290.88 67.8704 2294.98 67.8704ZM2328.87 50.3984H2348.55V124.318H2328.87V50.3984Z" fill="white"/>
<path d="M1066.96 1.31836L1904.36 1.31836C1909.17 1.31836 1913.8 3.1432 1917.31 6.41504L1917.65 6.73633L1993.96 81.3848C1997.56 84.9147 1997.56 90.7219 1993.96 94.252L1917.65 168.9C1914.1 172.374 1909.33 174.318 1904.36 174.318H1066.96C1056.47 174.318 1047.96 165.812 1047.96 155.318V20.3184C1047.96 9.82495 1056.47 1.31836 1066.96 1.31836Z" fill="#FF6D39" stroke="#141414" stroke-width="2"/>
<path d="M1214.69 88.8944H1234.18V91.2944C1234.18 96.9264 1235.33 101.246 1237.63 104.254C1240 107.198 1243.91 108.67 1249.35 108.67C1254.66 108.67 1258.53 107.294 1260.96 104.542C1263.39 101.726 1264.61 97.8224 1264.61 92.8304V52.3184H1284.48V93.8864C1284.48 100.542 1283.01 106.27 1280.07 111.07C1277.12 115.87 1273.03 119.55 1267.78 122.11C1262.53 124.606 1256.39 125.854 1249.35 125.854C1242.43 125.854 1236.35 124.542 1231.11 121.918C1225.92 119.294 1221.89 115.518 1219.01 110.59C1216.19 105.598 1214.79 99.6784 1214.79 92.8304L1214.69 88.8944ZM1344.37 124.318L1341.88 104.542L1344.47 96.9584L1341.88 89.3744L1344.37 69.5024H1364.73L1361.27 96.8624L1364.73 124.318H1344.37ZM1348.98 96.9584C1348.09 102.718 1346.29 107.774 1343.61 112.126C1340.98 116.478 1337.62 119.87 1333.53 122.302C1329.49 124.67 1324.89 125.854 1319.7 125.854C1314.33 125.854 1309.59 124.67 1305.49 122.302C1301.46 119.87 1298.29 116.478 1295.99 112.126C1293.69 107.71 1292.53 102.654 1292.53 96.9584C1292.53 91.1344 1293.69 86.0464 1295.99 81.6944C1298.29 77.3424 1301.46 73.9504 1305.49 71.5184C1309.59 69.0864 1314.33 67.8704 1319.7 67.8704C1324.89 67.8704 1329.49 69.0864 1333.53 71.5184C1337.62 73.8864 1341.01 77.2464 1343.7 81.5984C1346.39 85.8864 1348.15 91.0064 1348.98 96.9584ZM1312.41 96.9584C1312.41 99.6464 1312.95 102.046 1314.04 104.158C1315.19 106.27 1316.76 107.934 1318.74 109.15C1320.73 110.302 1323 110.878 1325.56 110.878C1328.25 110.878 1330.77 110.302 1333.14 109.15C1335.51 107.934 1337.59 106.27 1339.38 104.158C1341.17 102.046 1342.52 99.6464 1343.41 96.9584C1342.52 94.2064 1341.17 91.7744 1339.38 89.6624C1337.59 87.5504 1335.51 85.8864 1333.14 84.6704C1330.77 83.4544 1328.25 82.8464 1325.56 82.8464C1323 82.8464 1320.73 83.4544 1318.74 84.6704C1316.76 85.8864 1315.19 87.5504 1314.04 89.6624C1312.95 91.7744 1312.41 94.2064 1312.41 96.9584ZM1409.29 115.006L1402.57 114.91L1421.57 69.5024H1442.5L1416.87 124.318H1394.5L1368.87 69.5024H1390.57L1409.29 115.006ZM1494.47 124.318L1491.97 104.542L1494.56 96.9584L1491.97 89.3744L1494.47 69.5024H1514.82L1511.36 96.8624L1514.82 124.318H1494.47ZM1499.08 96.9584C1498.18 102.718 1496.39 107.774 1493.7 112.126C1491.08 116.478 1487.72 119.87 1483.62 122.302C1479.59 124.67 1474.98 125.854 1469.8 125.854C1464.42 125.854 1459.68 124.67 1455.59 122.302C1451.56 119.87 1448.39 116.478 1446.08 112.126C1443.78 107.71 1442.63 102.654 1442.63 96.9584C1442.63 91.1344 1443.78 86.0464 1446.08 81.6944C1448.39 77.3424 1451.56 73.9504 1455.59 71.5184C1459.68 69.0864 1464.42 67.8704 1469.8 67.8704C1474.98 67.8704 1479.59 69.0864 1483.62 71.5184C1487.72 73.8864 1491.11 77.2464 1493.8 81.5984C1496.48 85.8864 1498.24 91.0064 1499.08 96.9584ZM1462.5 96.9584C1462.5 99.6464 1463.04 102.046 1464.13 104.158C1465.28 106.27 1466.85 107.934 1468.84 109.15C1470.82 110.302 1473.09 110.878 1475.65 110.878C1478.34 110.878 1480.87 110.302 1483.24 109.15C1485.6 107.934 1487.68 106.27 1489.48 104.158C1491.27 102.046 1492.61 99.6464 1493.51 96.9584C1492.61 94.2064 1491.27 91.7744 1489.48 89.6624C1487.68 87.5504 1485.6 85.8864 1483.24 84.6704C1480.87 83.4544 1478.34 82.8464 1475.65 82.8464C1473.09 82.8464 1470.82 83.4544 1468.84 84.6704C1466.85 85.8864 1465.28 87.5504 1464.13 89.6624C1463.04 91.7744 1462.5 94.2064 1462.5 96.9584ZM1521.95 100.702H1542.21C1542.53 102.686 1543.45 104.414 1544.99 105.886C1546.53 107.358 1548.57 108.51 1551.13 109.342C1553.76 110.11 1556.83 110.494 1560.35 110.494C1565.21 110.494 1569.05 109.886 1571.87 108.67C1574.69 107.39 1576.09 105.534 1576.09 103.102C1576.09 101.246 1575.29 99.8064 1573.69 98.7824C1572.09 97.7584 1569.02 97.0224 1564.48 96.5744L1551.04 95.3264C1541.12 94.4304 1533.92 92.1904 1529.44 88.6064C1524.96 84.9584 1522.72 80.0624 1522.72 73.9184C1522.72 68.9264 1524.16 64.7024 1527.04 61.2464C1529.98 57.7904 1534.08 55.1984 1539.33 53.4704C1544.64 51.6784 1550.81 50.7824 1557.85 50.7824C1564.77 50.7824 1570.91 51.7744 1576.29 53.7584C1581.66 55.6784 1585.92 58.4304 1589.05 62.0144C1592.25 65.5984 1593.98 69.7584 1594.24 74.4944H1574.08C1573.82 72.7664 1572.99 71.2944 1571.58 70.0784C1570.24 68.7984 1568.38 67.8384 1566.01 67.1984C1563.65 66.4944 1560.8 66.1424 1557.47 66.1424C1552.99 66.1424 1549.44 66.7504 1546.81 67.9664C1544.19 69.1184 1542.88 70.8464 1542.88 73.1504C1542.88 74.8144 1543.65 76.1584 1545.18 77.1824C1546.78 78.2064 1549.63 78.9104 1553.73 79.2944L1568.03 80.7344C1574.88 81.3744 1580.35 82.4944 1584.45 84.0944C1588.54 85.6304 1591.52 87.7744 1593.37 90.5264C1595.23 93.2784 1596.16 96.7024 1596.16 100.798C1596.16 105.854 1594.65 110.27 1591.65 114.046C1588.64 117.758 1584.41 120.67 1578.97 122.782C1573.53 124.83 1567.2 125.854 1559.97 125.854C1552.54 125.854 1545.98 124.83 1540.29 122.782C1534.65 120.67 1530.24 117.726 1527.04 113.95C1523.84 110.11 1522.14 105.694 1521.95 100.702ZM1669.87 101.182C1669.36 106.11 1667.57 110.43 1664.49 114.142C1661.42 117.854 1657.42 120.734 1652.49 122.782C1647.63 124.83 1642.16 125.854 1636.08 125.854C1629.36 125.854 1623.44 124.638 1618.32 122.206C1613.2 119.774 1609.2 116.382 1606.32 112.03C1603.44 107.678 1602 102.654 1602 96.9584C1602 91.1984 1603.44 86.1424 1606.32 81.7904C1609.2 77.4384 1613.2 74.0464 1618.32 71.6144C1623.44 69.1184 1629.36 67.8704 1636.08 67.8704C1642.16 67.8704 1647.63 68.9264 1652.49 71.0384C1657.42 73.0864 1661.42 75.9664 1664.49 79.6784C1667.57 83.3264 1669.36 87.6464 1669.87 92.6384H1650.38C1649.68 89.3744 1648.05 86.8784 1645.49 85.1504C1642.93 83.3584 1639.79 82.4624 1636.08 82.4624C1633.2 82.4624 1630.67 83.0384 1628.49 84.1904C1626.38 85.2784 1624.72 86.9104 1623.5 89.0864C1622.35 91.1984 1621.77 93.8224 1621.77 96.9584C1621.77 100.03 1622.35 102.654 1623.5 104.83C1624.72 106.942 1626.38 108.574 1628.49 109.726C1630.67 110.814 1633.2 111.358 1636.08 111.358C1639.79 111.358 1642.93 110.43 1645.49 108.574C1648.11 106.718 1649.74 104.254 1650.38 101.182H1669.87ZM1674.75 69.5024H1694.71L1697.98 89.0864V124.318H1678.39V87.9344L1674.75 69.5024ZM1723.71 68.6384V85.3424C1721.79 84.9584 1719.96 84.7024 1718.23 84.5744C1716.57 84.3824 1715.03 84.2864 1713.63 84.2864C1710.81 84.2864 1708.22 84.8624 1705.85 86.0144C1703.48 87.1024 1701.56 88.9264 1700.09 91.4864C1698.68 94.0464 1697.98 97.4704 1697.98 101.758L1694.23 97.1504C1694.75 93.1824 1695.51 89.4704 1696.54 86.0144C1697.56 82.4944 1698.94 79.3904 1700.67 76.7024C1702.46 73.9504 1704.67 71.8064 1707.29 70.2704C1709.91 68.6704 1713.11 67.8704 1716.89 67.8704C1717.98 67.8704 1719.1 67.9344 1720.25 68.0624C1721.4 68.1904 1722.55 68.3824 1723.71 68.6384ZM1730.4 68.6384L1740.29 70.5584L1750.08 68.6384V124.318H1730.4V68.6384ZM1740.19 64.1264C1736.8 64.1264 1734.05 63.2944 1731.94 61.6304C1729.82 59.9024 1728.77 57.5664 1728.77 54.6224C1728.77 51.7424 1729.82 49.4384 1731.94 47.7104C1734.05 45.9824 1736.8 45.1184 1740.19 45.1184C1743.71 45.1184 1746.5 45.9824 1748.54 47.7104C1750.66 49.4384 1751.71 51.7424 1751.71 54.6224C1751.71 57.5664 1750.66 59.9024 1748.54 61.6304C1746.5 63.2944 1743.71 64.1264 1740.19 64.1264ZM1760.87 69.5024H1780.55V85.2464L1779.69 87.5504V102.91L1780.55 107.422V140.158H1760.87V69.5024ZM1774.31 96.9584C1775.14 91.0064 1776.87 85.8864 1779.49 81.5984C1782.18 77.2464 1785.57 73.8864 1789.67 71.5184C1793.77 69.0864 1798.41 67.8704 1803.59 67.8704C1808.97 67.8704 1813.67 69.0864 1817.7 71.5184C1821.8 73.9504 1824.97 77.3424 1827.21 81.6944C1829.51 86.0464 1830.66 91.1344 1830.66 96.9584C1830.66 102.654 1829.51 107.71 1827.21 112.126C1824.97 116.478 1821.8 119.87 1817.7 122.302C1813.67 124.67 1808.97 125.854 1803.59 125.854C1798.41 125.854 1793.77 124.67 1789.67 122.302C1785.57 119.87 1782.21 116.478 1779.59 112.126C1776.97 107.774 1775.21 102.718 1774.31 96.9584ZM1810.89 96.9584C1810.89 94.2064 1810.31 91.7744 1809.16 89.6624C1808.07 87.5504 1806.5 85.8864 1804.45 84.6704C1802.47 83.4544 1800.2 82.8464 1797.64 82.8464C1795.01 82.8464 1792.52 83.4544 1790.15 84.6704C1787.78 85.8864 1785.7 87.5504 1783.91 89.6624C1782.12 91.7744 1780.74 94.2064 1779.78 96.9584C1780.74 99.6464 1782.12 102.046 1783.91 104.158C1785.7 106.27 1787.78 107.934 1790.15 109.15C1792.52 110.302 1795.01 110.878 1797.64 110.878C1800.2 110.878 1802.47 110.302 1804.45 109.15C1806.5 107.934 1808.07 106.27 1809.16 104.158C1810.31 102.046 1810.89 99.6464 1810.89 96.9584ZM1833.41 83.9984V75.4544L1844.55 70.9424L1853 54.7184H1864.13V69.5024H1887.17V83.9984H1864.13V100.126C1864.13 104.094 1864.93 106.878 1866.53 108.478C1868.13 110.078 1871.04 110.878 1875.27 110.878C1877.96 110.878 1880.32 110.654 1882.37 110.206C1884.48 109.694 1886.4 109.054 1888.13 108.286V123.07C1886.21 123.774 1883.68 124.414 1880.55 124.99C1877.41 125.566 1874.18 125.854 1870.85 125.854C1864.77 125.854 1859.78 124.926 1855.88 123.07C1852.04 121.214 1849.19 118.558 1847.33 115.102C1845.48 111.582 1844.55 107.486 1844.55 102.814V83.9984H1833.41Z" fill="white"/>
<path d="M622.962 1.31836L1074.86 1.31836C1079.67 1.31836 1084.3 3.1432 1087.81 6.41504L1088.15 6.73633L1164.46 81.3848C1168.06 84.9147 1168.06 90.7219 1164.46 94.252L1088.15 168.9C1084.6 172.374 1079.83 174.318 1074.86 174.318H622.962C612.469 174.318 603.962 165.812 603.962 155.318V20.3184C603.962 9.82495 612.469 1.31836 622.962 1.31836Z" fill="#478BFF" stroke="#141414" stroke-width="2"/>
<path d="M752.41 83.8064H778.618C781.818 83.8064 784.314 83.0704 786.106 81.5984C787.898 80.1264 788.794 78.0784 788.794 75.4544C788.794 72.7664 787.898 70.7184 786.106 69.3104C784.314 67.8384 781.818 67.1024 778.618 67.1024H749.626L758.554 57.5984V124.318H738.682V52.3184H781.402C786.906 52.3184 791.706 53.3104 795.802 55.2944C799.898 57.2144 803.098 59.9024 805.402 63.3584C807.706 66.7504 808.858 70.7824 808.858 75.4544C808.858 79.9984 807.706 83.9984 805.402 87.4544C803.098 90.9104 799.898 93.5984 795.802 95.5184C791.706 97.4384 786.906 98.3984 781.402 98.3984H752.41V83.8064ZM763.162 90.6224H785.53L811.354 124.318H788.314L763.162 90.6224ZM848.435 125.854C841.779 125.854 835.827 124.638 830.579 122.206C825.395 119.774 821.299 116.382 818.291 112.03C815.283 107.614 813.779 102.494 813.779 96.6704C813.779 90.9744 815.219 85.9824 818.099 81.6944C820.979 77.3424 824.915 73.9504 829.907 71.5184C834.963 69.0864 840.659 67.8704 846.995 67.8704C853.587 67.8704 859.187 69.3104 863.795 72.1904C868.467 75.0064 872.051 79.0064 874.547 84.1904C877.107 89.3744 878.387 95.4864 878.387 102.526H829.619V90.7184H867.347L860.915 94.8464C860.659 92.0304 859.955 89.6624 858.803 87.7424C857.651 85.7584 856.115 84.2544 854.195 83.2304C852.339 82.2064 850.099 81.6944 847.475 81.6944C844.595 81.6944 842.131 82.2704 840.083 83.4224C838.035 84.5744 836.435 86.1744 835.283 88.2224C834.131 90.2064 833.555 92.5424 833.555 95.2304C833.555 98.6864 834.323 101.63 835.859 104.062C837.459 106.43 839.763 108.254 842.771 109.534C845.843 110.814 849.587 111.454 854.003 111.454C858.035 111.454 862.035 110.942 866.003 109.918C870.035 108.83 873.683 107.326 876.947 105.406V117.886C873.171 120.446 868.851 122.43 863.987 123.838C859.187 125.182 854.003 125.854 848.435 125.854ZM936.311 124.318L933.815 104.542L936.407 96.9584L933.815 89.3744L936.311 69.5024H956.663L953.207 96.8624L956.663 124.318H936.311ZM940.919 96.9584C940.023 102.718 938.231 107.774 935.543 112.126C932.919 116.478 929.559 119.87 925.463 122.302C921.431 124.67 916.823 125.854 911.639 125.854C906.263 125.854 901.527 124.67 897.431 122.302C893.399 119.87 890.231 116.478 887.927 112.126C885.623 107.71 884.471 102.654 884.471 96.9584C884.471 91.1344 885.623 86.0464 887.927 81.6944C890.231 77.3424 893.399 73.9504 897.431 71.5184C901.527 69.0864 906.263 67.8704 911.639 67.8704C916.823 67.8704 921.431 69.0864 925.463 71.5184C929.559 73.8864 932.951 77.2464 935.639 81.5984C938.327 85.8864 940.087 91.0064 940.919 96.9584ZM904.343 96.9584C904.343 99.6464 904.887 102.046 905.975 104.158C907.127 106.27 908.695 107.934 910.679 109.15C912.663 110.302 914.935 110.878 917.495 110.878C920.183 110.878 922.711 110.302 925.079 109.15C927.447 107.934 929.527 106.27 931.319 104.158C933.111 102.046 934.455 99.6464 935.351 96.9584C934.455 94.2064 933.111 91.7744 931.319 89.6624C929.527 87.5504 927.447 85.8864 925.079 84.6704C922.711 83.4544 920.183 82.8464 917.495 82.8464C914.935 82.8464 912.663 83.4544 910.679 84.6704C908.695 85.8864 907.127 87.5504 905.975 89.6624C904.887 91.7744 904.343 94.2064 904.343 96.9584ZM1031 101.182C1030.48 106.11 1028.69 110.43 1025.62 114.142C1022.55 117.854 1018.55 120.734 1013.62 122.782C1008.76 124.83 1003.28 125.854 997.203 125.854C990.483 125.854 984.563 124.638 979.443 122.206C974.323 119.774 970.323 116.382 967.443 112.03C964.563 107.678 963.123 102.654 963.123 96.9584C963.123 91.1984 964.563 86.1424 967.443 81.7904C970.323 77.4384 974.323 74.0464 979.443 71.6144C984.563 69.1184 990.483 67.8704 997.203 67.8704C1003.28 67.8704 1008.76 68.9264 1013.62 71.0384C1018.55 73.0864 1022.55 75.9664 1025.62 79.6784C1028.69 83.3264 1030.48 87.6464 1031 92.6384H1011.51C1010.8 89.3744 1009.17 86.8784 1006.61 85.1504C1004.05 83.3584 1000.92 82.4624 997.203 82.4624C994.323 82.4624 991.795 83.0384 989.619 84.1904C987.507 85.2784 985.843 86.9104 984.627 89.0864C983.475 91.1984 982.899 93.8224 982.899 96.9584C982.899 100.03 983.475 102.654 984.627 104.83C985.843 106.942 987.507 108.574 989.619 109.726C991.795 110.814 994.323 111.358 997.203 111.358C1000.92 111.358 1004.05 110.43 1006.61 108.574C1009.24 106.718 1010.87 104.254 1011.51 101.182H1031ZM1033.19 83.9984V75.4544L1044.33 70.9424L1052.78 54.7184H1063.91V69.5024H1086.95V83.9984H1063.91V100.126C1063.91 104.094 1064.71 106.878 1066.31 108.478C1067.91 110.078 1070.83 110.878 1075.05 110.878C1077.74 110.878 1080.11 110.654 1082.15 110.206C1084.27 109.694 1086.19 109.054 1087.91 108.286V123.07C1085.99 123.774 1083.47 124.414 1080.33 124.99C1077.19 125.566 1073.96 125.854 1070.63 125.854C1064.55 125.854 1059.56 124.926 1055.66 123.07C1051.82 121.214 1048.97 118.558 1047.11 115.102C1045.26 111.582 1044.33 107.486 1044.33 102.814V83.9984H1033.19Z" fill="white"/>
<path d="M20.9619 1.31836L616.362 1.31836C621.174 1.31836 625.801 3.1432 629.314 6.41504L629.649 6.73633L705.955 81.3848C709.451 84.8044 709.56 90.3608 706.283 93.9141L705.956 94.252L629.649 168.9C626.099 172.374 621.329 174.318 616.362 174.318H20.9619C10.4685 174.318 1.96191 165.812 1.96191 155.318L1.96191 20.3184C1.96191 9.82495 10.4685 1.31836 20.9619 1.31836Z" fill="#FFC413" stroke="#141414" stroke-width="2"/>
<path d="M117.742 61.0544H137.71V124.318H117.742V61.0544ZM90.2859 52.3184H165.166V69.9824H90.2859V52.3184ZM210.686 124.318L208.19 104.542L210.782 96.9584L208.19 89.3744L210.686 69.5024H231.038L227.582 96.8624L231.038 124.318H210.686ZM215.294 96.9584C214.398 102.718 212.606 107.774 209.918 112.126C207.294 116.478 203.934 119.87 199.838 122.302C195.806 124.67 191.198 125.854 186.014 125.854C180.638 125.854 175.902 124.67 171.806 122.302C167.774 119.87 164.606 116.478 162.302 112.126C159.998 107.71 158.846 102.654 158.846 96.9584C158.846 91.1344 159.998 86.0464 162.302 81.6944C164.606 77.3424 167.774 73.9504 171.806 71.5184C175.902 69.0864 180.638 67.8704 186.014 67.8704C191.198 67.8704 195.806 69.0864 199.838 71.5184C203.934 73.8864 207.326 77.2464 210.014 81.5984C212.702 85.8864 214.462 91.0064 215.294 96.9584ZM178.718 96.9584C178.718 99.6464 179.262 102.046 180.35 104.158C181.502 106.27 183.07 107.934 185.054 109.15C187.038 110.302 189.31 110.878 191.87 110.878C194.558 110.878 197.086 110.302 199.454 109.15C201.822 107.934 203.902 106.27 205.694 104.158C207.486 102.046 208.83 99.6464 209.726 96.9584C208.83 94.2064 207.486 91.7744 205.694 89.6624C203.902 87.5504 201.822 85.8864 199.454 84.6704C197.086 83.4544 194.558 82.8464 191.87 82.8464C189.31 82.8464 187.038 83.4544 185.054 84.6704C183.07 85.8864 181.502 87.5504 180.35 89.6624C179.262 91.7744 178.718 94.2064 178.718 96.9584ZM240.463 68.6384L250.351 70.5584L260.143 68.6384V124.318H240.463V68.6384ZM250.255 64.1264C246.863 64.1264 244.111 63.2944 241.999 61.6304C239.887 59.9024 238.831 57.5664 238.831 54.6224C238.831 51.7424 239.887 49.4384 241.999 47.7104C244.111 45.9824 246.863 45.1184 250.255 45.1184C253.775 45.1184 256.559 45.9824 258.607 47.7104C260.719 49.4384 261.775 51.7424 261.775 54.6224C261.775 57.5664 260.719 59.9024 258.607 61.6304C256.559 63.2944 253.775 64.1264 250.255 64.1264ZM270.932 50.3984H290.612V124.318H270.932V50.3984ZM376.28 113.278H370.136L385.688 69.5024H405.272L384.728 124.318H364.76L347.576 78.8144H354.104L336.728 124.318H316.76L296.216 69.5024H315.992L331.448 113.278H325.304L341.528 69.5024H360.248L376.28 113.278ZM410.807 68.6384L420.695 70.5584L430.487 68.6384V124.318H410.807V68.6384ZM420.599 64.1264C417.207 64.1264 414.455 63.2944 412.343 61.6304C410.231 59.9024 409.175 57.5664 409.175 54.6224C409.175 51.7424 410.231 49.4384 412.343 47.7104C414.455 45.9824 417.207 45.1184 420.599 45.1184C424.119 45.1184 426.903 45.9824 428.951 47.7104C431.063 49.4384 432.119 51.7424 432.119 54.6224C432.119 57.5664 431.063 59.9024 428.951 61.6304C426.903 63.2944 424.119 64.1264 420.599 64.1264ZM438.683 69.5024H458.363L461.915 91.3904V124.318H442.331V88.4144L438.683 69.5024ZM482.075 67.8704C487.323 67.8704 491.803 68.9264 495.515 71.0384C499.227 73.1504 502.043 76.1264 503.963 79.9664C505.947 83.8064 506.939 88.3504 506.939 93.5984V124.318H487.355V96.4784C487.355 92.3824 486.299 89.2464 484.187 87.0704C482.139 84.8944 479.163 83.8064 475.259 83.8064C472.571 83.8064 470.203 84.3824 468.155 85.5344C466.171 86.6864 464.635 88.3184 463.547 90.4304C462.459 92.5424 461.915 95.0384 461.915 97.9184L455.867 94.7504C456.635 88.9264 458.267 84.0304 460.763 80.0624C463.259 76.0304 466.331 72.9904 469.979 70.9424C473.627 68.8944 477.659 67.8704 482.075 67.8704ZM566.945 124.318L564.353 103.774L567.713 97.0544L564.449 88.6064L569.057 50.3984H589.409L583.745 95.4224L587.201 124.318H566.945ZM571.169 96.9584C570.273 102.718 568.481 107.774 565.793 112.126C563.169 116.478 559.809 119.87 555.713 122.302C551.681 124.67 547.073 125.854 541.889 125.854C536.513 125.854 531.777 124.67 527.681 122.302C523.649 119.87 520.481 116.478 518.177 112.126C515.873 107.71 514.721 102.654 514.721 96.9584C514.721 91.1344 515.873 86.0464 518.177 81.6944C520.481 77.3424 523.649 73.9504 527.681 71.5184C531.777 69.0864 536.513 67.8704 541.889 67.8704C547.073 67.8704 551.681 69.0864 555.713 71.5184C559.809 73.8864 563.201 77.2464 565.889 81.5984C568.577 85.8864 570.337 91.0064 571.169 96.9584ZM534.593 96.9584C534.593 99.6464 535.137 102.046 536.225 104.158C537.377 106.27 538.945 107.934 540.929 109.15C542.913 110.302 545.185 110.878 547.745 110.878C550.433 110.878 552.961 110.302 555.329 109.15C557.697 107.934 559.777 106.27 561.569 104.158C563.361 102.046 564.705 99.6464 565.601 96.9584C564.705 94.2064 563.361 91.7744 561.569 89.6624C559.777 87.5504 557.697 85.8864 555.329 84.6704C552.961 83.4544 550.433 82.8464 547.745 82.8464C545.185 82.8464 542.913 83.4544 540.929 84.6704C538.945 85.8864 537.377 87.5504 536.225 89.6624C535.137 91.7744 534.593 94.2064 534.593 96.9584Z" fill="white"/>
</svg>
