<svg width="229" height="183" viewBox="0 0 229 183" fill="none" xmlns="http://www.w3.org/2000/svg">
<g clip-path="url(#clip0_1551_778)">
<path d="M134.187 142.891L129.854 139.211C126.827 140.205 126.373 143.793 123.629 145.117C120.393 146.387 117.007 144.308 113.639 145.724C108.284 147.988 109.06 142.431 107.016 140.481C106.326 140.168 105.561 140.04 104.803 140.113C101.019 141.529 97.2344 143.921 92.9772 141.309C91.3878 140.922 92.0308 136.654 88.871 139.064C82.7974 143.701 81.3028 140.775 81.492 134.887C82.4948 130.49 86.0141 127.215 87.1683 122.891C87.49 121.456 87.8495 120.039 86.2791 118.99C81.757 116.764 77.1591 117.868 72.4856 118.291C58.7301 119.524 45.9962 117.297 35.9492 106.975C36.725 103.424 39.7334 101.216 41.6255 98.2542C46.0152 96.0646 50.4427 100.094 54.8701 98.2542C56.2325 97.463 59.4489 100.241 59.0516 96.1198C58.3894 93.8383 57.519 91.612 58.5407 89.2569C62.1924 86.1658 55.9865 79.1556 63.4414 77.5733C69.2501 77.7021 69.704 84.2154 74.1315 86.0186C81.8702 91.5384 87.9438 99.6341 99.2396 99.6157C77.9347 88.1897 69.7799 69.6616 68.6257 47.3431C68.3985 45.9878 68.4864 44.6002 68.8825 43.2821C69.2787 41.964 69.973 40.7488 70.9151 39.7258C73.6586 33.0468 72.3341 25.0063 78.4834 19.4865C82.646 20.7929 82.9867 20.9033 81.8704 24.6383C79.8745 31.3893 78.7433 38.354 78.5024 45.3744C78.0669 48.6736 78.8084 52.0182 80.6028 54.8501C80.2055 42.3385 86.2791 31.5197 86.8279 19.7441C86.9981 16.1562 90.347 16.0642 93.3176 17.5914C97.5937 22.1728 95.5502 27.5454 94.623 32.3109C92.8626 42.5566 93.4438 53.0536 96.3257 63.0562C97.1961 66.3681 96.9317 71.1151 101.511 71.9615C105.484 72.6975 108.473 69.7536 111.122 67.1041C112.844 65.3745 114.377 63.4242 116.004 61.5842C120.848 57.334 128.378 54.2245 122.172 45.6688C120.053 42.7065 124.064 41.9889 126.599 40.149C123.912 39.321 120.923 40.0018 119.353 37.7203C118.906 36.0466 118.873 34.2935 119.258 32.6053C130.157 31.2989 131.954 25.6871 125.862 12.1268C121.831 11.8324 122.456 17.0762 118.293 17.6466C115.285 13.1387 117.29 8.9069 119.504 4.67505L121.775 1.23436C126.467 -1.13915 129.929 0.516794 133.278 4.04947C144.631 15.8987 146.391 30.195 143.931 45.1536C141.604 59.1187 135.435 71.3175 122.985 79.7628C121.093 81.0876 118.615 82.3203 118.161 85.9082C124.272 87.7481 129.513 87.2513 133.732 81.8787C135.435 79.726 136.608 77.0949 139.409 75.8621C140.01 75.7023 140.642 75.6893 141.249 75.8241C141.856 75.9589 142.42 76.2374 142.89 76.6349C148.832 81.9339 154.773 80.186 157.289 72.6422C158.122 70.1215 157.138 69.4408 155.018 68.9624C152.01 68.1896 148.794 67.9504 146.353 65.7609C145.854 65.012 145.603 64.1322 145.634 63.2402C146.372 59.0635 148.302 56.5796 153.202 58.1804C161.981 59.2843 164.29 57.0028 161.982 49.2567C161.206 46.6624 159.843 44.2337 158.897 41.6761C157.743 38.4931 152.824 37.8307 153.221 33.6356C153.461 32.9824 153.855 32.3927 154.37 31.9135C154.886 31.4343 155.51 31.079 156.192 30.8757C161.679 29.2934 165.539 33.2124 170.08 34.7948C180.524 45.5216 179.408 58.7139 177.818 71.5935C176.38 83.2587 169.588 92.348 160.335 99.6893C158.122 101.29 155.567 102.376 153.259 104.05C156.006 103.542 158.839 103.7 161.509 104.51C165.293 112.035 173.94 113.875 182.757 109.441C193.473 104.242 202.752 96.6201 209.814 87.2145C213.977 81.5843 211.876 78.3645 205.594 76.7085C204.701 76.3799 203.896 75.8579 203.24 75.1822C202.584 74.5064 202.095 73.6945 201.81 72.8078C201.483 71.1919 201.723 69.5159 202.492 68.0482C203.26 66.5805 204.513 65.4058 206.049 64.7121C207.291 64.5961 208.539 64.8736 209.606 65.5033C211.876 66.6625 213.806 70.2135 216.777 67.6744C218.669 66.0369 217.931 63.0562 217.723 60.6459C217.382 56.6164 214.468 58.1252 212.046 58.1988C210.022 58.1988 209.625 56.6532 209.284 55.1077C210.306 49.1279 214.203 46.5152 219.993 47.7479C225.783 48.9807 228.621 52.0718 229 58.6035C230.229 79.5788 220.75 95.531 205.746 109.22C200.07 114.071 193.154 117.344 185.727 118.696C171.763 122.045 157.838 123.792 143.666 119.377C140.279 118.328 140.09 118.861 142.474 124.51C143.609 125.945 145.255 127.362 145.218 129.147C144.953 139.671 145.785 140.72 156.4 144.602C160.184 145.982 165.595 145.393 166.523 151.134C164.895 157.242 160.695 155.255 156.892 153.931C148.812 151.023 141.963 146.074 134.187 142.891Z" fill="#56B3B1"/>
<path d="M55.5712 100.238C50.8788 101.452 46.527 100.238 42.3266 98.3976C37.672 97.3856 35.2121 93.5586 32.2037 90.5595C29.1953 87.5604 26.5276 85.1685 22.9894 89.3267C19.4512 93.485 23.2542 95.8585 26.2059 98.0296C29.6873 100.569 34.1526 101.82 36.5745 105.702C47.0756 114.663 58.958 118.802 73.0163 115.73C79.4494 114.313 85.8636 113.89 91.0669 119.134C87.6474 120.84 83.9012 121.839 80.065 122.067C76.2287 122.295 72.3857 121.747 68.778 120.458C44.0294 118.618 23.3675 109.143 8.87403 88.9403C0.0379555 76.6496 -2.68666 63.3836 3.19775 49.1241C4.86279 45.0947 7.47403 41.2308 12.8097 41.7644C17.6346 42.2612 18.978 46.3458 20.4728 50.0993C25.0706 61.6357 26.376 74.6072 35.9879 83.9541C41.9858 90.0075 50.9734 92.6018 55.5712 100.238Z" fill="#6BB3AF"/>
<path d="M93.2619 140.774C98.5597 142.411 102.06 137.094 106.98 137.37C103.479 148.556 94.0186 151.648 83.7067 153.598C83.0907 153.518 82.4643 153.62 81.9093 153.892C74.7587 158.337 66.3538 160.486 57.8798 160.038C52.809 159.909 47.9272 161.234 42.9699 161.362C28.9495 161.712 16.1593 158.952 8.30708 145.944C6.98946 143.88 5.8502 141.714 4.90122 139.467C3.44431 135.088 4.06863 130.875 8.13663 127.986C12.2046 125.097 16.3293 126.146 20.3027 128.74C37.8045 140.35 61.2667 140.755 78.2009 129.826C81.3039 126.385 83.877 122.19 89.3451 122.043C89.8749 127.397 84.1987 130.286 83.7825 135.254C81.7715 136.546 79.6937 137.737 77.5574 138.823C71.1751 141.169 64.4891 142.643 57.6904 143.202C52.5439 143.331 46.7164 141.841 45.0703 149.256C44.7297 150.838 42.6484 152.715 40.7374 151.519C38.1073 149.863 40.2833 147.839 41.2861 145.686C38.5994 149.863 38.4477 152.218 44.3321 152.696C60.0611 154.323 75.8823 150.576 89.0804 142.098C90.386 141.252 91.5022 140.222 93.2619 140.774Z" fill="#6AB0AD"/>
<path d="M134.188 142.89C142.948 142.651 149.324 148.152 156.495 151.722C160.015 153.562 163.439 155.88 165.161 149.882C166.807 147.564 170.497 148.042 171.859 145.521C171.859 142.265 166.997 142.633 167.11 139.1C171.784 136.285 177.403 139.56 182.152 137.15C182.758 136.939 183.409 136.882 184.044 136.984C186.58 135.751 188.737 135.696 187.602 139.229C186.788 141.749 183.818 143.35 183.326 146.22C195.832 144.767 197.932 142.393 193.315 134.942C196.986 133.286 200.6 131.519 204.328 130.011C211.158 127.251 215.302 130.342 214.318 137.518C213.447 143.755 209.228 147.95 204.12 151.078C185.293 162.614 149.816 158.327 134.188 142.89Z" fill="#63B0AD"/>
<path d="M123.459 144.561C123.799 140.753 125.767 138.766 129.854 139.226C131.141 161.305 122.91 174.663 104.481 181.378C101.561 182.509 98.4368 183.059 95.2943 182.996C92.1517 182.933 89.0541 182.258 86.1844 181.01C79.4107 174.313 79.8082 168.536 87.7739 163.347C93.4502 159.667 100.205 157.386 105.37 152.749C112.371 151.921 112.465 152.142 109.703 161.618C120.299 161.102 117.725 149.768 123.459 144.561Z" fill="#63B0AD"/>
<path d="M55.4197 43.2932C58.7927 47.3239 60.9129 52.207 61.5311 57.3687C62.6474 68.1876 67.832 77.7368 72.6568 87.3413C66.9806 86.7525 68.3049 79.2088 63.0259 78.1416C58.2579 74.8297 58.0876 69.6779 56.8956 64.7285C56.0063 61.0486 55.9304 56.9088 52.3921 54.3512C48.3241 57.8287 50.9543 62.2262 50.6326 66.182C52.5247 74.1858 58.2011 80.9015 59.2228 89.1444L61.1149 96.5042C50.4246 94.9034 49.4407 85.6302 45.9781 78.344C43.173 70.7568 41.9882 62.6931 42.4965 54.6456C43.1209 47.5067 46.1484 41.8213 55.4197 43.2932Z" fill="#71B0AE"/>
<path d="M182.152 137.185C178.368 140.663 173.637 137.866 167.866 140.019C172.067 141.178 177.687 140.24 176.173 145.759C174.508 151.776 169.191 149.439 165.161 149.918C155 146.771 145.161 143.147 138.028 134.83C137.271 133.947 135.757 133.579 136.136 132.089C136.187 131.783 136.303 131.491 136.475 131.231C136.646 130.971 136.872 130.747 137.136 130.575C137.4 130.403 137.698 130.285 138.011 130.229C138.324 130.172 138.645 130.179 138.955 130.249C148.416 132.641 141.131 126.256 142.304 124.324C153.203 135.75 167.091 138.179 182.152 137.185Z" fill="#77CCC9"/>
<path d="M93.1471 17.4967C90.4792 17.3863 88.4546 17.4967 88.3789 21.1766C88.2465 26.862 87.0544 32.5106 86.922 38.196C86.922 40.9007 86.3166 43.403 84.1407 44.4886C80.5646 46.3285 79.3917 46.9173 83.8192 49.3828C87.7547 51.5907 83.9896 54.7922 83.5166 57.4969C83.4531 57.8788 83.2987 58.241 83.0657 58.5546C82.8328 58.8683 82.5275 59.1246 82.1747 59.3034C81.8218 59.4821 81.431 59.5781 81.0332 59.584C80.6354 59.5898 80.2417 59.5052 79.8835 59.3369C76.4966 58.3065 76.2697 55.5098 76.2697 52.6947C76.2697 42.6854 75.3804 32.5658 80.0539 23.1269C81.0567 21.0846 81.151 19.6863 78.3507 19.4471C82.5701 13.7065 87.6411 13.9825 93.1471 17.4967Z" fill="#74CDC9"/>
<path d="M193.24 134.976C194.98 138.895 202.34 134.828 201.848 139.465C201.413 143.458 195.831 144.985 191.99 146.825C188.452 148.481 184.725 150.247 179.957 149.64C180.808 145.298 181.281 141.342 185.633 138.6C187.393 137.496 184.517 137.625 183.892 137.036C186.655 134.7 190.023 135.104 193.24 134.976Z" fill="#77CCC9"/>
<path d="M119.429 4.54297C119.694 8.22284 116.723 11.9027 118.558 15.693C121.851 13.7059 119.637 5.57334 127.224 8.33324C128.558 11.9526 129.155 15.7894 128.984 19.6304C129.249 27.119 126.089 28.9405 117.858 26.659C115.474 19.1337 113.431 11.5715 119.429 4.54297Z" fill="#9BE1DE"/>
<path d="M119.921 37.6654C120.548 37.5701 121.186 37.5701 121.813 37.6654C124.746 38.7693 129.57 34.8135 130.516 39.0821C131.462 43.3508 125.994 42.8908 123.175 43.7188C122.967 47.7114 131.406 46.0739 127.754 51.1889C124.708 55.4575 124.48 63.2221 115.853 61.5109L117.953 54.1512C120.488 48.981 117.007 42.9644 119.921 37.6654Z" fill="#72C5C4"/>
<path d="M117.858 26.7154C125.294 27.709 127.981 24.2499 127.319 17.3869C127.054 14.4062 127.205 11.3887 127.167 8.38965C130.951 13.9095 131.159 20.11 130.951 26.3842C130.8 35.1607 128.019 36.5959 119.712 32.2536C118.558 32.1248 118.445 31.0393 117.82 30.4137C117.953 29.1625 117.896 27.985 117.858 26.7154Z" fill="#70CBC7"/>
<path d="M117.991 30.374L119.883 32.214C119.883 34.0539 119.883 35.8938 119.883 37.6234C118.71 43.1432 121.775 49.0862 117.991 54.2748V30.374Z" fill="#9BE1DE"/>
<path d="M161.717 104.193C176.721 100.513 187.904 91.4975 197.421 80.1267C203.097 80.8259 198.708 84.8737 199.9 86.9161C203.684 83.7146 203.683 78.4524 206.616 74.6621C209.87 76.502 216.588 76.3365 214.752 81.4331C212.614 87.3577 210.968 95.0486 204.062 97.3669C203.101 97.5781 202.195 97.9795 201.401 98.5461C200.607 99.1128 199.941 99.8325 199.445 100.66C194.034 108.241 184.8 110.522 177.005 114.699C175.557 115.36 173.935 115.57 172.36 115.3C170.785 115.03 169.335 114.293 168.207 113.19C167.488 112.528 167.563 110.522 165.652 111.35C164.158 112.068 166.863 117.809 161.66 114.331C157.157 111.314 163.552 108.443 161.338 105.665C160.733 105.15 160.582 104.763 160.903 104.469C161.13 104.282 161.42 104.183 161.717 104.193V104.193Z" fill="#6DC9C4"/>
<path d="M78.0864 137.018C79.5054 134.921 81.7192 135.326 83.7626 135.178C83.2139 136.853 82.0032 138.674 84.444 139.852C85.7874 140.496 86.7145 139.852 87.2632 138.49C87.9822 136.742 84.9168 132.97 89.8551 133.522C94.7935 134.074 92.8069 137.975 93.242 140.698C86.6386 152.179 54 157.497 44.0476 154.994C37.8605 153.431 37.463 151.149 41.4931 142.63C43.8582 145.096 40.1121 147.672 43.1395 153.191C42.2313 139.686 49.5726 139.852 57.368 140.735C59.7331 142.023 53.9242 145.206 57.5759 144.691C64.7848 143.752 73.1858 144.36 78.0864 137.018Z" fill="#70CBC7"/>
<path d="M36.4995 105.777C32.25 103.949 28.1121 101.884 24.1062 99.5946C21.0977 97.7547 17.2379 95.4732 17.9947 91.1493C18.6948 87.1199 23.6711 86.8255 26.074 83.992C27.5499 82.152 28.5714 83.7528 29.6688 84.9487C33.7936 89.5118 38.0511 93.9828 42.2515 98.4723C42.384 102.428 41.4189 105.574 36.4995 105.777Z" fill="#75D1CD"/>
<path d="M106.582 153.56C108.504 148.344 108.974 142.726 107.944 137.276C109.742 146.476 119.126 140.459 123.459 144.636C122.991 148.246 122.257 151.818 121.265 155.326C120.262 158.252 119.827 162.925 115.21 162.171C105.75 160.644 116.78 166.623 112.523 167.01C106.544 166.071 107.131 162.024 108.436 157.332C108.758 156.099 113.167 151.83 106.582 153.56Z" fill="#74CFCB"/>
<path d="M140.412 76.1763L145.937 63.5176C150.724 66.4983 156.401 66.5903 162.02 67.9518C158.349 74.87 155.795 82.8921 147.205 84.5113C141.964 85.5968 143.856 78.2371 140.412 76.1763Z" fill="#76CECB"/>
<path d="M53.4888 50.6885C56.4973 52.8412 56.7809 56.0979 57.5756 59.3178C59.146 65.684 61.1897 71.9397 63.0251 78.2323C63.271 80.1827 58.5785 80.8818 61.9464 83.8625C66.4875 87.8368 62.4007 88.5176 59.2219 89.2351C53.7349 82.6666 51.6537 74.5157 48.002 67.0087C55.4379 63.3472 49.2505 55.3987 53.4888 50.6885Z" fill="#68C8C4"/>
<path d="M161.319 39.5959C161.491 42.2857 162.336 44.8942 163.779 47.1948C165.671 51.3714 166.617 56.3945 163.193 60.0743C160.071 63.3126 155.624 61.6935 151.84 59.8535C147.753 53.6898 150.856 47.6916 152.843 41.9694C154.186 38.2527 157.762 37.7375 161.319 39.5959Z" fill="#84DEDC"/>
<path d="M76.5918 104.083C85.2576 104.083 93.2611 104.083 101.189 104.083C102.136 103.972 103.092 104.198 103.882 104.719C104.671 105.24 105.24 106.02 105.484 106.917C105.9 109.456 103.308 109.345 101.7 109.971C92.1448 113.688 82.7222 111.59 76.5918 104.083Z" fill="#75D1CF"/>
<path d="M206.295 64.9489C207.619 61.9682 208.963 59.0059 210.287 56.0252C213.636 59.4107 216.247 49.5119 219.067 55.2893C221.205 59.6315 220.316 64.8201 219.294 69.5304C218.651 72.4191 216.058 71.2231 213.92 71.0759C209.758 70.7999 209.114 66.6233 206.295 64.9489Z" fill="#85CBC7"/>
<path d="M161.32 39.5923C153.751 38.5988 153.751 44.4497 152.824 48.9576C152.292 52.5421 151.988 56.1553 151.916 59.7764C147.394 57.0901 148.605 63.0883 146.069 63.4563C148.302 53.5206 148.245 43.033 153.638 33.8701L161.32 39.5923Z" fill="#7BB8B7"/>
<path d="M111.444 95.3841C117.745 93.857 124.065 94.9425 130.365 94.7585C131.803 94.7585 133.771 94.5745 133.941 96.7089C133.891 97.589 133.498 98.4176 132.844 99.0272C129.04 102.56 115.039 100.242 111.444 95.3841Z" fill="#8CEAE6"/>
<path d="M206.616 74.6666C206.616 83.6271 205.424 85.835 196.91 92.33C194.034 88.0982 201.11 84.2527 197.421 80.1312L202.7 72.7715L206.616 74.6666Z" fill="#94E3DD"/>
<path d="M155.36 32.0866C161.472 28.0572 165.521 30.9275 168.964 35.9137C163.875 36.4657 160.715 30.5779 155.36 32.0866Z" fill="#7BB8B7"/>
<path d="M11.9206 50.7471C12.6955 50.8097 13.4519 51.0092 14.1532 51.3358C18.3158 53.9486 19.4701 74.335 15.7048 77.4629C13.6424 79.1741 11.3528 80.9036 9.85809 77.2973C6.66045 69.6064 4.3902 61.7683 8.23115 53.5622C8.45684 52.7716 8.9365 52.0719 9.60033 51.5654C10.2642 51.0589 11.0773 50.7721 11.9206 50.7471Z" fill="#90EBE8"/>
<path d="M37.7276 143.31C36.1383 147.394 36.6492 152.509 29.27 149.565C24.1046 147.449 20.6042 143.678 16.0254 141.046C10.7654 137.974 13.2064 135.858 16.6878 133.963C19.2043 132.583 35.8927 138.599 37.1793 141.157C37.4685 141.845 37.6529 142.57 37.7276 143.31V143.31Z" fill="#82D8D4"/>
<path d="M78.0865 137.022C80.0921 138.531 79.6569 140.022 78.0865 141.585C73.5833 146.204 56.9706 148.08 50.5186 144.64C51.5024 141.254 55.9679 143.609 57.2735 140.794C64.558 141.181 70.9911 137.372 78.0865 137.022Z" fill="#8BE5E0"/>
<path d="M99.4301 164.784C104.69 164.564 107.131 167.195 106.999 170.139C106.715 175.419 100.735 175.088 97.3108 176.56C94.5861 177.738 91.4264 174.168 91.7292 170.948C92.1644 165.98 97.2921 166.201 99.4301 164.784Z" fill="#79D8D4"/>
<path d="M53.4896 50.6889C53.9059 53.3384 54.1707 56.0248 54.7761 58.6375C56.1006 64.1573 54.6629 67.5796 48.0027 67.0276L47.7755 55.5648C47.6998 51.7561 49.7433 50.2842 53.4896 50.6889Z" fill="#8FECE9"/>
<path d="M190.458 99.0449C184.252 108.686 176.476 108.024 166.183 107.196C174.735 102.89 181.016 99.1369 190.458 99.0449Z" fill="#93E4E2"/>
</g>
<defs>
<clipPath id="clip0_1551_778">
<rect width="229" height="183" fill="white"/>
</clipPath>
</defs>
</svg>
