<svg width="206" height="171" viewBox="0 0 206 171" fill="none" xmlns="http://www.w3.org/2000/svg">
<path d="M25.9563 106.263C24.2075 104.397 22.925 102.131 22.925 99.1986C23.9743 93.3336 27.8216 93.3336 31.7856 93.4669C34.4671 95.5996 36.7988 98.1322 39.2472 100.532C42.0452 103.331 44.6101 102.931 47.8746 99.9984C43.4443 97.4657 39.5969 94.6665 35.05 93.7335C31.2027 91.8673 26.0728 93.3336 23.6245 88.0017C24.6738 85.0692 27.8216 86.2689 29.5704 84.0028C26.0728 80.6704 21.8757 80.5371 17.6786 80.004C14.8805 76.9381 10.6834 77.6046 7.53554 75.4719C5.32039 73.8723 4.50428 71.473 4.3877 68.6738C4.85404 67.4741 4.62087 65.7413 5.67015 65.0748C9.98386 62.5422 11.9658 57.7435 14.2976 53.478C19.8937 50.1456 20.0103 55.4775 20.7098 59.2098C21.7591 59.0765 22.2255 58.5433 22.3421 58.0101C22.6918 55.4775 26.1894 53.7446 24.4406 51.212C22.5752 48.4128 19.8937 50.2789 17.6786 51.4786C16.3961 52.1451 15.1137 52.0118 13.7146 51.6119C12.0824 50.9454 10.8 51.3453 10.1004 53.2114C7.76871 55.6108 6.36967 54.0112 4.97063 51.7452C4.50428 50.6788 5.78674 49.7457 5.2038 48.6794C12.0824 45.2137 18.4947 40.415 25.1401 37.0826C34.8169 32.1506 43.0945 21.0871 55.4527 24.8194C58.0176 23.8863 59.7664 21.487 62.0982 20.154C63.847 19.0876 65.4792 18.2879 67.228 19.7541C67.9275 20.2873 68.5104 20.8205 69.0934 21.487C70.7256 23.0865 71.5417 24.5528 70.1427 27.0854C67.8109 31.6175 69.0934 34.1501 73.6403 34.8166C75.972 35.0832 78.3037 34.6833 80.0525 37.0826C84.1331 45.2137 84.8326 54.1445 84.716 63.2086C83.0838 69.0737 79.5862 67.3408 76.0886 66.1412C74.4564 63.6085 74.8061 60.676 74.6895 57.8768C74.4564 52.9448 72.9407 48.8127 68.7436 46.6799C67.228 45.2137 65.9455 43.6141 65.4792 41.3481C64.3133 36.0162 61.2821 34.4167 56.8518 35.3498C54.0537 35.3498 51.4888 31.3509 48.5741 35.0832C46.5921 37.8824 45.3097 40.8149 47.1751 44.4139C47.758 45.4803 47.758 46.9465 46.7087 48.0129C44.2604 51.3453 46.3589 56.4105 43.4443 59.6097C41.4623 60.9426 40.0633 60.1428 39.1306 57.8768C38.431 53.6113 38.6642 49.0793 37.032 44.9471C36.2159 42.681 35.05 39.8818 32.4851 41.4814C30.3866 42.8143 32.4851 44.8138 33.1846 46.5466C34.9334 50.8121 37.4984 55.0776 34.4671 60.0095C33.4178 60.676 32.3685 60.8093 31.2027 60.5427C28.1714 60.676 24.0909 65.4747 25.1401 68.4072C26.306 71.2064 27.3553 67.874 28.5212 67.6074C30.1534 66.6743 31.9022 66.6743 33.651 66.6743C34.1173 66.8076 34.7003 66.9409 35.1666 67.0742C37.2652 68.0073 39.8301 68.2739 41.3457 70.5399C41.9287 74.1389 40.2964 76.9381 38.7808 79.7374C38.3145 80.6704 37.4984 81.7368 38.5476 82.6699C39.3637 83.3364 40.413 83.2031 41.3457 82.8032C44.9599 81.2036 46.0092 75.2053 43.0945 72.1395C42.395 71.473 41.5789 70.8065 40.8794 70.0067C39.7135 66.1412 41.6955 63.2086 42.9779 60.0095C45.6594 58.41 46.8253 56.0107 46.5921 52.545C46.4755 50.4122 45.8926 48.1462 47.8746 46.5466C50.0897 45.4803 52.3049 45.6136 54.52 46.8132C58.3674 52.4117 56.6186 58.5433 56.2688 64.6749C56.2688 65.3414 55.6859 66.1412 54.7532 66.6743C49.5068 69.4736 48.5741 71.473 51.2556 76.9381C52.5381 79.4708 52.4215 81.8701 52.1883 84.8026C56.8518 78.1378 57.4347 78.0045 62.4479 81.7368C64.0801 86.6688 59.9996 89.0681 58.7172 92.6671C58.0176 94.7998 54.52 96.7993 57.4347 99.1986C59.7664 101.198 62.5645 100.132 64.5465 97.3325C65.3626 96.1328 66.1787 94.9331 66.9948 93.6002C71.5417 86.2689 71.4251 85.7357 64.0801 82.9365C63.4972 82.6699 63.0309 82.27 62.6811 81.8701C62.3313 81.3369 61.9816 80.5371 62.2148 80.1373C64.8963 74.2722 63.4972 69.207 59.6498 64.8082C59.7664 58.2767 59.9996 51.6119 62.4479 45.4803C64.3133 44.1473 66.0621 44.014 67.9275 45.347C71.3085 49.2126 69.9095 54.1445 69.9095 58.6766C69.9095 67.2075 69.7929 67.2075 76.5549 69.4736C77.4876 70.4066 77.8374 71.7396 77.4876 73.0726C75.972 79.3375 78.6535 81.8701 83.5501 82.9365C84.8326 84.0028 86.2316 84.0028 87.7473 83.3364C93.8098 83.7362 98.7064 82.5366 100.572 74.4055C101.505 70.0067 101.621 67.4741 96.9576 67.4741C95.5586 67.4741 94.2761 66.9409 93.46 65.4747C92.9937 64.4083 92.6439 63.3419 92.8771 62.2756C94.3927 54.1445 93.46 46.0134 92.1776 38.0157C93.3434 33.0837 97.3074 34.4167 100.222 33.3503C97.7737 25.086 92.7605 21.2204 84.5994 21.6203C84.0165 21.487 83.4335 21.0871 82.9672 20.6872C79.8194 14.8222 80.0525 13.6225 84.8326 10.1568C90.1956 6.2912 96.4913 5.49142 102.321 3.75857C109.549 1.35924 117.244 0.692763 124.938 1.35924C124.006 4.42505 124.006 4.29176 120.625 5.22483C111.065 7.89075 101.271 10.1568 91.9444 15.7552C94.8591 18.0213 97.7737 19.4875 100.105 21.8868C102.437 24.1529 104.886 22.9532 107.217 21.8868C111.181 20.154 115.029 17.7547 119.575 19.7541C124.589 24.5528 126.804 31.0843 127.62 38.2823C127.27 42.0146 124.822 43.3475 122.14 44.1473C118.993 45.0804 115.845 46.0134 112.58 46.5466C109.432 46.1467 109.549 41.748 106.634 39.8818C106.634 48.1462 107.334 55.7441 106.634 63.3419C106.518 64.9415 107.334 65.8746 108.616 65.8746C110.132 65.8746 110.365 64.5416 110.715 63.2086C111.414 60.0095 109.666 56.0107 112.93 53.478C113.979 53.8779 114.562 54.811 114.679 55.8774C115.145 60.4094 117.593 60.5427 120.858 60.1428C124.356 59.7429 128.086 58.9432 131.467 61.6091C134.615 75.072 131.934 87.8684 127.737 100.265C127.154 101.198 126.337 101.865 125.405 102.398C118.643 102.798 111.764 102.531 105.002 101.331C102.437 98.932 104.769 96.5327 105.119 94.1333C105.352 92.1339 107.334 89.7346 105.352 88.135C103.486 86.5355 100.922 87.2019 98.7064 88.135C97.424 88.6682 96.4913 89.8679 95.9083 91.3341C92.1776 99.4652 86.2316 105.464 80.5189 111.728C79.5862 112.528 78.6535 113.061 77.4876 113.061C74.3398 111.995 71.1919 110.395 68.627 108.263C64.6631 105.064 61.2821 105.597 57.3181 107.863C52.4215 110.662 52.3049 111.595 56.1522 116.394C57.901 118.527 60.9323 119.859 59.9996 123.858C51.2556 130.123 42.6282 127.724 34.0007 123.592C31.4358 119.46 31.2027 114.394 29.5704 109.862C32.2519 107.596 35.1666 109.729 37.9647 109.462C39.9467 109.329 42.0452 109.729 44.0272 108.663C38.0813 107.863 31.5524 110.929 25.9563 106.263Z" fill="#C06BB0"/>
<path d="M34.1182 123.59C37.3826 124.123 40.5304 124.523 43.6783 125.19C49.391 126.523 54.754 125.59 60.0004 123.19C60.7 122.39 61.6327 122.257 62.4488 122.524C66.1795 125.59 70.4933 127.456 74.9236 129.189C77.1387 129.988 80.0534 130.388 80.0534 134.254C77.2553 138.519 78.188 142.252 80.8695 146.25C86.3491 154.915 94.1604 159.18 102.904 160.913C114.097 163.179 125.522 164.512 136.948 163.979C143.593 163.712 149.889 161.846 156.068 159.313C159.799 157.447 163.646 155.981 167.61 154.781C177.403 152.649 185.098 146.917 190.578 137.32C191.277 136.12 192.56 134.654 191.394 133.187C190.228 131.721 188.945 133.187 187.78 133.721C184.982 135.187 183 138.386 179.619 138.119C177.403 136.92 177.403 134.387 176.937 132.254C176.82 130.655 177.054 128.789 178.336 128.255C184.632 125.323 189.412 119.858 195.241 116.259C196.407 117.458 197.34 118.925 198.739 119.724C207.016 124.523 206.9 131.055 202.353 139.719C198.039 147.983 191.51 153.448 184.282 157.98C166.911 169.044 148.14 172.376 128.67 170.51C115.729 169.311 102.788 168.111 90.1964 164.112C83.2012 161.979 76.5558 158.914 71.5425 152.515C70.7264 151.582 69.9103 150.516 69.3274 149.45C66.2961 144.118 61.3995 140.385 55.6867 139.586C46.1266 138.653 38.3153 134.254 34.1182 123.59Z" fill="#A85698"/>
<path d="M180.201 40.5471C183.815 48.145 186.846 56.0094 188.245 64.5404C186.38 68.5393 183.232 66.9397 180.55 66.6731C175.071 66.0066 174.371 66.6731 175.187 72.938C176.004 80.0027 176.47 86.9341 175.421 93.9988C175.187 94.6653 174.838 95.3318 174.371 95.865C168.192 99.5973 161.663 100.264 154.901 99.8639C154.318 99.464 153.852 98.9308 153.619 98.2643C153.153 86.2677 150.704 74.5376 150.354 62.541C154.318 58.1422 159.099 60.8081 163.529 60.9414C170.641 61.0747 170.757 61.208 169.008 53.0769C168.076 48.6782 166.094 44.4127 166.094 39.7473C168.659 36.9481 171.457 39.2141 174.138 39.3474C176.12 39.4807 177.986 40.947 180.201 40.5471Z" fill="#C06AB0"/>
<path d="M195.358 116.528C191.861 122.26 186.964 125.859 181.368 128.258C179.386 129.058 177.87 129.858 177.754 132.523C175.772 132.923 174.956 131.057 173.79 129.858C170.992 126.392 169.826 122.126 170.292 117.594C170.992 109.996 170.642 102.132 174.14 95.2005L174.256 95.0672C175.422 92.1347 177.87 91.0684 180.202 90.1353C185.332 88.1358 186.381 84.137 185.215 78.5385C184.866 76.5391 184.166 74.6729 183.933 72.6735C183.7 70.9406 183.467 68.8079 185.215 68.1414C187.314 67.3416 187.664 69.4744 188.363 71.0739C189.646 74.273 190.462 77.7387 190.695 81.3377C190.812 82.2708 190.462 81.2044 190.928 81.8709C191.161 82.4041 191.628 82.1375 191.861 81.471C193.493 86.9362 194.076 92.6679 194.076 98.3996C194.076 104.665 194.542 110.53 195.358 116.528Z" fill="#BB68AB"/>
<path d="M119.459 20.5541C114.562 19.6211 110.248 22.0204 106.168 24.2864C103.02 26.0193 101.038 25.4861 98.4729 22.8202C96.0246 20.1543 92.7601 18.4214 89.6123 15.8888C94.9753 11.2234 100.921 8.82408 107.1 7.09123C113.163 5.35839 119.225 3.62554 125.171 1.75939C129.485 0.0265408 133.566 3.22565 137.879 2.02598C138.812 1.89269 139.745 1.89269 140.444 2.95906C142.776 5.75827 146.39 5.35839 148.838 7.75772C150.937 9.75716 153.502 11.6233 153.852 15.2223C152.919 19.3545 150.237 18.9546 147.439 18.688C142.31 18.1548 137.063 17.6216 132.05 19.3545C129.368 20.2875 127.736 18.0215 126.104 16.2887C122.49 12.823 118.176 11.0901 112.93 10.5569C114.912 14.8224 119.692 15.7555 119.459 20.5541Z" fill="#CD77BE"/>
<path d="M191.861 81.7347C191.744 82.6678 191.628 83.4676 191.395 86.1335C189.063 79.602 189.18 73.6037 185.682 68.4051C184.166 73.6037 187.198 77.2027 187.198 81.4681C187.314 86.1335 187.314 89.4659 182.534 90.7988C179.619 91.5986 176.938 93.7314 174.256 95.1976C174.373 86.1335 174.14 77.2027 173.091 68.1385C172.741 64.9394 173.324 63.6065 176.938 64.1396C180.552 64.6728 184.4 67.6053 188.13 64.6728C189.296 70.4046 191.861 75.6031 191.861 81.7347Z" fill="#A85598"/>
<path d="M180.198 40.5496C179.965 41.8826 179.615 43.4822 178.1 42.5491C174.369 40.0165 169.939 40.9495 166.208 39.0834C165.975 38.8168 165.741 38.6835 165.625 38.4169C163.643 33.6182 161.777 28.6863 159.096 24.2875C158.047 22.688 157.231 20.8218 157.814 18.6891C159.096 16.5563 160.728 15.3567 163.06 16.1565C170.871 22.4214 176.234 30.9523 180.198 40.5496Z" fill="#A85699"/>
<path d="M138.111 2.15834C133.798 4.82426 129.601 2.15834 125.403 1.89174C112.696 0.292191 101.037 5.62404 89.145 8.82314C82.6161 10.556 81.1005 14.4216 83.4322 20.5532C82.0332 22.0195 80.5176 21.353 79.1185 20.8198C75.1546 19.0869 71.1906 20.02 67.2267 20.6865C63.8456 18.1539 61.8637 21.6196 59.8817 23.4857C58.3661 24.952 57.55 26.1516 55.6846 24.6854C56.7339 22.5526 58.3661 20.8198 60.348 19.8867C81.4503 9.35633 102.436 -1.97384 126.686 0.292191C130.533 0.692079 134.381 0.958672 138.111 2.15834Z" fill="#BF6DAF"/>
<path d="M7.5332 75.2064C11.3806 75.473 15.8109 73.4735 18.1426 79.2053C15.5777 82.0045 15.4611 84.2705 19.3085 85.4702C20.9407 86.0034 22.6895 85.6035 23.9719 87.3363C27.1198 91.2019 32.133 90.0023 35.7472 92.6682C35.2809 95.6007 33.8818 94.9342 32.2496 94.0012C29.2184 95.8673 24.7881 94.401 23.0392 99.1997C22.3397 96.1339 21.407 93.6013 18.4924 92.135C15.5777 90.802 13.3625 88.0028 12.663 84.4038C11.7303 80.5382 9.98153 77.739 7.5332 75.2064Z" fill="#AA5C9B"/>
<path d="M9.98376 52.5423C9.75059 51.476 8.46813 50.2763 9.51742 49.2099C10.9165 47.7437 12.1989 49.4765 13.4814 49.8764C14.2975 51.0761 15.4633 52.0091 14.6472 53.8753C14.4141 61.7397 8.11837 63.8725 4.3876 68.5378C4.03784 67.3382 4.03784 65.8719 3.33831 64.9389C-1.55833 57.6076 -1.20857 54.1419 5.32029 48.6767C9.16766 49.6098 4.73736 50.4096 5.32029 51.3427C5.55346 53.6087 2.98855 55.4748 4.50418 58.4073C7.06909 57.341 9.05107 55.6081 9.98376 52.5423Z" fill="#A7599B"/>
<path d="M162.948 16.2852C161.316 17.2183 159.567 18.1513 157.935 19.2177C155.02 19.0844 154.904 15.752 153.271 13.8859C151.173 11.7531 148.958 9.75367 146.859 7.62093C144.994 5.62149 141.263 7.08775 140.563 3.08887C148.841 5.75479 156.769 9.22049 162.948 16.2852Z" fill="#B36DA6"/>
<path d="M25.9551 106.263C31.3181 107.596 36.6811 107.862 42.1606 106.129C43.2099 105.73 44.7256 106.663 46.008 107.329C47.0573 107.862 48.2232 108.529 47.7568 110.262C47.4071 111.595 46.1246 111.328 45.3085 111.328C40.0621 111.461 34.9323 111.595 29.8024 109.995C28.1702 109.062 26.7712 107.996 25.9551 106.263Z" fill="#A7579B"/>
<path d="M125.286 101.867C125.636 101.467 126.103 100.934 126.452 100.534C135.779 99.2009 144.99 97.468 154.433 99.2009C157.464 104 155.482 109.065 154.783 113.863C153.5 122.528 150.119 130.126 144.29 136.124C132.748 142.389 122.605 140.256 116.309 130.126C113.744 118.395 119.457 110.131 125.286 101.867Z" fill="#D994CD"/>
<path d="M154.432 99.1993C145.105 100.799 135.895 101.999 126.451 100.532C130.299 88.0024 131.814 75.206 131.115 61.8764C130.765 61.0766 130.881 60.5434 131.464 60.1435C137.294 59.7437 143.123 60.2768 148.952 59.877C150.002 60.1435 150.585 60.81 150.934 61.8764C153.033 74.2729 155.248 86.5362 154.432 99.1993Z" fill="#D08AC5"/>
<path d="M125.286 101.863C123.887 105.462 122.721 109.061 120.506 112.394C117.242 117.459 116.426 123.591 117.125 129.855C110.246 131.988 98.3546 125.99 94.3906 118.392C97.5385 112.394 98.7043 104.796 104.417 100.53C111.412 100.664 118.407 100.13 125.286 101.863Z" fill="#CE78BD"/>
<path d="M104.302 100.533C100.572 105.865 99.7555 113.329 94.9754 117.861C94.5091 118.394 94.0427 118.661 93.3432 118.661C90.1954 117.728 87.0475 116.795 83.8997 115.728C81.9177 115.062 79.4694 114.795 79.9358 111.196C85.4153 103.599 92.0608 97.2003 96.3745 88.2695C98.473 83.7374 103.37 85.8701 107.1 86.27C108.966 86.5366 108.5 88.5361 108.033 90.0023C106.751 93.6013 105.585 97.067 104.302 100.533Z" fill="#A95599"/>
<path d="M119.459 20.5528C117.477 18.2868 115.728 15.6209 113.28 13.888C112.231 13.2216 110.132 12.4218 111.414 10.0225C112.464 8.15631 113.979 8.5562 115.495 8.95609C121.674 10.4223 126.687 14.1546 131.118 19.2199C136.714 24.1518 142.077 29.2171 141.727 38.4145C137.53 41.4803 132.866 42.4134 127.97 42.2801C126.221 41.347 127.62 38.9477 126.454 37.8813C125.288 31.6164 122.723 25.8847 119.459 20.5528Z" fill="#D08AC4"/>
<path d="M79.8185 111.196C81.4507 115.062 85.0649 114.262 87.7464 114.929C90.0781 115.462 91.9435 116.528 93.8089 117.861C94.1587 118.394 94.5084 118.927 94.5084 119.594C94.1587 124.792 84.7151 133.857 79.8185 133.857C76.9038 130.524 72.8233 130.391 69.2091 128.791C66.411 127.592 63.7295 126.392 62.2139 123.326C66.2944 117.861 71.774 115.195 77.3702 112.663C78.3029 112.129 79.119 111.729 79.8185 111.196Z" fill="#BA68AB"/>
<path d="M83.4346 63.2099C83.2014 54.0125 82.3853 44.9484 78.7712 36.5507C78.3048 35.8842 78.4214 35.2177 79.0043 34.6846C82.9683 33.085 86.8156 31.752 91.1293 32.9517C92.4118 33.7515 92.8781 34.9511 92.8781 36.5507C96.1426 46.148 94.8601 56.0119 94.044 65.8758C94.9767 67.2088 94.5104 68.1419 93.3445 68.9417C90.5464 67.742 87.5152 67.4754 84.9502 65.6093C84.1341 64.9428 83.901 64.0097 83.4346 63.2099Z" fill="#D089C3"/>
<path d="M126.572 37.8809C127.971 38.8139 127.621 40.4135 127.737 41.8797C132.401 47.2116 131.818 53.8764 131.235 60.5412C131.235 60.9411 131.235 61.4743 131.235 61.8742C126.572 62.1408 121.908 61.0744 117.361 62.8072C114.913 63.7403 113.747 62.274 113.747 59.3415C113.747 57.4754 114.213 55.3426 112.698 53.7431C110.716 51.0772 110.716 48.5446 112.581 45.8786C114.796 43.7459 117.478 43.7459 120.043 42.9461C122.608 42.2796 126.222 42.5462 126.572 37.8809Z" fill="#CD77BD"/>
<path d="M77.6016 112.528C73.2879 117.46 67.5752 119.993 62.4453 123.192C61.6292 123.192 60.9297 123.192 60.1136 123.192C57.6653 120.126 55.217 117.06 52.6521 114.128C50.2037 111.328 51.0198 109.862 53.7013 108.129C62.4453 102.398 67.1088 103.197 77.6016 112.528Z" fill="#CE77BD"/>
<path d="M55.3369 65.8725C54.7539 59.6076 56.6193 53.2094 54.171 47.211C50.79 43.4787 47.8753 39.4799 47.1758 33.8814C50.3236 27.4832 53.3549 33.2149 56.5027 33.8814C60.4667 36.6806 63.3814 40.013 62.3321 45.8781C62.0989 52.6762 61.3994 59.341 60.0003 65.8725C61.7491 69.2049 60.3501 71.6042 58.1349 73.7369C57.2023 74.67 55.9198 74.8033 55.1037 73.6037C53.4715 71.071 53.7046 68.4051 55.3369 65.8725Z" fill="#D48BC9"/>
<path d="M91.4754 33.8825C87.1617 34.2824 82.9646 34.8156 78.6509 35.2154C75.1533 33.3493 72.4718 30.0169 72.122 25.8847C71.7723 22.2857 69.7903 22.6856 68.1581 21.8858C67.8083 21.4859 67.4585 20.9528 66.9922 20.5529C70.3732 16.1541 74.5703 17.8869 78.5343 18.5534C80.1665 18.82 81.6821 19.7531 83.3144 20.4196C83.6641 20.4196 84.1305 20.5529 84.4802 20.5529C90.3096 24.5518 92.4081 28.5506 91.4754 33.8825Z" fill="#D893CC"/>
<path d="M55.3376 65.8755C55.3376 68.2748 55.3376 70.5409 55.3376 73.6067C58.9518 71.8738 60.0011 69.2079 60.0011 65.8755C66.53 69.7411 66.53 69.7411 62.3328 81.871C58.4855 80.1382 55.3376 79.7383 54.1718 85.7366C53.9386 87.2029 52.8893 88.6691 51.1405 87.8693C49.3917 86.9363 49.042 85.0701 50.0912 83.4706C51.84 80.9379 51.1405 79.7383 49.3917 77.4722C46.9434 74.4064 48.2258 70.4076 49.3917 66.9419C50.9073 62.6764 53.5888 67.0752 55.3376 65.8755Z" fill="#CD78BC"/>
<path d="M62.4482 81.8689C65.9458 81.7356 70.6093 81.469 72.0083 84.4015C73.4074 87.4673 70.0263 91.4662 68.0444 94.6653C65.3629 99.0641 62.9145 103.729 56.9686 101.33C54.2871 100.264 52.5383 99.5973 54.9866 95.7317C57.6681 91.4662 60.9326 87.334 62.4482 81.8689Z" fill="#A95599"/>
<path d="M112.464 46.0138C112.464 48.6797 112.58 51.3457 112.58 53.8783C112.58 57.344 112.464 60.943 112.58 64.4087C112.58 67.0746 111.998 68.8075 109.316 68.5409C106.751 68.2743 105.002 67.3412 105.236 63.7422C105.585 56.2776 106.401 48.813 104.536 41.4818C104.07 39.7489 104.536 37.6162 106.285 37.2163C108.034 36.8164 109.782 37.8828 110.132 40.1488C110.482 42.4148 110.948 44.4143 112.464 46.0138Z" fill="#A95598"/>
<path d="M92.76 68.537C93.6927 68.0038 93.9259 66.9375 93.9259 65.8711C104.419 65.8711 104.885 67.2041 100.688 78.4009C97.6566 86.532 92.1771 84.5325 86.9307 84.5325C87.2804 78.5342 89.2624 73.2024 92.76 68.537Z" fill="#CC78BC"/>
<path d="M68.2754 45.8777C75.0374 44.5448 75.3871 50.6764 76.3198 55.475C76.9028 58.8074 76.4364 62.4064 76.553 65.8721C77.4857 67.2051 77.4857 68.5381 76.4364 69.7377C68.0422 70.6708 67.809 70.2709 68.2754 61.0735C68.3919 56.1415 68.2754 51.0763 68.2754 45.8777Z" fill="#A85599"/>
<path d="M34.3511 59.2103C35.1672 54.4116 34.2345 50.0129 31.553 46.4139C29.5711 43.8812 28.6384 41.4819 31.0867 39.2159C33.8848 36.8165 36.3331 38.816 37.7321 41.7485C39.8307 46.2806 40.4136 51.3458 40.1805 56.4111C38.898 58.2772 40.6468 60.1434 40.1805 62.1428C39.4809 65.6085 38.1985 68.2744 34.3511 67.0748C32.6023 64.5421 32.6023 61.8762 34.3511 59.2103Z" fill="#D489C8"/>
<path d="M91.4786 33.884C91.2454 28.0189 86.582 25.0864 84.4834 20.5544C91.5952 17.7551 99.6397 24.2867 102.205 34.817C99.0567 35.8834 95.5591 34.2839 92.7611 36.5499C91.7118 36.0167 91.5952 34.9503 91.4786 33.884Z" fill="#CD77BE"/>
<path d="M76.3208 69.8714C76.3208 68.5384 76.3208 67.2054 76.4374 66.0058C78.0696 62.5401 82.4999 69.0716 83.4326 63.3398C83.7824 63.7397 84.2487 64.2729 84.5985 64.6728C87.7464 71.6042 85.881 78.1357 83.4326 84.6672C82.4999 84.2673 81.6838 83.4675 80.7511 83.4675C74.572 83.6008 74.6886 79.3354 75.6213 74.2701C75.9711 72.8039 76.0877 71.3376 76.3208 69.8714Z" fill="#CC78BC"/>
<path d="M23.8585 87.3325C21.7599 87.3325 19.6614 87.3325 17.5628 87.0659C14.5316 86.666 14.0652 83.4669 14.0652 81.2009C13.9486 78.2684 16.6301 79.7346 18.1457 79.2015C23.5087 75.7358 27.4727 81.6008 32.1362 82.4006C34.0016 82.8004 32.4859 84.9332 31.2035 85.4664C28.7551 86.666 26.4234 87.5991 23.8585 87.3325Z" fill="#C973BB"/>
<path d="M83.4346 84.5335C83.7843 77.8687 84.2507 71.2039 84.6004 64.5391C87.1654 66.4052 91.2459 63.8726 92.7615 68.5379C91.3625 74.1364 89.3805 79.4682 86.9322 84.5335C85.6497 85.3332 84.6004 85.4665 83.4346 84.5335Z" fill="#DA90CD"/>
<path d="M32.1328 94.0011C33.4153 93.8678 34.8143 94.1344 35.6304 92.6681C40.7602 92.1349 44.2578 97.2002 49.0379 98.1333C51.2531 98.5331 50.3204 100.266 49.3877 101.599C46.8228 104.931 41.3432 105.465 38.7783 101.999C36.5631 99.0663 32.4826 98.5331 32.1328 94.0011Z" fill="#CC76BC"/>
<path d="M41.3442 69.875C45.075 70.0083 47.9897 71.0747 47.057 76.4065C46.0077 82.4048 42.1604 85.7372 37.8466 84.5376C35.2817 83.8711 35.1651 82.0049 36.6808 80.2721C39.2457 77.3396 40.0618 73.474 41.3442 69.875Z" fill="#A85599"/>
<path d="M14.6483 53.8778C14.2985 52.5449 13.9488 51.2119 13.4824 49.879C15.1146 50.0123 16.7469 51.0786 18.2625 49.0792C20.944 45.4802 24.4416 47.7462 26.5401 49.4791C28.9885 51.6118 26.4236 53.8778 24.7913 55.744C23.9752 56.6771 23.9752 58.5432 23.3923 59.8762C22.6928 61.4757 21.4103 61.8756 19.8947 61.609C18.0293 61.2091 18.0293 59.7429 18.6122 58.1433C20.2445 53.2114 17.9127 53.0781 14.6483 53.8778Z" fill="#D281C4"/>
<path d="M68.2749 21.8873C70.49 21.8873 72.8218 20.2877 73.2881 25.2197C73.6379 28.6854 76.7857 31.8845 78.7677 35.2169C78.7677 35.6168 78.7677 36.1499 78.7677 36.5498C75.3867 35.4835 71.3061 38.0161 68.2749 33.484C66.5261 30.6848 65.2436 28.6854 68.2749 26.6859C71.1895 24.8198 69.5573 23.4868 68.2749 21.8873Z" fill="#CD7CBE"/>
<path d="M62.4504 45.8821C61.2846 41.35 59.0694 37.4844 56.6211 33.8854C64.8988 32.4192 64.8988 32.4192 68.2798 45.8821C66.2978 45.8821 64.3158 45.8821 62.4504 45.8821Z" fill="#CA77B9"/>
<path d="M29.8024 67.2086C28.9863 68.4083 28.1702 69.7412 27.4707 71.0742C26.6546 72.5404 25.6053 72.2738 24.556 71.6074C23.3901 70.9409 22.4574 69.7412 23.157 68.4083C24.7892 65.3424 25.3721 61.8767 26.7712 58.6776C28.1702 55.6118 29.8024 56.8115 30.9683 59.2108C32.7171 62.2766 31.7844 64.8093 29.8024 67.2086Z" fill="#A85599"/>
<path d="M47.175 33.8838C49.0404 38.6824 53.2376 41.8816 54.1702 47.2134C51.8385 47.2134 49.5068 47.2134 47.175 47.2134C44.9599 42.8146 42.7447 38.4159 47.175 33.8838Z" fill="#CB77BB"/>
<path d="M82.2676 95.4654C81.2183 99.331 78.0705 102.263 75.2724 105.596C75.0392 105.862 73.7568 105.463 73.2904 104.929C72.5909 103.996 72.9407 102.797 73.5236 101.997C75.5056 99.1977 78.4203 96.9316 79.2364 93.066C79.353 92.5329 80.5188 91.8664 81.1018 91.9997C82.3842 92.2663 82.0344 93.5992 82.2676 95.4654Z" fill="#D483C6"/>
<path d="M9.98513 52.5459C11.7339 57.4778 7.42022 58.011 5.55483 60.1437C4.73872 61.0768 2.64016 61.0768 2.17381 59.0774C1.3577 55.745 2.75674 53.079 5.20507 51.2129C6.7207 51.8794 7.88656 54.2787 9.98513 52.5459Z" fill="#C471B8"/>
<path d="M43.6763 59.2109C43.6763 56.4117 43.7928 53.6125 43.6763 50.8133C43.5597 47.8808 44.8421 46.9477 47.1739 47.2143C48.8061 50.0135 48.4563 53.2126 48.3397 56.2784C48.2231 60.144 46.5909 61.0771 43.6763 59.2109Z" fill="#AC569B"/>
<path d="M34.4688 67.2067C40.6479 66.6735 37.9664 59.7421 40.2981 56.543C40.4147 59.2089 42.0469 59.2089 43.7957 59.2089C44.4952 63.2078 41.9303 66.1403 41.464 69.8726C38.899 69.7393 36.4507 69.2061 34.4688 67.2067Z" fill="#CC79BC"/>
<path d="M35.397 72.5381C34.4643 75.204 33.6482 78.1365 30.6169 78.9363C29.5677 79.2029 28.635 78.2698 28.8681 77.0702C29.4511 73.871 31.6662 72.0049 33.8814 70.4054C34.9306 69.8722 35.397 71.0718 35.397 72.5381Z" fill="#CC79BC"/>
<path d="M29.8018 67.2058C30.1515 64.5398 30.5013 61.8739 30.9676 59.208C32.1335 59.208 33.2994 59.208 34.4652 59.208C34.4652 61.8739 34.4652 64.5398 34.4652 67.2058C32.833 67.2058 31.3174 68.5387 29.8018 67.2058Z" fill="#CC79BC"/>
<path d="M19.778 64.5391C19.1951 68.1381 18.1458 70.5374 15.3477 71.0706C13.9487 71.3372 13.2491 69.8709 13.5989 68.5379C14.2984 64.6724 17.0965 65.4721 19.778 64.5391Z" fill="#DC89CB"/>
<path d="M79.9347 133.855C85.2976 129.323 92.0597 126.39 93.9251 117.859C94.2748 117.859 94.6246 117.859 95.0909 117.859C100.92 125.591 108.965 128.123 117.242 129.856C125.054 139.32 134.148 139.453 144.057 135.188C145.223 134.388 146.506 133.455 147.788 133.588C157.232 134.121 166.326 131.056 175.536 129.856C176.352 130.789 177.052 131.589 177.868 132.522C179.733 133.722 178.334 136.654 180.199 137.854C181.132 139.587 180.433 140.52 179.15 141.319C167.258 144.519 155.949 149.984 143.708 151.983C127.152 154.649 110.947 154.383 94.7412 149.317C93.5753 148.917 92.526 148.517 91.3602 148.517C91.0104 148.517 90.5441 148.651 89.728 149.184C91.0104 152.116 93.5753 153.05 95.9071 154.249C107.916 160.381 120.74 160.514 133.565 160.381C139.161 160.248 144.757 160.114 150.353 159.048C152.568 158.648 155.017 158.515 156.882 160.647C152.801 164.513 147.438 165.313 142.775 165.579C132.399 166.379 121.906 166.779 111.53 164.513C102.436 162.514 93.109 161.847 85.6474 154.516C82.6162 151.583 80.401 148.251 78.0693 144.652C74.9214 139.987 75.5044 136.521 79.9347 133.855Z" fill="#C26BB1"/>
<path d="M156.884 160.512C148.607 161.178 140.329 162.778 132.168 162.378C117.478 161.845 102.438 162.378 89.4971 152.114C88.098 151.048 85.1833 150.515 86.5824 147.449C87.8648 144.916 90.3132 145.583 92.4117 146.383C100.689 149.582 109.2 150.648 117.944 151.448C132.168 152.781 145.808 150.115 159.449 145.983C165.162 144.25 170.875 141.984 176.587 139.984C177.637 139.584 178.453 139.584 179.152 140.651C178.569 148.515 173.673 152.647 168.659 156.646C164.579 157.846 160.732 159.179 156.884 160.512Z" fill="#CC7FBF"/>
<path d="M168.425 156.513C172.039 151.315 176.469 146.649 178.918 140.518C179.85 139.984 180.083 138.918 180.083 137.852C182.998 135.719 185.913 133.453 188.944 131.453C190.343 130.52 192.092 129.054 193.491 131.587C194.54 133.453 194.074 135.319 192.908 137.185C186.962 147.182 179.267 154.38 168.425 156.513Z" fill="#B96EAB"/>
<path d="M195.355 122.922C202.817 125.321 203.4 134.785 196.638 143.583C199.086 136.518 200.369 129.587 195.355 122.922Z" fill="#BF69AD"/>
<path d="M175.537 129.856C169.825 133.988 163.179 134.255 156.767 135.055C152.57 135.588 148.256 135.188 143.942 135.188C151.754 124.791 154.902 112.661 154.435 99.1981C161.081 97.8651 167.61 96.5322 174.255 95.1992C173.555 100.798 172.972 106.396 172.273 111.995C171.573 118.393 171.34 124.658 175.537 129.856Z" fill="#CE77BD"/>
<path d="M151.055 61.8733C150.705 61.4734 150.239 60.9402 149.889 60.5403C145.925 53.7422 142.777 46.8108 143.477 38.2799C151.171 34.4143 158.75 36.547 166.211 39.2129C169.126 44.8114 169.709 51.3429 171.574 57.3412C173.09 62.2732 170.875 63.7394 166.911 63.3395C161.548 62.6731 156.301 62.4065 151.055 61.8733Z" fill="#CE77BE"/>
<path d="M166.211 39.2149C158.4 39.8814 150.705 36.549 142.894 39.2149C142.195 39.0816 141.845 38.6817 141.728 37.882C140.096 30.2841 134.733 25.4854 131.235 19.2205C131.585 16.4213 133.334 16.4213 135.199 16.5546C139.863 16.8212 144.526 15.7548 149.073 17.3544C151.755 18.2874 153.154 16.9545 153.387 13.8887C155.835 14.5552 156.768 17.0878 158.05 19.2205C160.615 25.8853 166.095 31.0839 166.211 39.2149Z" fill="#C16BB2"/>
<path d="M141.612 37.8809C141.962 38.2807 142.429 38.8139 142.778 39.2138C146.276 45.8786 147.558 53.3432 149.774 60.5412C143.594 62.6739 137.299 62.6739 131.12 60.5412C129.021 54.5429 130.07 47.7448 127.622 41.8797C132.402 40.5468 137.066 39.2138 141.612 37.8809Z" fill="#D993CC"/>
</svg>
