<svg width="175" height="396" viewBox="0 0 175 396" fill="none" xmlns="http://www.w3.org/2000/svg">
<path fill-rule="evenodd" clip-rule="evenodd" d="M96.3107 87.0403C107.005 84.7067 117.719 82.5289 128.763 84.0311C136.567 85.0916 143.098 88.8957 149.207 93.5958C151.478 95.3454 153.681 97.2065 156.076 98.7722C158.968 100.662 160.357 100.136 161.659 97.0044C162.104 95.9314 162.538 94.8469 162.874 93.7373C163.932 90.2199 166.022 88.0508 169.888 87.7197C171.572 87.5764 173.16 86.9104 174.135 85.2379C175.279 83.2699 175.444 81.7032 173.674 79.8054C170.493 76.3978 166.515 75.5827 162.208 75.4913C157.017 75.3806 151.778 75.9089 146.705 74.3499C137.591 71.5514 130.228 66.1354 124.21 58.8774C121.672 55.8171 120.845 52.1939 122.11 48.2618C122.44 47.2407 122.721 46.2034 123.018 45.1736C124.688 39.3909 123.682 37.0419 118.123 34.4801C115.451 33.2473 112.613 32.3735 109.885 31.2505C102.715 28.2999 97.7753 23.1148 95.1 15.8867C93.3832 11.252 95.2069 7.11687 97.4472 3.11063C97.8428 2.4062 98.9821 1.6344 98.1968 0.814485C97.4885 0.0763687 96.2847 -0.156523 95.1693 0.101385C93.9183 0.392012 92.8819 1.10896 91.8945 1.89616C88.2443 4.80724 84.2659 7.27277 80.5648 10.0867C77.2957 12.5676 74.0411 12.4405 70.4535 11.5225C67.7416 10.8267 65.251 9.60452 62.7153 8.49012C59.2008 6.94557 55.5978 5.7513 51.6224 5.13636C52.1959 8.391 53.1361 11.3771 53.1332 14.5202C53.1255 23.6518 46.0956 30.7347 36.9669 30.676C31.8511 30.6432 26.8113 29.3758 21.6704 29.6597C20.1653 29.7435 18.6304 29.6357 17.0848 30.2958C18.5784 33.2887 20.3059 36.0959 21.4982 39.1744C22.6107 42.0489 23.2987 45.0052 23.3959 48.0655C23.5412 52.6241 21.7542 55.3956 17.515 56.9931C15.011 57.9353 12.3799 58.5377 9.80854 59.2912C6.25558 60.3296 3.03279 61.9935 0.000454248 64.305C2.04832 65.8919 4.22119 66.9168 6.32005 68.0735C14.908 72.8035 17.2571 82.5809 11.8122 90.8262C9.17054 94.8247 5.50406 97.936 2.47268 101.597C2.08197 102.07 1.67195 102.529 0.911695 103.416C10.7362 104.908 18.5264 108.835 22.6289 118.182C26.6726 127.39 24.0839 136.057 20.735 145.106C22.752 145.014 24.5671 144.937 26.3859 144.846C30.7501 144.632 34.9652 145.176 38.9166 147.195C46.9079 151.281 50.6331 157.783 49.7112 166.721C49.4552 169.195 50.0114 170.077 52.5953 170.38C65.5224 171.895 76.037 177.782 83.8329 188.311C88.4694 194.575 90.3884 201.925 92.2033 209.303C75.2141 207.814 63.2696 198.265 53.4653 184.889C52.2248 186.78 51.1749 188.315 50.1933 189.894C45.1622 197.974 38.7039 204.574 30.1919 208.977C28.4511 209.878 28.3318 210.65 29.5174 212.072C30.3749 213.097 30.9888 214.319 31.7606 215.42C36.9996 222.916 37.8233 230.913 34.6476 239.441C33.9441 241.325 32.1618 243.569 33.0347 245.071C33.7536 246.312 36.5415 246.359 38.42 246.917C44.3028 248.665 49.0548 252.043 52.6424 256.989C53.6394 258.367 54.2727 258.389 55.4901 257.249C62.7981 250.409 71.7286 247.367 81.9573 246.263C81.0845 247.961 80.3386 249.405 79.5967 250.849C70.669 268.221 62.0185 285.71 56.7016 304.62C52.9176 318.07 50.6648 331.726 51.0113 345.746C51.6022 369.484 65.5696 388.081 87.3628 394.128C105.428 399.139 125.968 392.361 135.937 378.098C150.351 357.475 140.55 326.587 117.291 318.743C99.83 312.854 75.7156 327.417 77.3747 348.939C78.4159 362.452 88.5426 372.468 102.446 371.293C114.248 370.296 122.531 356.42 117.533 345.677C115.118 340.488 109.477 337.697 103.918 338.941C101.026 339.59 98.2834 343.197 98.3739 346.112C98.421 347.588 99.5123 346.919 100.127 347.006C104.233 347.583 106.659 350.557 106.296 354.682C106.042 357.584 104.368 359.194 101.404 359.384C92.4642 359.96 86.079 352.069 88.483 343.419C90.782 335.161 99.5759 329.701 108.635 330.91C118.125 332.179 128.334 340.366 129.975 349.474C132.772 365.023 126.341 378.587 108.98 381.398C79.4504 386.179 62.3361 359.23 69.0658 335.106C71.8999 324.938 77.467 316.166 83.1313 307.446C85.4246 303.917 87.8131 300.449 90.1584 296.954C87.9122 294.917 88.4617 292.112 88.0431 289.538C86.7353 281.503 88.6311 274.012 92.3525 267.07C97.2143 258.001 103.689 249.924 109.116 241.191C114.834 231.989 120.164 222.622 123.364 212.146C126.164 202.969 127.348 193.657 126.335 184.16C124.773 169.528 116.828 158.657 105.513 149.853C95.0654 141.723 83.7117 134.855 73.3915 126.544C67.4096 121.726 62.1071 116.276 58.0142 109.814C51.3471 99.2919 47.8827 87.8458 48.7709 75.2209C49.1665 69.5844 50.6552 64.3637 53.2679 59.3826C56.6361 52.9667 61.9512 48.2647 67.2113 43.5675C68.5654 42.3588 69.6499 40.3032 71.9923 40.4351C71.9788 39.978 72.1011 39.593 72.5418 39.3717C72.6149 39.3313 72.687 39.2918 72.7611 39.2514C72.6861 39.288 72.6072 39.3245 72.5322 39.3611C72.5456 39.8144 72.4456 40.2137 72.0058 40.4476C71.8749 41.7429 71.0521 42.7466 70.5469 43.8812C67.4539 50.8322 66.7215 58.0642 69.1475 65.2385C73.0084 76.6509 80.9882 83.6086 92.9761 85.8538C94.0664 86.0578 95.5947 85.5882 96.3107 87.0403ZM91.9878 36.526C96.8899 36.528 100.633 40.2859 100.657 45.2275C100.681 50.2288 96.7687 54.2158 91.8752 54.1773C87.1376 54.1388 83.1805 50.1634 83.1228 45.3863C83.066 40.4572 86.999 36.5251 91.9878 36.526Z" fill="#3030BF"/>
<path fill-rule="evenodd" clip-rule="evenodd" d="M96.3119 87.039C95.596 85.5869 94.0677 86.0565 92.9773 85.8525C80.9895 83.6073 73.0097 76.6496 69.1488 65.2372C66.7227 58.0629 67.4552 50.8309 70.5482 43.8799C71.0524 42.7444 71.8762 41.7406 72.0071 40.4463L71.9935 40.4338C69.6512 40.3019 68.5666 42.3575 67.2126 43.5662C61.9524 48.2634 56.6374 52.9664 53.2692 59.3813C50.6565 64.3624 49.1677 69.5831 48.7722 75.2196C47.884 87.8445 51.3494 99.2906 58.0155 109.813C62.1083 116.275 67.4109 121.725 73.3928 126.542C83.7129 134.854 95.0657 141.722 105.514 149.852C116.829 158.656 124.774 169.527 126.336 184.159C127.349 193.656 126.166 202.968 123.365 212.145C120.166 222.621 114.836 231.989 109.117 241.19C103.69 249.923 97.2156 258 92.3538 267.068C88.6334 274.011 86.7366 281.502 88.0444 289.537C88.464 292.109 87.9135 294.915 90.1596 296.953C103.276 278.782 118.695 262.647 134.447 246.799C139.124 242.093 143.603 237.188 147.849 232.082C155.976 222.304 163.13 211.928 166.768 199.57C171.434 183.715 169.033 168.392 162.846 153.43C154.798 133.963 140.622 121.072 120.776 114.249C112.654 111.458 104.559 108.591 96.4862 105.668C94.4768 104.941 92.6146 103.823 90.6524 102.956C88.4689 101.991 88.005 100.295 88.3226 98.1214C89.0645 93.0248 91.7947 89.3939 96.3119 87.039Z" fill="#607DF2"/>
<path fill-rule="evenodd" clip-rule="evenodd" d="M91.9873 36.5283C86.9985 36.5274 83.0655 40.4585 83.1223 45.3886C83.18 50.1647 87.1372 54.1411 91.8748 54.1796C96.7683 54.2191 100.68 50.2311 100.656 45.2298C100.632 40.2892 96.8895 36.5302 91.9873 36.5283ZM97.2956 43.6006C97.7854 47.1276 96.7539 49.3361 94.3201 50.4544C92.0836 51.4821 89.3188 50.8961 87.6838 49.0484C86.0199 47.1651 85.7841 44.4224 87.1025 42.3081C88.6038 39.9004 90.8104 39.2094 94.2517 40.1467C93.2153 41.3217 92.0759 42.594 93.4154 44.0798C94.6155 45.4107 95.9416 44.9036 97.2956 43.6006Z" fill="#FEFEFE"/>
<path fill-rule="evenodd" clip-rule="evenodd" d="M72.541 39.37C72.1003 39.5913 71.978 39.9772 71.9915 40.4333L72.005 40.4459C72.4448 40.212 72.5449 39.8126 72.5314 39.3594L72.541 39.37Z" fill="#0270BC"/>
<path fill-rule="evenodd" clip-rule="evenodd" d="M72.53 39.3611C72.6059 39.324 72.6857 39.287 72.7617 39.25C72.6877 39.2909 72.6147 39.3308 72.5397 39.3718L72.53 39.3611Z" fill="#0270BC"/>
<path fill-rule="evenodd" clip-rule="evenodd" d="M97.2946 43.5977C95.9416 44.9007 94.6145 45.4078 93.4154 44.0779C92.0758 42.592 93.2153 41.3188 94.2517 40.1448C90.8104 39.2075 88.6038 39.8984 87.1025 42.3062C85.7841 44.4205 86.0189 47.1631 87.6838 49.0464C89.3178 50.8941 92.0826 51.4802 94.3201 50.4524C96.7529 49.3342 97.7835 47.1246 97.2946 43.5977Z" fill="#1E1F5D"/>
</svg>
