<svg width="156" height="151" viewBox="0 0 156 151" fill="none" xmlns="http://www.w3.org/2000/svg">
<path d="M139.303 146.855C137.788 147.951 135.569 149.099 132.339 150.189C132.135 150.261 131.935 150.303 131.729 150.3C118.071 150.659 91.5039 133.081 82.2337 124.889C66.1082 130.016 51.263 131.286 38.0703 128.685C23.7753 125.863 15.9564 119.346 12.5639 115.739C8.01982 110.877 6.18584 105.734 7.64847 102.025C7.65815 101.967 7.69665 101.914 7.73515 101.861C9.28592 98.7762 11.4575 96.8473 14.1826 96.1228C20.2575 94.4761 27.3386 99.2088 33.0082 103.002C34.8709 104.252 36.6688 105.447 37.9317 106.036C38.0407 105.294 38.1314 103.776 37.7747 100.774C37.4036 97.6796 36.7351 94.2402 36.2075 91.4632C32.5363 83.8542 31.7747 77.9601 33.9223 73.9596C34.9528 72.0417 37.2066 69.6202 42.0624 68.9835L42.0912 68.9881C46.5841 68.4868 50.3398 69.742 53.2598 72.7232C60.9904 80.6542 60.1805 98.9719 59.5621 105.865C63.1133 105.332 69.6105 104.17 73.8842 102.145C68.5146 82.4676 54.4701 61.0451 46.7755 51.1264C40.6916 54.1553 27.1437 59.3525 20.288 60.9784C20.1799 61.0058 20.0886 61.0209 19.9685 61.0315C8.33553 61.938 3.81035 57.3165 2.06154 53.2581C-0.429867 47.4445 1.76727 40.2236 4.3815 37.7705C4.6773 37.5054 5.04988 37.3121 5.43193 37.2393C20.1203 34.6048 23.1632 33.217 27.3479 31.2829C28.0546 30.9496 28.8069 30.6087 29.6506 30.2527C20.2592 20.9255 16.22 13.6593 17.3726 8.08635C17.8245 5.82297 19.4041 2.74321 24.2854 0.890716C24.3311 0.883141 24.3815 0.846586 24.4272 0.83901C28.2242 -0.279423 32.6217 0.587549 37.4781 3.49164C50.2684 11.0714 63.5656 30.5891 70.351 41.5228C79.944 56.9966 87.9045 73.6524 89.7129 82.0495C91.0163 86.9144 92.9275 91.7724 95.4322 96.5319C96.0122 87.6539 97.9343 75.4351 99.7959 63.4892C102.038 49.1792 104.333 34.372 103.563 29.5031C100.502 19.5669 102.763 14.9745 105.216 12.8676C108.172 10.3203 112.82 10.2157 117.615 12.6041C117.655 12.6255 117.696 12.6469 117.749 12.6851C123.189 15.9057 125.466 26.2819 124.506 43.4599C123.988 52.8535 122.544 62.5604 121.356 68.083C122.413 67.5975 123.399 67.0113 124.342 66.329C130.3 62.0155 134.047 54.2838 136.106 50.0162C136.645 48.9123 137.055 48.0555 137.425 47.4304C137.758 46.8587 138.325 46.4734 138.971 46.4131C145.725 45.5742 152.408 46.1372 155.541 55.8173C155.624 56.1133 155.674 56.4337 155.621 56.7525C154.821 62.605 152.182 68.1336 147.756 73.1979C144.299 77.1527 139.761 80.8453 134.242 84.1281C126.549 88.7294 119.233 91.2488 116.717 92.0514C114.272 97.5664 114.451 108.901 117.191 123.502C129.514 134.325 141.122 140.035 141.232 140.082C141.78 140.348 142.185 140.844 142.336 141.449C142.527 142.253 142.64 144.413 139.303 146.855Z" fill="#F0D344"/>
</svg>
