<svg width="2419" height="247" viewBox="0 0 2419 247" fill="none" xmlns="http://www.w3.org/2000/svg">
<path d="M20 1L1895.62 1C1900.59 1 1905.36 2.94506 1908.91 6.41895L2022 117.067C2025.6 120.597 2025.6 126.403 2022 129.933L1908.91 240.581C1905.36 244.055 1900.59 246 1895.62 246L20 246C9.50661 246 1.00001 237.493 1 227L1 20C1 9.67049 9.24292 1.26588 19.5098 1.00586L20 1Z" fill="#4343FF" stroke="#141414" stroke-width="2"/>
<path d="M1982.64 1L2042.36 1C2043.4 1 2044.41 1.40796 2045.15 2.13672L2162.96 117.058C2166.58 120.59 2166.58 126.41 2162.96 129.942L2045.15 244.863C2044.41 245.592 2043.4 246 2042.36 246H1982.64C1979.01 246 1977.26 241.564 1979.9 239.083L2098.44 127.876C2100.96 125.506 2100.96 121.494 2098.44 119.124L1979.9 7.91699C1977.26 5.43643 1979.01 1 1982.64 1Z" fill="#4343FF" stroke="#141414" stroke-width="2"/>
<path d="M2112.64 1L2172.36 1C2173.4 1 2174.41 1.40796 2175.15 2.13672L2292.96 117.058C2296.58 120.59 2296.58 126.41 2292.96 129.942L2175.15 244.863C2174.41 245.592 2173.4 246 2172.36 246H2112.64C2109.01 246 2107.26 241.564 2109.9 239.083L2228.44 127.876C2230.96 125.506 2230.96 121.494 2228.44 119.124L2109.9 7.91699C2107.26 5.43643 2109.01 1 2112.64 1Z" fill="#4343FF" stroke="#141414" stroke-width="2"/>
<path d="M2231.59 1L2290.98 1C2292.03 1.00001 2293.03 1.41067 2293.78 2.14355L2411.02 117.073C2414.62 120.602 2414.62 126.398 2411.02 129.927L2293.78 244.856C2293.03 245.589 2292.03 246 2290.98 246H2231.59C2227.97 246 2226.21 241.574 2228.85 239.09L2346.81 127.865C2349.33 125.497 2349.33 121.503 2346.81 119.135L2228.85 7.91016C2226.21 5.42637 2227.97 1 2231.59 1Z" fill="#4343FF" stroke="#141414" stroke-width="2"/>
</svg>
