<svg width="249" height="267" viewBox="0 0 249 267" fill="none" xmlns="http://www.w3.org/2000/svg">
<path d="M131.542 43.5501C131.542 43.5501 127.421 45.1161 129.387 49.1965C131.353 53.2769 132.51 59.8891 129.294 64.6925C126.077 69.4959 123.397 71.3717 117.665 70.8929C111.932 70.4142 119.252 76.911 123.927 77.7975C128.601 78.684 147.473 84.629 149.42 86.348C151.356 88.0639 163.217 89.7986 160.514 86.0941C157.865 82.462 142.973 64.269 154.945 55.1908C155.745 54.5804 161.484 51.0362 161.037 50.0662C160.557 49.0301 159.921 48.6971 156.979 48.102C154.338 47.5687 152.279 48.9438 150.806 50.6027C150.223 51.2595 149.152 50.6902 149.355 49.8362C150.569 44.579 152.22 37.1263 152.023 36.5225C151.781 35.7826 153.126 25.5463 145.994 25.5778C140.201 25.6104 143.643 28.4088 143.698 34.5523C143.706 34.809 142.406 41.3552 142.31 42.1874C142.307 42.1975 142.304 42.2075 142.307 42.2308C142.046 44.36 140.914 50.7267 139.631 52.4458L137.789 54.9948C137.266 55.6706 136.194 55.3549 136.12 54.5021C135.955 52.847 135.904 50.7297 135.689 50.2529C134.75 48.1436 134.146 43.8839 131.542 43.5501Z" fill="#249A48"/>
<path d="M71.3606 213.529C71.3606 213.529 60.6984 223.716 62.3482 224.236C63.998 224.755 77.7495 216.205 77.7495 216.205L71.3606 213.529Z" fill="#FBD8B4"/>
<path d="M79.4258 215.903C79.4258 215.903 75.1318 226.516 76.4758 228.708C77.8198 230.901 86.4676 218.122 86.4676 218.122L79.4258 215.903Z" fill="#FBD8B4"/>
<path d="M87.3949 219.531C87.3949 219.531 83.3807 233.538 88.0541 235.552C92.7174 237.562 94.666 227.937 94.666 227.937C94.666 227.937 95.7377 226.781 96.6478 228.561C97.4376 230.126 97.1739 238.966 99.3725 240.201C101.571 241.435 102.807 229.65 103.336 229.761C104.748 230.051 107.068 232.164 107.243 237.649C107.356 241.256 109.673 241.798 111.247 241.752C112.074 241.725 112.743 241.073 112.823 240.258C113.167 237.06 113.864 228.809 112.339 226.736C110.438 224.136 87.3949 219.531 87.3949 219.531Z" fill="#FBD8B4"/>
<path d="M116.1 71.1191C116.1 71.1191 103.632 77.3868 89.2288 75.6141C74.8257 73.8414 38.3721 82.8484 28.8772 117.377C20.018 149.607 18.0369 177.8 48.7068 201.616C52.8464 204.833 57.3609 207.527 62.127 209.703C79.4267 217.585 128.65 237.194 167.553 225.011C190.016 217.977 206.258 198.501 210.27 175.304C212.827 160.484 212.932 145.092 207.848 134.622C207.848 134.622 196.12 106.069 175.371 98.1501C180.623 100.678 166.976 94.8201 160.52 86.1075C160.514 86.0942 122.14 68.7974 116.1 71.1191Z" fill="#F7ECDB"/>
<path d="M107.454 88.4547C107.454 88.4547 87.5762 91.6362 75.6853 110.814C63.7944 129.991 45.1338 149.281 50.2792 172.929C53.5692 188.075 56.5849 195.738 58.3184 199.292C58.6359 199.933 57.8656 200.553 57.3047 200.122C53.4326 197.144 46.486 191.008 45.8095 185.012C44.8604 176.652 43.4485 140.379 64.9824 113.723C83.6202 90.6444 106.869 84.9085 112.784 83.7864C113.632 83.6222 114.404 84.3299 114.289 85.1891C114.197 85.9012 113.893 86.6568 113.086 87.0771C111.293 87.9941 107.454 88.4547 107.454 88.4547Z" fill="#FBD8B4"/>
<path d="M141.797 92.7486C141.797 92.7486 105.306 110.546 91.1708 148.501C77.0328 186.465 81.1981 204.309 86.1033 210.853C91.0085 217.396 76.4631 208.037 74.4747 204.801C72.4964 201.568 66.9856 152.858 101.049 116.16C104.184 114.107 119.419 98.4601 130.36 93.6354C141.301 88.8107 141.797 92.7486 141.797 92.7486Z" fill="#FBD8B4"/>
<path d="M164.42 100.97C163.428 100.26 162.19 101.451 162.854 102.467C168.325 110.759 177.364 129.21 176.26 159.426C174.965 194.57 151.174 213.05 142.52 218.618C141.299 219.405 141.566 221.259 142.951 221.673C146.367 222.693 151.311 223.776 153.411 222.27C156.784 219.849 173.821 204.449 184.296 170.494C194.771 136.54 176.41 120.969 176.499 114.473C176.552 110.409 169.612 104.674 164.42 100.97Z" fill="#FBD8B4"/>
</svg>
