<svg width="278" height="297" viewBox="0 0 278 297" fill="none" xmlns="http://www.w3.org/2000/svg">
<path d="M155.043 30.1751C152.386 24.4879 145.166 12.7471 132.107 16.5092C124.695 19.4038 115.359 31.5271 110.031 40.4805C107.387 45.137 88.5262 56.0466 84.0197 72.9411C81.4189 82.7019 80.513 88.4054 80.2102 91.483C80.0139 93.4322 78.9838 95.1913 77.3816 96.3081C73.2927 99.1825 65.6806 105.63 62.4417 115.509C60.5314 120.276 43.7152 123.202 36.326 149.918C28.9368 176.633 21.7806 183.527 16.1287 189.15C10.4768 194.773 9.85183 204.037 13.3177 208.473C16.7942 212.916 37.3939 207.024 46.8561 200.181C56.3252 193.327 53.2089 190.465 90.0068 174.095C102.1 168.421 112.228 159.795 118.425 148.251C120.592 145.014 125.494 142.149 128.411 137.094C129.162 135.79 129.956 134.515 130.835 133.295C134.252 128.547 142.076 117.963 146.854 113.881C152.908 108.716 194.634 81.9217 171.102 56.8849C169.653 55.343 168.834 53.298 168.882 51.1777C169.004 45.7709 168.036 35.4471 159.042 33.4101C157.29 33.0204 155.804 31.8181 155.043 30.1751Z" fill="#D6431F"/>
<path d="M131.906 53.581C132.109 51.6211 132.953 43.0286 132.13 40.5421C132.048 40.2923 132.193 40.0219 132.446 39.9584C134.278 39.5203 140.369 37.8483 144.497 34.0902C144.707 33.9072 145.018 33.9419 145.188 34.1728C146.124 35.5202 149.139 39.574 152.313 41.1244C152.662 41.2892 153.075 41.2377 153.361 40.983C154.958 39.5448 161.031 34.8455 172.57 34.1173C172.842 34.096 173.082 34.2659 173.181 34.5118C173.753 36.0938 175.793 41.6092 176.537 43.3019C176.614 43.4881 176.511 43.6944 176.317 43.7359C174.327 44.2079 164.955 46.7756 159.752 54.2647C159.589 54.493 159.537 54.7622 159.587 55.0371C159.738 55.9076 160.13 57.8878 160.613 58.7609C160.719 58.9502 160.704 59.1836 160.569 59.3691C159.586 60.7036 155.922 66.1406 154.364 74.499C154.321 74.7292 154.028 74.7826 153.905 74.597C151.778 71.4498 140.545 55.2978 132.255 54.0037C132.039 53.9854 131.888 53.7967 131.906 53.581Z" fill="#249A48"/>
<path d="M220.913 90.8359C218.327 88.6805 209.2 81.6323 203.85 84.6014C203.3 84.9127 202.676 85.0553 202.049 84.9684C197.213 84.3448 176.612 83.6587 173.377 116.377C173.304 117.148 173.04 117.886 172.597 118.525C168.059 125.079 142.335 163.393 145.666 184.774C145.823 185.8 145.492 186.829 144.779 187.581C140.241 192.302 124.558 210.538 127.551 234.156C127.788 236.022 127.916 237.893 127.952 239.765C128.064 246.595 128.435 262.004 129.372 265.231C130.585 269.394 136.065 286.694 138.791 286.894C141.516 287.093 144.762 288.933 149.016 285.968C153.27 283.003 159.368 257.862 160.204 252.948C161.041 248.033 165.542 245.485 165.542 245.485C165.542 245.485 173.827 236.396 176.344 227.824C176.858 226.065 177.663 224.418 178.715 222.931C181.971 218.291 188.48 208.873 189.482 206.429C190.828 203.146 200.752 188.16 204.047 184.682C212.102 176.186 231.742 164.705 237.069 155.19C237.668 154.122 238.317 153.071 239.033 152.079C241.26 149.032 245.653 143.172 247.823 141.27C248.685 140.524 249.475 139.7 250.175 138.804C253.975 133.909 262.249 120.843 249.758 112.773C249.222 112.427 248.947 111.795 249.061 111.172C249.618 107.865 249.156 97.3221 222.569 91.6331C221.959 91.4965 221.386 91.2323 220.913 90.8359Z" fill="#D6431F"/>
<path d="M225.688 62.3862C230.006 64.7513 248.324 76.752 230.251 102.354C229.884 102.875 229.827 103.551 230.108 104.126C230.882 105.702 232.847 109.123 237.213 113.883C237.464 114.152 237.376 114.594 237.031 114.751C234.626 115.819 226.591 119.841 220.561 128.235C220.184 128.749 219.398 128.696 219.099 128.125C217.274 124.627 211.551 114.989 201.889 110.718C201.501 110.543 201.297 110.108 201.428 109.693C202.178 107.404 204.295 100.225 203.21 95.6293C203.089 95.1116 203.541 94.6462 204.07 94.7451C207.034 95.3268 214.533 96.7163 216.077 96.3952C217.98 95.9879 233.009 84.4059 219.176 70.9846C218.839 70.6606 218.883 70.0983 219.268 69.8316C220.542 68.9418 223.033 66.7779 224.51 62.8225C224.694 62.3501 225.238 62.1414 225.688 62.3862Z" fill="#249A48"/>
</svg>
