<svg width="1862" height="133" viewBox="0 0 1862 133" fill="none" xmlns="http://www.w3.org/2000/svg">
<path d="M-9 1L1571.77 1C1576.26 1 1580.61 2.59307 1584.03 5.48828L1584.36 5.77246L1644.97 59.4131C1649.01 62.9948 1649.01 69.3109 1644.97 72.8926L1584.36 126.533C1580.89 129.608 1576.41 131.306 1571.77 131.306L-9 131.306C-19.4934 131.306 -28 122.799 -28 112.306V20C-28 9.50659 -19.4934 1 -9 1Z" fill="#478BFF" stroke="#141414" stroke-width="2"/>
<path d="M1634.19 1L1659.28 1C1660.26 1 1661.2 1.36018 1661.93 2.00781L1662.08 2.14063L1720.93 59.7197C1724.54 63.2498 1724.54 69.0559 1720.93 72.5859L1662.08 130.165C1661.33 130.896 1660.32 131.306 1659.28 131.306H1634.19C1630.57 131.306 1628.81 126.875 1631.45 124.393L1688.71 70.5225C1691.23 68.1534 1691.23 64.1523 1688.71 61.7832L1631.45 7.91309C1628.9 5.50814 1630.46 1.27459 1633.86 1.0127L1634.19 1Z" fill="#478BFF" stroke="#141414" stroke-width="2"/>
<path d="M1703.75 1L1728.83 1C1729.81 1 1730.76 1.36018 1731.49 2.00781L1731.63 2.14063L1790.49 59.7197C1794.09 63.2498 1794.09 69.0559 1790.49 72.5859L1731.63 130.165C1730.88 130.896 1729.88 131.306 1728.83 131.306H1703.75C1700.13 131.306 1698.37 126.875 1701.01 124.393L1758.26 70.5225C1760.78 68.1534 1760.78 64.1523 1758.26 61.7832L1701.01 7.91309C1698.45 5.50814 1700.02 1.27459 1703.41 1.0127L1703.75 1Z" fill="#478BFF" stroke="#141414" stroke-width="2"/>
<path d="M1767.25 1L1792.34 1C1793.32 1 1794.26 1.36018 1794.99 2.00781L1795.14 2.14063L1853.99 59.7197C1857.6 63.2498 1857.6 69.0559 1853.99 72.5859L1795.14 130.165C1794.39 130.896 1793.38 131.306 1792.34 131.306H1767.25C1763.63 131.306 1761.88 126.875 1764.51 124.393L1821.77 70.5225C1824.29 68.1534 1824.29 64.1523 1821.77 61.7832L1764.51 7.91309C1761.96 5.50814 1763.53 1.27459 1766.92 1.0127L1767.25 1Z" fill="#478BFF" stroke="#141414" stroke-width="2"/>
</svg>
