<svg width="1750" height="133" viewBox="0 0 1750 133" fill="none" xmlns="http://www.w3.org/2000/svg">
<path d="M1871 1L290.232 1C285.738 1 281.393 2.59307 277.968 5.48828L277.639 5.77246L217.032 59.4131C212.985 62.9948 212.985 69.3109 217.032 72.8926L277.639 126.533C281.114 129.608 285.593 131.306 290.232 131.306L1871 131.306C1881.49 131.306 1890 122.799 1890 112.306V20C1890 9.50659 1881.49 1 1871 1Z" fill="#FF6D39" stroke="#141414" stroke-width="2"/>
<path d="M227.807 1L202.723 1C201.742 1 200.798 1.36018 200.068 2.00781L199.925 2.14063L141.068 59.7197C137.46 63.2498 137.46 69.0559 141.068 72.5859L199.925 130.165C200.672 130.896 201.677 131.306 202.723 131.306H227.807C231.429 131.306 233.186 126.875 230.548 124.393L173.292 70.5225C170.774 68.1534 170.774 64.1523 173.292 61.7832L230.548 7.91309C233.104 5.50814 231.535 1.27459 228.141 1.0127L227.807 1Z" fill="#FF6D39" stroke="#141414" stroke-width="2"/>
<path d="M158.252 1L133.168 1C132.188 1 131.244 1.36018 130.514 2.00781L130.37 2.14063L71.5137 59.7197C67.9052 63.2498 67.9052 69.0559 71.5137 72.5859L130.37 130.165C131.118 130.896 132.122 131.306 133.168 131.306H158.252C161.875 131.306 163.632 126.875 160.993 124.393L103.737 70.5225C101.22 68.1534 101.22 64.1523 103.737 61.7832L160.993 7.91309C163.549 5.50814 161.98 1.27459 158.586 1.0127L158.252 1Z" fill="#FF6D39" stroke="#141414" stroke-width="2"/>
<path d="M94.7451 1L69.6611 1C68.6807 1 67.7369 1.36018 67.0068 2.00781L66.8633 2.14063L8.00682 59.7197C4.39841 63.2498 4.39841 69.0559 8.00682 72.5859L66.8633 130.165C67.6107 130.896 68.6155 131.306 69.6611 131.306H94.7451C98.3678 131.306 100.125 126.875 97.4863 124.393L40.2305 70.5225C37.7127 68.1534 37.7127 64.1523 40.2305 61.7832L97.4863 7.91309C100.042 5.50814 98.4735 1.27459 95.0791 1.0127L94.7451 1Z" fill="#FF6D39" stroke="#141414" stroke-width="2"/>
</svg>
