<svg width="65" height="65" viewBox="0 0 65 65" fill="none" xmlns="http://www.w3.org/2000/svg">
<path d="M56.3333 8.66667C55.4667 3.46667 51.1333 0 45.5 0H15.1667C6.93333 0 0 6.93333 0 15.1667V45.5C0 50.7 3.9 55.0333 8.66667 56.3333C9.53333 61.5333 13.8667 65 19.5 65H54.1667C60.2333 65 65 60.2333 65 54.1667V19.5C65 14.3 61.1 9.96667 56.3333 8.66667ZM4.33333 45.5V15.1667C4.33333 9.1 9.1 4.33333 15.1667 4.33333H45.5C48.5333 4.33333 50.7 6.06667 51.5667 8.66667H19.5C13.4333 8.66667 8.66667 13.4333 8.66667 19.5V51.5667C6.06667 50.7 4.33333 48.5333 4.33333 45.5ZM60.6667 54.1667C60.6667 57.6333 57.6333 60.6667 54.1667 60.6667H19.5C16.0333 60.6667 13 57.6333 13 54.1667V19.5C13 16.0333 16.0333 13 19.5 13H54.1667C57.6333 13 60.6667 16.0333 60.6667 19.5V54.1667Z" fill="#323333"/>
</svg>
