<svg width="262" height="309" viewBox="0 0 262 309" fill="none" xmlns="http://www.w3.org/2000/svg">
<path d="M65.7806 83.7345C65.7806 83.7345 60.7594 177.15 72.5254 207.335C77.6622 220.511 80.9605 244.928 160.046 274.887C169 279.793 210.763 267.57 218.568 256.166C226.061 245.228 259.531 201.31 196.034 118.579C190.246 111.034 183.498 104.329 176.027 98.5782C162.783 88.3968 142.692 73.4415 138.355 68.0476C138.355 68.0476 126.552 49.0163 119.044 41.8353C117.346 40.2129 115.182 39.218 112.913 38.963C110.771 38.7368 107.824 38.6157 105.361 39.2915L101.628 26.6349L84.8341 28.1657L84.5337 46.3223C84.5337 46.3223 71.0287 52.2855 63.9054 58.9346C61.3516 61.3144 60.1278 64.8894 60.6888 68.4964C61.2164 72.0094 62.5666 77.1759 65.7806 83.7345Z" fill="#333287"/>
<path d="M65.7803 83.7344C65.7803 83.7344 77.6376 103.534 81.8134 105.747C85.9891 107.961 105.788 115.95 105.788 115.95C105.788 115.95 91.3968 92.8495 96.9976 89.6619L104.037 87.4213C104.037 87.4213 102.46 78.6787 101.186 77.1356L103.919 71.2847L124.961 78.1252L128.658 64.3925L138.336 68.0416" fill="#333287"/>
</svg>
