<svg width="257" height="273" viewBox="0 0 257 273" fill="none" xmlns="http://www.w3.org/2000/svg">
<path d="M78.5883 61.1044C78.5883 61.1044 76.317 64.8821 80.3841 66.875C84.4513 68.8679 89.4476 73.3509 89.888 79.1148C90.3284 84.8786 89.3802 88.0101 84.5781 91.1764C79.776 94.3428 89.5455 94.9263 93.7684 92.7341C97.9913 90.5418 116.502 83.5516 119.094 83.6999C121.677 83.852 132.073 77.8854 127.659 76.6438C123.332 75.4256 100.38 70.3272 104.181 55.7915C104.433 54.817 106.754 48.4839 105.803 47.9972C104.785 47.4799 104.079 47.6111 101.399 48.9616C98.9931 50.1745 98.2245 52.5279 98.0914 54.7428C98.0391 55.6193 96.8459 55.8332 96.4774 55.0366C94.1824 50.1535 90.8742 43.2742 90.3463 42.9211C89.6985 42.4893 84.4291 33.611 78.8424 38.0432C74.308 41.6496 78.7435 41.7221 82.5838 46.5177C82.7484 46.7148 85.773 52.664 86.2116 53.3777C86.2154 53.3876 86.2191 53.3975 86.2364 53.4135C87.3467 55.249 90.3917 60.9537 90.446 63.0978L90.573 66.2404C90.5799 67.0946 89.5415 67.5093 88.9561 66.8848C87.8041 65.6852 86.4548 64.0526 85.9913 63.8105C83.9495 62.7326 80.8417 59.7574 78.5883 61.1044Z" fill="#249A48"/>
<path d="M136.333 231.927C136.333 231.927 134.247 246.525 135.865 245.914C137.483 245.303 143.009 230.082 143.009 230.082L136.333 231.927Z" fill="#FBD8B4"/>
<path d="M144.14 228.809C144.14 228.809 147.324 239.805 149.735 240.699C152.147 241.592 151.047 226.201 151.047 226.201L144.14 228.809Z" fill="#FBD8B4"/>
<path d="M152.647 226.735C152.647 226.735 158.148 240.227 163.067 238.922C167.976 237.621 163.559 228.849 163.559 228.849C163.559 228.849 163.687 227.279 165.502 228.115C167.09 228.857 172.347 235.97 174.838 235.582C177.33 235.193 171.017 225.164 171.502 224.925C172.791 224.28 175.921 224.507 179.448 228.711C181.766 231.477 183.923 230.471 185.132 229.462C185.765 228.93 185.889 228.004 185.448 227.314C183.742 224.587 179.19 217.67 176.71 216.983C173.608 216.114 152.647 226.735 152.647 226.735Z" fill="#FBD8B4"/>
<path d="M83.4887 92.3204C83.4887 92.3204 77.5604 104.954 65.142 112.462C52.7236 119.97 29.6326 149.581 43.5086 182.594C56.4637 213.406 72.3309 236.795 111.161 236.562C116.404 236.532 121.618 235.86 126.709 234.625C145.181 230.129 195.997 215.122 219.05 181.501C232.362 162.088 233.093 136.738 221.911 116.023C214.761 102.793 205.33 90.6269 194.863 85.538C194.863 85.538 167.996 70.3398 146.79 76.9388C152.482 75.6801 138.133 79.5091 127.673 76.6496C127.659 76.6435 86.8015 86.7627 83.4887 92.3204Z" fill="#F7ECDB"/>
<path d="M87.406 111.293C87.406 111.293 73.7452 126.08 76.2499 148.505C78.7545 170.931 76.0065 197.628 94.6674 213.039C106.615 222.913 113.721 227.073 117.281 228.795C117.927 229.103 117.704 230.067 116.997 230.075C112.112 230.127 102.859 229.596 98.6212 225.3C92.708 219.314 69.1799 191.672 69.634 157.407C70.0223 127.745 84.7537 108.868 88.7108 104.329C89.2759 103.676 90.3204 103.755 90.7603 104.502C91.1284 105.119 91.3561 105.901 90.9815 106.73C90.1389 108.559 87.406 111.293 87.406 111.293Z" fill="#FBD8B4"/>
<path d="M117.058 93.4436C117.058 93.4436 99.3705 129.988 111.716 168.562C124.066 207.145 138.369 218.599 146.269 220.711C154.169 222.824 136.95 224.456 133.387 223.141C129.834 221.822 95.3962 186.935 99.4942 137.033C100.69 133.481 102.996 111.764 108.615 101.209C114.235 90.6541 117.058 93.4436 117.058 93.4436Z" fill="#FBD8B4"/>
<path d="M139.924 85.9243C138.704 85.979 138.467 87.6806 139.617 88.0692C149.043 91.2064 167.552 100.124 185.36 124.561C206.062 152.989 198.781 182.222 195.418 191.947C194.945 193.321 196.301 194.613 197.645 194.082C200.962 192.774 205.518 190.568 206.238 188.087C207.393 184.099 211.269 161.463 198.518 128.296C185.767 95.1286 161.71 94.2361 157.765 89.0741C155.295 85.8468 146.294 85.6269 139.924 85.9243Z" fill="#FBD8B4"/>
</svg>
