<svg width="278" height="297" viewBox="0 0 278 297" fill="none" xmlns="http://www.w3.org/2000/svg">
<path d="M155.042 30.1751C152.384 24.4879 145.165 12.7471 132.105 16.5092C124.693 19.4038 115.358 31.5271 110.03 40.4805C107.386 45.137 88.5249 56.0466 84.0184 72.9411C81.4176 82.7019 80.5117 88.4054 80.2089 91.483C80.0126 93.4322 78.9825 95.1913 77.3803 96.3081C73.2914 99.1825 65.6793 105.63 62.4404 115.509C60.5301 120.276 43.7139 123.202 36.3247 149.918C28.9355 176.633 21.7792 183.527 16.1274 189.15C10.4755 194.773 9.85051 204.037 13.3163 208.473C16.7929 212.916 37.3926 207.024 46.8548 200.181C56.3239 193.327 53.2075 190.465 90.0055 174.095C102.098 168.421 112.226 159.795 118.424 148.251C120.591 145.014 125.493 142.149 128.41 137.094C129.161 135.79 129.954 134.515 130.834 133.295C134.25 128.547 142.075 117.963 146.852 113.881C152.907 108.716 194.633 81.9217 171.101 56.8849C169.652 55.343 168.832 53.298 168.881 51.1777C169.003 45.7709 168.035 35.4471 159.041 33.4101C157.288 33.0204 155.803 31.8181 155.042 30.1751Z" fill="#D6431F"/>
<path d="M131.905 53.581C132.108 51.6211 132.952 43.0286 132.129 40.5421C132.047 40.2923 132.192 40.0219 132.445 39.9584C134.277 39.5203 140.368 37.8483 144.496 34.0902C144.706 33.9072 145.017 33.9419 145.187 34.1728C146.123 35.5202 149.138 39.574 152.312 41.1244C152.661 41.2892 153.074 41.2377 153.36 40.983C154.957 39.5448 161.03 34.8455 172.569 34.1173C172.841 34.096 173.081 34.2659 173.18 34.5118C173.752 36.0938 175.792 41.6092 176.536 43.3019C176.613 43.4881 176.51 43.6944 176.316 43.7359C174.326 44.2079 164.954 46.7756 159.751 54.2647C159.588 54.493 159.536 54.7622 159.586 55.0371C159.737 55.9076 160.128 57.8877 160.612 58.7609C160.718 58.9502 160.703 59.1836 160.568 59.3691C159.585 60.7036 155.921 66.1406 154.362 74.499C154.32 74.7292 154.027 74.7826 153.904 74.597C151.777 71.4498 140.544 55.2978 132.254 54.0037C132.038 53.9854 131.887 53.7967 131.905 53.581Z" fill="#249A48"/>
<path d="M220.913 90.8359C218.327 88.6805 209.199 81.6323 203.85 84.6014C203.299 84.9127 202.676 85.0553 202.048 84.9684C197.213 84.3448 176.611 83.6587 173.376 116.377C173.303 117.148 173.039 117.886 172.596 118.525C168.058 125.079 142.335 163.393 145.665 184.775C145.822 185.8 145.491 186.829 144.778 187.581C140.24 192.302 124.557 210.538 127.55 234.156C127.788 236.022 127.915 237.893 127.951 239.765C128.063 246.595 128.434 262.004 129.371 265.231C130.584 269.394 136.065 286.694 138.79 286.894C141.516 287.093 144.761 288.933 149.015 285.968C153.269 283.003 159.367 257.862 160.204 252.948C161.04 248.033 165.541 245.485 165.541 245.485C165.541 245.485 173.827 236.396 176.343 227.824C176.857 226.065 177.663 224.418 178.715 222.931C181.97 218.291 188.48 208.873 189.482 206.428C190.828 203.146 200.752 188.16 204.047 184.682C212.101 176.186 231.742 164.705 237.069 155.19C237.667 154.122 238.316 153.071 239.032 152.079C241.259 149.032 245.652 143.172 247.822 141.27C248.684 140.524 249.474 139.7 250.174 138.804C253.974 133.909 262.248 120.843 249.757 112.773C249.221 112.427 248.946 111.795 249.06 111.172C249.618 107.865 249.155 97.3221 222.569 91.6331C221.959 91.4965 221.385 91.2323 220.913 90.8359Z" fill="#D6431F"/>
<path d="M225.687 62.3862C230.005 64.7513 248.323 76.752 230.25 102.354C229.883 102.875 229.826 103.551 230.108 104.126C230.881 105.702 232.847 109.123 237.212 113.883C237.463 114.152 237.375 114.594 237.031 114.751C234.625 115.819 226.591 119.841 220.56 128.235C220.183 128.749 219.397 128.696 219.099 128.125C217.274 124.627 211.55 114.989 201.889 110.718C201.501 110.543 201.296 110.108 201.428 109.693C202.177 107.404 204.294 100.225 203.209 95.6293C203.088 95.1116 203.541 94.6462 204.069 94.7451C207.034 95.3268 214.533 96.7163 216.076 96.3952C217.979 95.9879 233.008 84.4059 219.176 70.9846C218.838 70.6606 218.883 70.0983 219.268 69.8316C220.541 68.9418 223.032 66.7779 224.509 62.8225C224.693 62.3501 225.238 62.1414 225.687 62.3862Z" fill="#249A48"/>
</svg>
