<svg width="188" height="188" viewBox="0 0 188 188" fill="none" xmlns="http://www.w3.org/2000/svg">
<path d="M131.941 31.3666C131.941 31.3666 104.923 18.3591 86.2289 24.8416C86.2289 24.8416 39.54 0.36458 11.8509 54.6485C-15.8381 108.932 27.31 157.352 63.5785 166.158C63.5785 166.158 136.615 224.979 176.86 138.13C191.461 106.034 186.694 57.9648 153.212 47.4354C153.212 47.4354 146.426 40.2372 144.367 39.1511C144.367 39.1623 138.317 34.0153 131.941 31.3666Z" fill="#D6431F"/>
<path d="M151.145 4.71775C151.145 4.71775 129.282 31.9073 122.568 50.6399L122.756 20.1703L114.547 42.0464L85.9699 38.6205C85.9699 38.6205 100.769 64.5816 106.374 67.631L78.5509 84.5467C78.5509 84.5467 113.895 86.8372 119.101 86.0319L128.545 105.032C128.545 105.032 128.567 83.7633 130.485 76.1647C130.485 76.1647 152.102 65.1179 153.224 66.2184C153.224 66.2184 140.157 59.3202 138.241 56.9171C138.241 56.9171 148.783 27.691 161.331 14.2104L151.145 4.71775Z" fill="#249A48"/>
</svg>
