<svg width="585" height="589" viewBox="0 0 585 589" fill="none" xmlns="http://www.w3.org/2000/svg">
<path d="M299.912 269.966L419.392 28.7576C436.495 36.8259 452.694 46.4958 467.796 57.573L331.259 269.966L555.172 159.501C569.543 187.184 579.638 217.442 584.585 249.401L331.259 291.623L583.135 348.594C579.344 369.065 573.43 388.791 565.632 407.537L331.259 307.092L486.429 517.027C466.06 534.662 443.243 549.544 418.555 561.094L318.884 319.468L279.173 588.273C267.9 587.708 256.794 586.507 245.891 584.707L235.349 582.448L300.321 319.468L100.72 516.042C73.4929 492.227 50.6998 463.468 33.7405 431.167L287.945 307.092H0.477783C0.30816 302.992 0.220947 298.871 0.220947 294.729C0.220954 279.275 1.41473 264.1 3.71313 249.29L287.945 291.623L43.1575 141.69C55.7388 121.101 70.7826 102.18 87.8792 85.3376L287.945 279.247L198.39 16.7585C199.749 16.2904 201.113 15.8332 202.482 15.3845L266.906 2.05542C273.897 1.41306 280.959 1.01585 288.083 0.871826L299.912 269.966Z" fill="url(#paint0_radial_263_1972)" fill-opacity="0.5"/>
<g filter="url(#filter0_d_263_1972)">
<path d="M355.274 158.906L357.955 162.305L400.788 216.631L404.947 221.907L401.029 227.363L311.591 351.924L304.342 362.02L297.092 351.924L207.643 227.363L203.724 221.907L207.883 216.631L250.716 162.305L253.396 158.906H355.274Z" fill="#ED6FF7" stroke="white" stroke-width="17.85"/>
<path d="M350.946 167.831H304.341H257.725L214.892 222.157L304.341 346.718L393.779 222.157L350.946 167.831Z" fill="#ED6FF7"/>
<path d="M304.334 220.741H259.609L304.334 346.718L349.047 220.741H304.334Z" fill="#E249F2"/>
<path d="M304.334 167.831L259.609 220.741H349.047L304.334 167.831Z" fill="#FA6AFF"/>
<path d="M214.892 222.157H259.617L304.341 167.831H257.725L214.892 222.157Z" fill="#E249F2"/>
<path d="M349.06 220.741H393.785L350.952 167.831H304.347L349.06 220.741Z" fill="#F989FF"/>
<path d="M345.703 230.548C356.411 230.548 356.411 213.891 345.703 213.891C334.995 213.891 334.995 230.548 345.703 230.548Z" fill="white"/>
</g>
<g filter="url(#filter1_d_263_1972)">
<path d="M205.81 237.835L209.977 239.011L263.242 254.041L269.706 255.865L269.743 262.582L270.405 385.256L270.473 397.685L258.674 393.777L142.216 355.197L135.839 353.086L136.105 346.373L138.292 291.071L138.463 286.746L205.81 237.835Z" fill="#ED6FF7" stroke="white" stroke-width="17.85"/>
<path d="M207.553 247.6L177.385 269.509L147.21 291.424L145.023 346.726L261.48 385.304L260.818 262.63L207.553 247.6Z" fill="#ED6FF7"/>
<path d="M202.255 303.757L173.304 324.782L261.477 385.303L231.198 282.737L202.255 303.757Z" fill="#E249F2"/>
<path d="M177.381 269.509L173.304 324.784L231.198 282.739L177.381 269.509Z" fill="#FA6AFF"/>
<path d="M145.023 346.726L173.973 325.7L177.385 269.509L147.21 291.424L145.023 346.726Z" fill="#E249F2"/>
<path d="M231.196 282.738L260.147 261.713L207.547 247.599L177.38 269.508L231.196 282.738Z" fill="#F989FF"/>
<path d="M233.637 290.661C240.568 285.627 232.738 274.844 225.806 279.878C218.875 284.912 226.705 295.695 233.637 290.661Z" fill="white"/>
</g>
<g filter="url(#filter2_d_263_1972)">
<path d="M422.814 297.65L423.579 301.911L431.254 344.699L432.439 351.31L426.413 354.28L339.984 396.876L328.835 402.371L327.191 390.051L314.451 294.535L313.563 287.877L319.716 285.18L359.532 267.735L363.497 265.997L422.814 297.65Z" fill="#ED6FF7" stroke="white" stroke-width="17.85"/>
<path d="M414.794 303.486L388.958 289.699L363.114 275.909L323.298 293.355L336.038 388.87L422.469 346.275L414.794 303.486Z" fill="#ED6FF7"/>
<path d="M373.307 319.033L348.513 305.802L336.04 388.871L398.095 332.26L373.307 319.033Z" fill="#E249F2"/>
<path d="M388.955 289.701L348.508 305.803L398.09 332.261L388.955 289.701Z" fill="#FA6AFF"/>
<path d="M323.298 293.355L348.092 306.586L388.958 289.699L363.114 275.909L323.298 293.355Z" fill="#E249F2"/>
<path d="M398.095 332.258L422.889 345.489L414.796 303.485L388.959 289.698L398.095 332.258Z" fill="#F989FF"/>
<path d="M393.334 336.705C399.27 339.873 404.198 330.638 398.262 327.471C392.325 324.303 387.398 333.537 393.334 336.705Z" fill="white"/>
</g>
<g filter="url(#filter3_d_263_1972)">
<path d="M500.324 228.316L502.509 232.053L519.406 260.953L522.797 266.753L518.163 271.615L466.969 325.337L458.395 334.334L452.609 323.334L418.065 257.655L414.937 251.709L419.786 247.058L443.946 223.885L447.071 220.888L500.324 228.316Z" fill="#ED6FF7" stroke="white" stroke-width="17.85"/>
<path d="M494.804 236.557L472.467 233.442L450.125 230.325L425.964 253.5L460.508 319.179L511.701 265.458L494.804 236.557Z" fill="#ED6FF7"/>
<path d="M468.924 258.799L447.489 255.809L460.503 319.177L490.354 261.788L468.924 258.799Z" fill="#E249F2"/>
<path d="M472.467 233.441L447.494 255.81L490.36 261.789L472.467 233.441Z" fill="#FA6AFF"/>
<path d="M425.964 253.5L447.4 256.49L472.467 233.442L450.125 230.325L425.964 253.5Z" fill="#E249F2"/>
<path d="M490.36 261.794L511.796 264.783L494.804 236.561L472.467 233.445L490.36 261.794Z" fill="#F989FF"/>
<path d="M488.089 266.267C493.222 266.983 494.335 259 489.203 258.284C484.071 257.568 482.957 265.552 488.089 266.267Z" fill="white"/>
</g>
<g filter="url(#filter4_d_263_1972)">
<path d="M154.636 142.219L158.616 143.924L183.919 154.761L190.093 157.407L189.261 164.072L181.698 224.616L180.158 236.949L168.963 231.548L114.009 205.031L107.959 202.112L109.09 195.49L113.725 168.357L114.454 164.09L154.636 142.219Z" fill="#ED6FF7" stroke="white" stroke-width="17.85"/>
<path d="M155.102 152.127L138.814 160.992L122.523 169.86L117.888 196.993L172.842 223.51L180.405 162.966L155.102 152.127Z" fill="#ED6FF7"/>
<path d="M148.878 179.487L133.247 187.995L172.841 223.513L164.504 170.982L148.878 179.487Z" fill="#E249F2"/>
<path d="M138.821 160.995L133.255 187.993L164.512 170.98L138.821 160.995Z" fill="#FA6AFF"/>
<path d="M117.888 196.993L133.518 188.486L138.814 160.992L122.523 169.86L117.888 196.993Z" fill="#E249F2"/>
<path d="M164.503 170.982L180.134 162.475L155.1 152.131L138.813 160.996L164.503 170.982Z" fill="#F989FF"/>
<path d="M165.201 175.047C168.943 173.01 165.775 167.188 162.032 169.225C158.29 171.262 161.459 177.083 165.201 175.047Z" fill="white"/>
</g>
<defs>
<filter id="filter0_d_263_1972" x="192.556" y="149.98" width="223.559" height="245.191" filterUnits="userSpaceOnUse" color-interpolation-filters="sRGB">
<feFlood flood-opacity="0" result="BackgroundImageFix"/>
<feColorMatrix in="SourceAlpha" type="matrix" values="0 0 0 0 0 0 0 0 0 0 0 0 0 0 0 0 0 0 127 0" result="hardAlpha"/>
<feOffset dy="17.85"/>
<feComposite in2="hardAlpha" operator="out"/>
<feColorMatrix type="matrix" values="0 0 0 0 0 0 0 0 0 0 0 0 0 0 0 0 0 0 0.15 0"/>
<feBlend mode="normal" in2="BackgroundImageFix" result="effect1_dropShadow_263_1972"/>
<feBlend mode="normal" in="SourceGraphic" in2="effect1_dropShadow_263_1972" result="shape"/>
</filter>
<filter id="filter1_d_263_1972" x="126.656" y="228.07" width="152.809" height="199.846" filterUnits="userSpaceOnUse" color-interpolation-filters="sRGB">
<feFlood flood-opacity="0" result="BackgroundImageFix"/>
<feColorMatrix in="SourceAlpha" type="matrix" values="0 0 0 0 0 0 0 0 0 0 0 0 0 0 0 0 0 0 127 0" result="hardAlpha"/>
<feOffset dy="17.85"/>
<feComposite in2="hardAlpha" operator="out"/>
<feColorMatrix type="matrix" values="0 0 0 0 0 0 0 0 0 0 0 0 0 0 0 0 0 0 0.15 0"/>
<feBlend mode="normal" in2="BackgroundImageFix" result="effect1_dropShadow_263_1972"/>
<feBlend mode="normal" in="SourceGraphic" in2="effect1_dropShadow_263_1972" result="shape"/>
</filter>
<filter id="filter2_d_263_1972" x="303.828" y="256.085" width="138.582" height="177.635" filterUnits="userSpaceOnUse" color-interpolation-filters="sRGB">
<feFlood flood-opacity="0" result="BackgroundImageFix"/>
<feColorMatrix in="SourceAlpha" type="matrix" values="0 0 0 0 0 0 0 0 0 0 0 0 0 0 0 0 0 0 127 0" result="hardAlpha"/>
<feOffset dy="17.85"/>
<feComposite in2="hardAlpha" operator="out"/>
<feColorMatrix type="matrix" values="0 0 0 0 0 0 0 0 0 0 0 0 0 0 0 0 0 0 0.15 0"/>
<feBlend mode="normal" in2="BackgroundImageFix" result="effect1_dropShadow_263_1972"/>
<feBlend mode="normal" in="SourceGraphic" in2="effect1_dropShadow_263_1972" result="shape"/>
</filter>
<filter id="filter3_d_263_1972" x="403.911" y="211.451" width="129.98" height="155.889" filterUnits="userSpaceOnUse" color-interpolation-filters="sRGB">
<feFlood flood-opacity="0" result="BackgroundImageFix"/>
<feColorMatrix in="SourceAlpha" type="matrix" values="0 0 0 0 0 0 0 0 0 0 0 0 0 0 0 0 0 0 127 0" result="hardAlpha"/>
<feOffset dy="17.85"/>
<feComposite in2="hardAlpha" operator="out"/>
<feColorMatrix type="matrix" values="0 0 0 0 0 0 0 0 0 0 0 0 0 0 0 0 0 0 0.15 0"/>
<feBlend mode="normal" in2="BackgroundImageFix" result="effect1_dropShadow_263_1972"/>
<feBlend mode="normal" in="SourceGraphic" in2="effect1_dropShadow_263_1972" result="shape"/>
</filter>
<filter id="filter4_d_263_1972" x="98.03" y="132.311" width="101.752" height="135.928" filterUnits="userSpaceOnUse" color-interpolation-filters="sRGB">
<feFlood flood-opacity="0" result="BackgroundImageFix"/>
<feColorMatrix in="SourceAlpha" type="matrix" values="0 0 0 0 0 0 0 0 0 0 0 0 0 0 0 0 0 0 127 0" result="hardAlpha"/>
<feOffset dy="17.85"/>
<feComposite in2="hardAlpha" operator="out"/>
<feColorMatrix type="matrix" values="0 0 0 0 0 0 0 0 0 0 0 0 0 0 0 0 0 0 0.15 0"/>
<feBlend mode="normal" in2="BackgroundImageFix" result="effect1_dropShadow_263_1972"/>
<feBlend mode="normal" in="SourceGraphic" in2="effect1_dropShadow_263_1972" result="shape"/>
</filter>
<radialGradient id="paint0_radial_263_1972" cx="0" cy="0" r="1" gradientUnits="userSpaceOnUse" gradientTransform="translate(292.403 294.573) rotate(90) scale(293.701 292.182)">
<stop offset="0.53125" stop-color="#F9F9F9"/>
<stop offset="1" stop-color="white" stop-opacity="0"/>
</radialGradient>
</defs>
</svg>
