<svg width="628" height="631" viewBox="0 0 628 631" fill="none" xmlns="http://www.w3.org/2000/svg">
<path d="M321.771 289.135L449.939 30.3853C468.286 39.0407 485.664 49.4132 501.864 61.2964L355.397 289.135L595.592 170.639C611.006 200.335 621.833 232.793 627.14 267.076L355.397 312.367L625.582 373.48C621.514 395.439 615.171 416.599 606.806 436.708L355.397 328.961L521.844 554.154C499.994 573.07 475.519 589.034 449.037 601.424L342.122 342.237L299.525 630.58C287.388 629.971 275.432 628.676 263.694 626.733L252.514 624.337L322.209 342.237L108.1 553.102C78.892 527.556 54.4414 496.707 36.248 462.057L308.934 328.961H0.5625C0.380332 324.561 0.287114 320.138 0.287109 315.693C0.287109 299.117 1.56736 282.84 4.03223 266.956L308.934 312.367L46.3438 151.53C59.8399 129.443 75.9775 109.146 94.3174 91.0786L308.934 299.091L212.865 17.5112C214.304 17.0157 215.748 16.5314 217.196 16.0562L286.417 1.73486C293.899 1.0487 301.457 0.623307 309.082 0.469238L321.771 289.135Z" fill="url(#paint0_radial_263_2017)" fill-opacity="0.5"/>
<path d="M321.771 289.135L449.939 30.3853C468.286 39.0407 485.664 49.4132 501.864 61.2964L355.397 289.135L595.592 170.639C611.006 200.335 621.833 232.793 627.14 267.076L355.397 312.367L625.582 373.48C621.514 395.439 615.171 416.599 606.806 436.708L355.397 328.961L521.844 554.154C499.994 573.07 475.519 589.034 449.037 601.424L342.122 342.237L299.525 630.58C287.388 629.971 275.432 628.676 263.694 626.733L252.514 624.337L322.209 342.237L108.1 553.102C78.892 527.556 54.4414 496.707 36.248 462.057L308.934 328.961H0.5625C0.380332 324.561 0.287114 320.138 0.287109 315.693C0.287109 299.117 1.56736 282.84 4.03223 266.956L308.934 312.367L46.3438 151.53C59.8399 129.443 75.9775 109.146 94.3174 91.0786L308.934 299.091L212.865 17.5112C214.304 17.0157 215.748 16.5314 217.196 16.0562L286.417 1.73486C293.899 1.0487 301.457 0.623307 309.082 0.469238L321.771 289.135Z" fill="url(#paint1_radial_263_2017)" fill-opacity="0.5"/>
<g filter="url(#filter0_d_263_2017)">
<path d="M285.915 153.987C335.046 153.987 374.874 184.121 374.875 221.293V231.592C379.51 238.582 382.582 246.267 383.748 254.385C398.25 246.621 415.958 242.058 435.075 242.058C484.206 242.058 524.035 272.193 524.035 309.366C524.035 309.669 524.031 309.972 524.026 310.274V320.138C532.631 330.499 537.608 342.76 537.608 355.9V383.84C537.608 420.52 498.771 450.39 450.487 451.131C450.363 451.133 450.238 451.136 450.114 451.137C449.627 451.143 449.138 451.148 448.649 451.148C446.346 451.148 444.063 451.082 441.804 450.952C441.051 450.908 440.3 450.858 439.553 450.8C429.46 450.025 419.865 447.973 411.056 444.861C410.404 444.63 409.755 444.394 409.111 444.152C402.995 441.852 397.279 439.035 392.061 435.777C391.512 435.434 390.968 435.086 390.43 434.734C383.706 430.326 377.863 425.168 373.131 419.432C372.752 418.973 372.381 418.511 372.016 418.044C370.183 415.698 368.533 413.26 367.08 410.742C351.83 426.466 327.768 436.98 300.394 438.144C300.313 438.148 300.231 438.151 300.149 438.155C299.677 438.174 299.204 438.191 298.73 438.205C298.567 438.209 298.403 438.212 298.239 438.216C297.892 438.225 297.544 438.232 297.195 438.238C297.061 438.24 296.926 438.242 296.792 438.244C296.3 438.25 295.808 438.253 295.314 438.253C284.567 438.253 274.264 436.812 264.726 434.17C264.595 434.134 264.465 434.096 264.334 434.059C263.649 434.98 262.951 435.891 262.239 436.792C262.14 436.917 262.041 437.043 261.941 437.168C261.796 437.351 261.65 437.532 261.504 437.713C261.332 437.926 261.159 438.137 260.986 438.349C260.883 438.475 260.781 438.603 260.677 438.729C259.667 439.954 258.627 441.166 257.555 442.364C252.267 448.278 246.553 453.486 240.574 457.959C209.524 481.204 171.298 484.603 148.056 463.82L127.233 445.193L127.243 445.18C127.236 445.174 127.228 445.168 127.221 445.162C99.5144 420.38 103.605 370.604 136.359 333.984C153.856 314.421 175.993 302.571 197.044 299.553C197.531 291.179 200.04 283.203 204.211 275.897C201.822 271.713 199.98 267.31 198.749 262.738L198.595 262.727V262.159C197.52 257.976 196.956 253.656 196.956 249.235V221.293C196.956 184.121 236.784 153.987 285.915 153.987Z" fill="#E86124"/>
<path d="M285.915 153.987L285.915 141.987L285.915 141.987L285.915 153.987ZM374.875 221.293L386.875 221.293L386.875 221.293L374.875 221.293ZM374.875 231.592H362.875V235.21L364.874 238.224L374.875 231.592ZM383.748 254.385L371.87 256.09L374.305 273.053L389.412 264.964L383.748 254.385ZM435.075 242.058L435.075 230.058L435.075 230.058L435.075 242.058ZM524.035 309.366L536.035 309.366V309.366H524.035ZM524.026 310.274L512.028 310.064L512.026 310.169V310.274H524.026ZM524.026 320.138H512.026V324.471L514.795 327.805L524.026 320.138ZM450.487 451.131L450.303 439.133L450.297 439.133L450.487 451.131ZM450.114 451.137L450.261 463.136L450.266 463.136L450.114 451.137ZM448.649 451.148L448.649 463.148L448.649 463.148L448.649 451.148ZM441.804 450.952L441.115 462.932L441.115 462.932L441.804 450.952ZM439.553 450.8L438.633 462.765L438.633 462.765L439.553 450.8ZM411.056 444.861L407.059 456.176L407.059 456.176L411.056 444.861ZM409.111 444.152L404.888 455.384L404.888 455.384L409.111 444.152ZM392.061 435.777L385.705 445.955L385.705 445.955L392.061 435.777ZM390.43 434.734L383.852 444.77L383.852 444.77L390.43 434.734ZM373.131 419.432L363.874 427.069L363.874 427.069L373.131 419.432ZM372.016 418.044L362.561 425.433L362.561 425.433L372.016 418.044ZM367.08 410.742L377.474 404.745L369.531 390.977L358.465 402.388L367.08 410.742ZM300.394 438.144L299.884 426.155L299.879 426.155L300.394 438.144ZM300.149 438.155L300.634 450.145L300.64 450.145L300.149 438.155ZM298.73 438.205L298.388 426.209L298.386 426.21L298.73 438.205ZM298.239 438.216L298.532 450.213L298.532 450.213L298.239 438.216ZM297.195 438.238L297.381 450.236L297.383 450.236L297.195 438.238ZM296.792 438.244L296.647 426.245L296.644 426.245L296.792 438.244ZM295.314 438.253L295.314 450.253L295.314 450.253L295.314 438.253ZM264.726 434.17L261.523 445.735L261.523 445.735L264.726 434.17ZM264.334 434.059L267.581 422.507L259.631 420.272L254.704 426.899L264.334 434.059ZM262.239 436.792L252.825 429.35L252.822 429.354L262.239 436.792ZM261.941 437.168L271.324 444.649L271.328 444.644L261.941 437.168ZM261.504 437.713L252.166 430.177L252.161 430.182L261.504 437.713ZM260.986 438.349L270.271 445.951L270.276 445.945L260.986 438.349ZM260.677 438.729L251.424 431.088L251.418 431.095L260.677 438.729ZM257.555 442.364L266.5 450.363L266.5 450.363L257.555 442.364ZM240.574 457.959L233.385 448.351L233.382 448.353L240.574 457.959ZM148.056 463.82L140.056 472.764L140.057 472.765L148.056 463.82ZM127.233 445.193L117.722 437.876L110.928 446.708L119.233 454.137L127.233 445.193ZM127.243 445.18L136.754 452.497L143.552 443.66L135.238 436.231L127.243 445.18ZM127.221 445.162L119.222 454.106L119.227 454.111L127.221 445.162ZM136.359 333.984L127.415 325.984L127.415 325.984L136.359 333.984ZM197.044 299.553L198.747 311.432L208.454 310.04L209.023 300.25L197.044 299.553ZM204.211 275.897L214.632 281.847L218.029 275.897L214.632 269.947L204.211 275.897ZM198.749 262.738L210.336 259.618L208.114 251.365L199.588 250.767L198.749 262.738ZM198.595 262.727H186.595V273.916L197.757 274.698L198.595 262.727ZM198.595 262.159H210.595V260.641L210.217 259.17L198.595 262.159ZM196.956 249.235L184.956 249.235L184.956 249.235L196.956 249.235ZM196.956 221.293L184.956 221.293V221.293H196.956ZM285.915 153.987L285.915 165.987C308.11 165.987 327.75 172.808 341.578 183.27C355.399 193.727 362.875 207.286 362.875 221.294L374.875 221.293L386.875 221.293C386.875 198.128 374.435 178.034 356.059 164.131C337.69 150.233 312.85 141.987 285.915 141.987L285.915 153.987ZM374.875 221.293H362.875V231.592H374.875H386.875V221.293H374.875ZM374.875 231.592L364.874 238.224C368.613 243.863 370.979 249.884 371.87 256.09L383.748 254.385L395.626 252.68C394.186 242.65 390.406 233.301 384.876 224.96L374.875 231.592ZM383.748 254.385L389.412 264.964C402.088 258.178 417.837 254.058 435.075 254.058L435.075 242.058L435.075 230.058C414.079 230.058 394.412 235.064 378.084 243.806L383.748 254.385ZM435.075 242.058L435.075 254.058C457.27 254.058 476.911 260.879 490.739 271.342C504.559 281.799 512.035 295.358 512.035 309.366H524.035H536.035C536.035 286.201 523.596 266.106 505.219 252.203C486.85 238.304 462.011 230.058 435.075 230.058L435.075 242.058ZM524.035 309.366L512.035 309.366C512.035 309.578 512.032 309.808 512.028 310.064L524.026 310.274L536.024 310.484C536.03 310.136 536.035 309.76 536.035 309.366L524.035 309.366ZM524.026 310.274H512.026V320.138H524.026H536.026V310.274H524.026ZM524.026 320.138L514.795 327.805C521.86 336.312 525.608 345.927 525.608 355.9H537.608H549.608C549.608 339.593 543.403 324.686 533.258 312.471L524.026 320.138ZM537.608 355.9H525.608V383.84H537.608H549.608V355.9H537.608ZM537.608 383.84H525.608C525.608 397.661 518.321 411.051 504.825 421.461C491.318 431.88 472.104 438.798 450.303 439.133L450.487 451.131L450.671 463.13C477.154 462.723 501.501 454.336 519.483 440.464C537.477 426.585 549.608 406.7 549.608 383.84H537.608ZM450.487 451.131L450.297 439.133C450.127 439.136 450.062 439.137 449.962 439.138L450.114 451.137L450.266 463.136C450.414 463.134 450.598 463.131 450.677 463.13L450.487 451.131ZM450.114 451.137L449.967 439.138C449.495 439.144 449.064 439.148 448.649 439.148L448.649 451.148L448.649 463.148C449.212 463.148 449.758 463.142 450.261 463.136L450.114 451.137ZM448.649 451.148V439.148C446.576 439.148 444.523 439.088 442.494 438.971L441.804 450.952L441.115 462.932C443.603 463.075 446.116 463.148 448.649 463.148V451.148ZM441.804 450.952L442.494 438.971C441.818 438.933 441.144 438.887 440.472 438.836L439.553 450.8L438.633 462.765C439.457 462.828 440.284 462.884 441.115 462.932L441.804 450.952ZM439.553 450.8L440.472 438.836C431.407 438.139 422.849 436.3 415.054 433.546L411.056 444.861L407.059 456.176C416.881 459.645 427.512 461.91 438.633 462.765L439.553 450.8ZM411.056 444.861L415.054 433.546C414.474 433.341 413.901 433.133 413.335 432.92L409.111 444.152L404.888 455.384C405.609 455.655 406.334 455.919 407.059 456.176L411.056 444.861ZM409.111 444.152L413.335 432.92C407.932 430.888 402.933 428.418 398.417 425.598L392.061 435.777L385.705 445.955C391.624 449.651 398.058 452.816 404.888 455.384L409.111 444.152ZM392.061 435.777L398.417 425.598C397.938 425.299 397.469 424.999 397.009 424.698L390.43 434.734L383.852 444.77C384.468 445.174 385.086 445.569 385.705 445.955L392.061 435.777ZM390.43 434.734L397.009 424.698C391.2 420.891 386.286 416.521 382.387 411.795L373.131 419.432L363.874 427.069C369.441 433.816 376.211 439.762 383.852 444.77L390.43 434.734ZM373.131 419.432L382.387 411.795C382.076 411.419 381.771 411.039 381.472 410.656L372.016 418.044L362.561 425.433C362.99 425.982 363.428 426.528 363.874 427.069L373.131 419.432ZM372.016 418.044L381.472 410.656C379.971 408.735 378.637 406.76 377.474 404.745L367.08 410.742L356.686 416.739C358.429 419.759 360.395 422.661 362.561 425.433L372.016 418.044ZM367.08 410.742L358.465 402.388C345.653 415.599 324.651 425.102 299.884 426.155L300.394 438.144L300.904 450.133C330.886 448.858 358.008 437.334 375.694 419.096L367.08 410.742ZM300.394 438.144L299.879 426.155C299.7 426.163 299.748 426.161 299.659 426.165L300.149 438.155L300.64 450.145C300.705 450.142 300.765 450.139 300.808 450.137C300.858 450.135 300.883 450.134 300.91 450.133L300.394 438.144ZM300.149 438.155L299.664 426.165C299.224 426.182 298.801 426.198 298.388 426.209L298.73 438.205L299.072 450.2C299.608 450.184 300.131 450.165 300.634 450.145L300.149 438.155ZM298.73 438.205L298.386 426.21C298.242 426.214 298.22 426.213 297.946 426.22L298.239 438.216L298.532 450.213C298.585 450.211 298.892 450.205 299.074 450.2L298.73 438.205ZM298.239 438.216L297.946 426.22C297.619 426.228 297.309 426.235 297.007 426.239L297.195 438.238L297.383 450.236C297.778 450.23 298.164 450.222 298.532 450.213L298.239 438.216ZM297.195 438.238L297.009 426.239C296.865 426.241 296.756 426.243 296.647 426.245L296.792 438.244L296.936 450.243C297.097 450.241 297.257 450.238 297.381 450.236L297.195 438.238ZM296.792 438.244L296.644 426.245C296.19 426.25 295.748 426.253 295.314 426.253L295.314 438.253L295.314 450.253C295.867 450.253 296.41 450.249 296.939 450.243L296.792 438.244ZM295.314 438.253L295.314 426.253C285.636 426.253 276.411 424.955 267.93 422.606L264.726 434.17L261.523 445.735C272.117 448.669 283.497 450.253 295.314 450.253L295.314 438.253ZM264.726 434.17L267.93 422.606C267.748 422.556 267.957 422.612 267.581 422.507L264.334 434.059L261.087 445.611C261.119 445.621 261.15 445.629 261.232 445.653C261.3 445.672 261.406 445.703 261.523 445.735L264.726 434.17ZM264.334 434.059L254.704 426.899C254.089 427.727 253.462 428.544 252.825 429.35L262.239 436.792L271.653 444.233C272.439 443.239 273.209 442.234 273.964 441.219L264.334 434.059ZM262.239 436.792L252.822 429.354C252.688 429.523 252.635 429.592 252.554 429.693L261.941 437.168L271.328 444.644C271.447 444.495 271.591 444.311 271.656 444.229L262.239 436.792ZM261.941 437.168L252.558 429.688C252.434 429.844 252.304 430.005 252.166 430.177L261.504 437.713L270.842 445.25C270.996 445.059 271.158 444.857 271.324 444.649L261.941 437.168ZM261.504 437.713L252.161 430.182C252.022 430.355 251.879 430.53 251.696 430.753L260.986 438.349L270.276 445.945C270.44 445.745 270.643 445.497 270.846 445.245L261.504 437.713ZM260.986 438.349L251.701 430.747C251.435 431.072 251.556 430.927 251.424 431.088L260.677 438.729L269.929 446.37C270.017 446.264 270.097 446.165 270.151 446.099C270.214 446.022 270.241 445.987 270.271 445.951L260.986 438.349ZM260.677 438.729L251.418 431.095C250.508 432.198 249.573 433.288 248.611 434.364L257.555 442.364L266.5 450.363C267.68 449.044 268.825 447.709 269.935 446.363L260.677 438.729ZM257.555 442.364L248.611 434.364C243.85 439.687 238.724 444.357 233.385 448.351L240.574 457.959L247.763 467.568C254.381 462.616 260.683 456.868 266.5 450.363L257.555 442.364ZM240.574 457.959L233.382 448.353C204.89 469.684 173.403 470.387 156.055 454.875L148.056 463.82L140.057 472.765C169.193 498.819 214.159 492.725 247.766 467.566L240.574 457.959ZM148.056 463.82L156.057 454.876L135.234 436.249L127.233 445.193L119.233 454.137L140.056 472.764L148.056 463.82ZM127.233 445.193L136.745 452.509L136.754 452.497L127.243 445.18L117.731 437.864L117.722 437.876L127.233 445.193ZM127.243 445.18L135.238 436.231C135.199 436.197 135.165 436.167 135.136 436.141C135.107 436.116 135.082 436.094 135.062 436.077C135.043 436.061 135.027 436.047 135.017 436.039C135.012 436.034 135.007 436.031 135.005 436.028C135.002 436.026 135 436.024 135 436.024C134.999 436.023 135 436.025 135.002 436.026C135.004 436.027 135.007 436.03 135.011 436.034C135.019 436.041 135.034 436.053 135.051 436.068C135.069 436.083 135.092 436.103 135.119 436.127C135.147 436.151 135.179 436.18 135.216 436.213L127.221 445.162L119.227 454.111C119.265 454.145 119.3 454.175 119.329 454.201C119.358 454.226 119.383 454.248 119.402 454.265C119.422 454.281 119.438 454.295 119.448 454.303C119.453 454.308 119.457 454.311 119.46 454.314C119.462 454.316 119.464 454.318 119.465 454.318C119.465 454.318 119.464 454.317 119.462 454.316C119.461 454.314 119.457 454.311 119.453 454.308C119.445 454.301 119.431 454.289 119.413 454.274C119.395 454.258 119.372 454.238 119.345 454.214C119.317 454.19 119.285 454.162 119.248 454.129L127.243 445.18ZM127.221 445.162L135.221 436.217C124.781 426.879 119.658 412.268 121.077 394.995C122.498 377.714 130.507 358.527 145.303 341.984L136.359 333.984L127.415 325.984C109.458 346.061 99.0447 370.072 97.1578 393.029C95.2703 415.995 101.955 438.663 119.222 454.106L127.221 445.162ZM136.359 333.984L145.303 341.984C161.126 324.294 180.785 314.007 198.747 311.432L197.044 299.553L195.341 287.675C171.202 291.135 146.587 304.549 127.415 325.984L136.359 333.984ZM197.044 299.553L209.023 300.25C209.395 293.859 211.309 287.668 214.632 281.847L204.211 275.897L193.789 269.947C188.77 278.739 185.666 288.499 185.064 298.856L197.044 299.553ZM204.211 275.897L214.632 269.947C212.725 266.607 211.287 263.151 210.336 259.618L198.749 262.738L187.162 265.858C188.672 271.468 190.919 276.819 193.79 281.847L204.211 275.897ZM198.749 262.738L199.588 250.767L199.434 250.756L198.595 262.727L197.757 274.698L197.91 274.708L198.749 262.738ZM198.595 262.727H210.595V262.159H198.595H186.595V262.727H198.595ZM198.595 262.159L210.217 259.17C209.388 255.944 208.956 252.627 208.956 249.235L196.956 249.235L184.956 249.235C184.956 254.684 185.652 260.008 186.974 265.147L198.595 262.159ZM196.956 249.235H208.956V221.293H196.956H184.956V249.235H196.956ZM196.956 221.293L208.956 221.294C208.956 207.286 216.431 193.727 230.252 183.27C244.079 172.808 263.72 165.987 285.915 165.987L285.915 153.987L285.915 141.987C258.979 141.987 234.14 150.233 215.771 164.131C197.395 178.034 184.956 198.129 184.956 221.293L196.956 221.293Z" fill="white"/>
</g>
<path d="M384.242 370.946V343.013H376.236C362.214 319.788 331.239 303.647 295.291 303.647C259.343 303.647 228.36 319.788 214.338 343.013H206.332V370.946C206.332 408.124 246.159 438.253 295.291 438.253C344.423 438.253 384.242 408.167 384.242 370.946Z" fill="#E86124"/>
<path d="M232.615 370.946V343.013H240.622C252.909 322.668 278.219 307.766 308.433 304.373C304.069 303.888 299.682 303.646 295.291 303.647C259.335 303.647 228.36 319.788 214.338 343.013H206.332V370.946C206.332 408.124 246.159 438.253 295.291 438.253C299.682 438.255 304.07 438.01 308.433 437.518C265.53 432.716 232.615 404.749 232.615 370.946Z" fill="#DC4A26"/>
<path d="M295.291 410.321C344.422 410.321 384.251 380.186 384.251 343.014C384.251 305.841 344.422 275.707 295.291 275.707C246.16 275.707 206.332 305.841 206.332 343.014C206.332 380.186 246.16 410.321 295.291 410.321Z" fill="#F0E92D"/>
<path d="M295.294 391.719C330.848 391.719 359.67 369.913 359.67 343.014C359.67 316.115 330.848 294.309 295.294 294.309C259.74 294.309 230.917 316.115 230.917 343.014C230.917 369.913 259.74 391.719 295.294 391.719Z" fill="#EF8521"/>
<path d="M249.802 351.456C249.802 324.327 270.31 301.469 298.234 294.36C297.26 294.36 296.277 294.3 295.294 294.3C259.731 294.3 230.91 316.107 230.91 343.005C230.91 360.317 242.872 375.476 260.816 384.149C253.706 374.729 249.841 363.258 249.802 351.456Z" fill="#E86124"/>
<path d="M374.855 330.504V302.562H366.849C352.818 279.338 321.852 263.197 285.896 263.197C249.939 263.197 218.973 279.338 204.942 302.562H196.936V330.504C196.936 367.674 236.763 397.811 285.896 397.811C335.028 397.811 374.855 367.674 374.855 330.504Z" fill="#E86124"/>
<path d="M223.228 330.504V302.562H231.235C243.514 282.226 268.832 267.324 299.037 263.932C294.674 263.443 290.286 263.198 285.896 263.197C249.939 263.197 218.973 279.338 204.942 302.562H196.936V330.504C196.936 367.674 236.763 397.811 285.896 397.811C290.286 397.81 294.674 397.564 299.037 397.076C256.143 392.274 223.228 364.298 223.228 330.504Z" fill="#DC4A26"/>
<path d="M285.896 369.87C335.027 369.87 374.855 339.735 374.855 302.562C374.855 265.39 335.027 235.255 285.896 235.255C236.765 235.255 196.936 265.39 196.936 302.562C196.936 339.735 236.765 369.87 285.896 369.87Z" fill="#F0E92D"/>
<path d="M285.899 351.268C321.453 351.268 350.275 329.462 350.275 302.563C350.275 275.664 321.453 253.858 285.899 253.858C250.345 253.858 221.522 275.664 221.522 302.563C221.522 329.462 250.345 351.268 285.899 351.268Z" fill="#EF8521"/>
<path d="M240.415 311.014C240.415 283.884 260.922 261.027 288.847 253.918C287.864 253.918 286.89 253.858 285.899 253.858C250.344 253.858 221.522 275.664 221.522 302.563C221.522 319.875 233.485 335.033 251.429 343.706C244.312 334.29 240.447 322.817 240.415 311.014V311.014Z" fill="#E86124"/>
<path d="M384.242 289.678V261.736H376.236C362.214 238.512 331.239 222.371 295.291 222.371C259.343 222.371 228.36 238.512 214.338 261.736H206.332V289.678C206.332 326.847 246.159 356.976 295.291 356.976C344.423 356.976 384.242 326.847 384.242 289.678Z" fill="#E86124"/>
<path d="M232.615 289.678V261.736H240.622C252.909 241.391 278.219 226.489 308.433 223.105C304.07 222.613 299.682 222.368 295.291 222.371C259.335 222.371 228.36 238.512 214.338 261.736H206.332V289.678C206.332 326.847 246.159 356.976 295.291 356.976C299.682 356.978 304.069 356.735 308.433 356.25C265.53 351.439 232.615 323.464 232.615 289.678Z" fill="#DC4A26"/>
<path d="M295.291 329.042C344.422 329.042 384.251 298.908 384.251 261.735C384.251 224.563 344.422 194.428 295.291 194.428C246.16 194.428 206.332 224.563 206.332 261.735C206.332 298.908 246.16 329.042 295.291 329.042Z" fill="#F0E92D"/>
<path d="M295.294 310.441C330.848 310.441 359.67 288.635 359.67 261.736C359.67 234.837 330.848 213.031 295.294 213.031C259.74 213.031 230.917 234.837 230.917 261.736C230.917 288.635 259.74 310.441 295.294 310.441Z" fill="#EF8521"/>
<path d="M249.802 270.178C249.802 243.057 270.31 220.191 298.234 213.082C297.26 213.082 296.277 213.031 295.294 213.031C259.731 213.031 230.91 234.837 230.91 261.736C230.91 279.048 242.872 294.206 260.816 302.879C253.704 293.457 249.839 281.983 249.802 270.178V270.178Z" fill="#E86124"/>
<path d="M374.855 249.234V221.293H366.849C352.818 198.068 321.852 181.927 285.896 181.927C249.939 181.927 218.973 198.068 204.942 221.293H196.936V249.234C196.936 286.404 236.763 316.533 285.896 316.533C335.028 316.533 374.855 286.404 374.855 249.234Z" fill="#E86124"/>
<path d="M223.228 249.234V221.293H231.235C243.514 200.948 268.832 186.046 299.037 182.654C294.674 182.168 290.286 181.926 285.896 181.927C249.939 181.927 218.973 198.068 204.942 221.293H196.936V249.234C196.936 286.404 236.763 316.533 285.896 316.533C290.287 316.536 294.674 316.291 299.037 315.798C256.143 310.996 223.228 283.02 223.228 249.234Z" fill="#DC4A26"/>
<path d="M285.896 288.601C335.027 288.601 374.855 258.467 374.855 221.294C374.855 184.121 335.027 153.987 285.896 153.987C236.765 153.987 196.936 184.121 196.936 221.294C196.936 258.467 236.765 288.601 285.896 288.601Z" fill="#F0E92D"/>
<path d="M285.899 269.999C321.453 269.999 350.275 248.193 350.275 221.294C350.275 194.394 321.453 172.588 285.899 172.588C250.345 172.588 221.522 194.394 221.522 221.294C221.522 248.193 250.345 269.999 285.899 269.999Z" fill="#EF8521"/>
<path d="M240.415 229.736C240.415 202.606 260.922 179.749 288.847 172.639C287.864 172.639 286.89 172.58 285.899 172.58C250.344 172.58 221.522 194.386 221.522 221.285C221.522 238.596 233.485 253.755 251.429 262.428C244.315 253.01 240.45 241.538 240.415 229.736V229.736Z" fill="#E86124"/>
<path d="M537.602 383.841V355.899H529.596C515.565 332.675 484.599 316.534 448.643 316.534C412.686 316.534 381.712 332.675 367.69 355.899H359.683V383.841C359.683 421.011 399.51 451.148 448.643 451.148C497.775 451.148 537.602 420.985 537.602 383.841Z" fill="#E86124"/>
<path d="M385.967 383.841V355.899H393.973C406.261 335.563 431.57 320.652 461.784 317.269C457.421 316.776 453.034 316.531 448.643 316.534C412.686 316.534 381.712 332.675 367.69 355.899H359.683V383.841C359.683 421.011 399.51 451.148 448.643 451.148C453.034 451.147 457.421 450.901 461.784 450.413C418.89 445.602 385.967 417.635 385.967 383.841Z" fill="#DC4A26"/>
<path d="M448.643 423.206C497.774 423.206 537.602 393.071 537.602 355.898C537.602 318.726 497.774 288.591 448.643 288.591C399.512 288.591 359.683 318.726 359.683 355.898C359.683 393.071 399.512 423.206 448.643 423.206Z" fill="#F0E92D"/>
<path d="M448.645 404.605C484.199 404.605 513.022 382.799 513.022 355.9C513.022 329.001 484.199 307.195 448.645 307.195C413.091 307.195 384.269 329.001 384.269 355.9C384.269 382.799 413.091 404.605 448.645 404.605Z" fill="#EF8521"/>
<path d="M403.138 364.342C403.138 337.221 423.645 314.355 451.57 307.246C450.596 307.246 449.613 307.195 448.63 307.195C413.076 307.195 384.246 329.001 384.246 355.9C384.246 373.212 396.208 388.37 414.152 397.043C407.039 387.622 403.174 376.147 403.138 364.342Z" fill="#E86124"/>
<path d="M524.023 337.306V309.364H516.017C501.995 286.14 471.02 269.999 435.064 269.999C399.107 269.999 368.141 286.14 354.119 309.364H346.113V337.306C346.113 374.475 385.94 404.604 435.064 404.604C484.188 404.604 524.023 374.475 524.023 337.306Z" fill="#E86124"/>
<path d="M372.396 337.306V309.364H380.377C392.665 289.019 417.974 274.117 448.189 270.725C443.83 270.24 439.449 269.998 435.064 269.999C399.116 269.999 368.141 286.14 354.119 309.364H346.113V337.306C346.113 374.475 385.94 404.604 435.064 404.604C439.457 404.606 443.848 404.363 448.214 403.878C405.311 399.067 372.396 371.092 372.396 337.306Z" fill="#DC4A26"/>
<path d="M435.072 376.672C484.203 376.672 524.032 346.538 524.032 309.365C524.032 272.193 484.203 242.058 435.072 242.058C385.941 242.058 346.113 272.193 346.113 309.365C346.113 346.538 385.941 376.672 435.072 376.672Z" fill="#F0E92D"/>
<path d="M435.055 358.07C470.609 358.07 499.432 336.264 499.432 309.365C499.432 282.466 470.609 260.66 435.055 260.66C399.501 260.66 370.679 282.466 370.679 309.365C370.679 336.264 399.501 358.07 435.055 358.07Z" fill="#EF8521"/>
<path d="M389.572 317.807C389.572 290.686 410.079 267.82 438.003 260.711C437.029 260.677 436.047 260.66 435.055 260.66C399.501 260.66 370.679 282.466 370.679 309.365C370.679 326.677 382.642 341.835 400.586 350.508C393.473 341.086 389.609 329.612 389.572 317.807V317.807Z" fill="#E86124"/>
<path d="M266.656 331.171L245.832 312.543L240.492 318.525C213.832 313.492 181.157 325.822 157.189 352.618C133.221 379.415 124.599 413.295 132.571 439.194L127.231 445.175L148.055 463.803C175.765 488.583 224.778 478.987 257.53 442.364C290.282 405.741 294.367 355.951 266.656 331.171Z" fill="#E86124"/>
<path d="M165.579 444.193L144.756 425.565L150.096 419.584C143.123 396.863 148.866 368.085 166.502 343.288C163.227 346.223 160.12 349.341 157.197 352.627C133.271 379.432 124.607 413.295 132.571 439.211L127.23 445.192L148.054 463.82C175.764 488.6 224.777 479.004 257.529 442.381C260.457 439.121 263.199 435.697 265.741 432.127C233.561 460.829 190.769 466.725 165.579 444.193Z" fill="#DC4A26"/>
<path d="M236.688 423.726C269.442 387.106 273.533 337.33 245.826 312.548C218.119 287.766 169.106 297.363 136.352 333.984C103.598 370.604 99.5071 420.38 127.214 445.162C154.921 469.943 203.934 460.346 236.688 423.726Z" fill="#F0E92D"/>
<path d="M222.831 411.326C246.534 384.825 249.495 348.805 229.446 330.873C209.396 312.94 173.928 319.886 150.226 346.386C126.523 372.887 123.562 408.907 143.611 426.84C163.661 444.772 199.129 437.827 222.831 411.326Z" fill="#EF8521"/>
<path d="M162.489 418.421C142.272 400.341 138.88 369.836 152.236 344.261C151.558 344.962 150.891 345.68 150.236 346.414C126.533 372.903 123.568 408.937 143.623 426.872C156.525 438.416 175.819 439.638 194.25 431.999C182.471 431.036 171.324 426.271 162.489 418.421Z" fill="#E86124"/>
<defs>
<filter id="filter0_d_263_2017" x="96.8488" y="141.987" width="452.759" height="371.615" filterUnits="userSpaceOnUse" color-interpolation-filters="sRGB">
<feFlood flood-opacity="0" result="BackgroundImageFix"/>
<feColorMatrix in="SourceAlpha" type="matrix" values="0 0 0 0 0 0 0 0 0 0 0 0 0 0 0 0 0 0 127 0" result="hardAlpha"/>
<feOffset dy="24"/>
<feComposite in2="hardAlpha" operator="out"/>
<feColorMatrix type="matrix" values="0 0 0 0 0 0 0 0 0 0 0 0 0 0 0 0 0 0 0.15 0"/>
<feBlend mode="normal" in2="BackgroundImageFix" result="effect1_dropShadow_263_2017"/>
<feBlend mode="normal" in="SourceGraphic" in2="effect1_dropShadow_263_2017" result="shape"/>
</filter>
<radialGradient id="paint0_radial_263_2017" cx="0" cy="0" r="1" gradientUnits="userSpaceOnUse" gradientTransform="translate(313.713 315.524) rotate(90) scale(315.055 313.426)">
<stop offset="0.53125" stop-color="#F9F9F9"/>
<stop offset="1" stop-color="white" stop-opacity="0"/>
</radialGradient>
<radialGradient id="paint1_radial_263_2017" cx="0" cy="0" r="1" gradientUnits="userSpaceOnUse" gradientTransform="translate(313.713 315.524) rotate(90) scale(315.055 313.426)">
<stop offset="0.53125" stop-color="#F9F9F9"/>
<stop offset="1" stop-color="white" stop-opacity="0"/>
</radialGradient>
</defs>
</svg>
